G04*
G04 #@! TF.GenerationSoftware,Altium Limited,Altium Designer,23.5.1 (21)*
G04*
G04 Layer_Color=32768*
%FSLAX25Y25*%
%MOIN*%
G70*
G04*
G04 #@! TF.SameCoordinates,89F97100-6FF8-4533-BDCD-A1BC4398B3AB*
G04*
G04*
G04 #@! TF.FilePolarity,Positive*
G04*
G01*
G75*
%ADD14C,0.00394*%
%ADD15C,0.00800*%
%ADD95C,0.00197*%
D14*
X91110Y127874D02*
X104890D01*
X91110Y112126D02*
X104890D01*
Y127874D01*
X91110Y112126D02*
Y127874D01*
X98000Y118032D02*
Y121968D01*
X96031Y120000D02*
X99968D01*
X63321Y240138D02*
Y242107D01*
X62337Y241122D02*
X64306D01*
X96031Y163000D02*
X99968D01*
X98000Y161031D02*
Y164969D01*
X188031Y241500D02*
X191969D01*
X190000Y239531D02*
Y243468D01*
D15*
X44339Y46532D02*
Y50468D01*
X62055Y46532D02*
Y50468D01*
X60087Y48500D02*
X64024D01*
X118000Y94886D02*
Y98823D01*
X116032Y96854D02*
X119968D01*
X116032Y67721D02*
X119968D01*
X140177Y189000D02*
X144114D01*
X142146Y187031D02*
Y190969D01*
X171280Y187031D02*
Y190969D01*
D95*
X69030Y235020D02*
Y247225D01*
X57613Y235020D02*
X69030D01*
X57613Y247225D02*
X69030D01*
X57613Y235020D02*
Y247225D01*
X81661Y146661D02*
Y179339D01*
X114339Y146661D02*
Y179339D01*
X81661D02*
X114339D01*
X81661Y146661D02*
X114339D01*
X195315Y234413D02*
Y248587D01*
X184685Y234413D02*
Y248587D01*
X195315D01*
X184685Y234413D02*
X195315D01*
M02*
