G04*
G04 #@! TF.GenerationSoftware,Altium Limited,Altium Designer,23.5.1 (21)*
G04*
G04 Layer_Color=2752767*
%FSLAX25Y25*%
%MOIN*%
G70*
G04*
G04 #@! TF.SameCoordinates,89F97100-6FF8-4533-BDCD-A1BC4398B3AB*
G04*
G04*
G04 #@! TF.FilePolarity,Positive*
G04*
G01*
G75*
%ADD96C,0.00500*%
%ADD97C,0.00667*%
%ADD98C,0.00400*%
D96*
X66000Y256500D02*
Y260500D01*
X70000D01*
Y256500D01*
X66000D01*
X76000D02*
Y260500D01*
X80000D01*
Y256500D01*
X76000D01*
X86000D02*
Y260500D01*
X90000D01*
Y256500D01*
X86000D01*
X96000D02*
Y260500D01*
X100000D01*
Y256500D01*
X96000D01*
X106000D02*
Y260500D01*
X110000D01*
Y256500D01*
X106000D01*
X114000Y222500D02*
Y226500D01*
X118000D01*
Y222500D01*
X114000D01*
X104000D02*
Y226500D01*
X108000D01*
Y222500D01*
X104000D01*
X94000D02*
Y226500D01*
X98000D01*
Y222500D01*
X94000D01*
X84000D02*
Y226500D01*
X88000D01*
Y222500D01*
X84000D01*
X74000D02*
Y226500D01*
X78000D01*
Y222500D01*
X74000D01*
X245000Y289500D02*
X246000Y291500D01*
X245000Y293500D01*
X247000Y292500D01*
X249000Y293500D01*
X248000Y291500D01*
X249000Y289500D01*
X247000Y290500D01*
X245000Y289500D01*
X225315D02*
X226315Y291500D01*
X225315Y293500D01*
X227315Y292500D01*
X229315Y293500D01*
X228315Y291500D01*
X229315Y289500D01*
X227315Y290500D01*
X225315Y289500D01*
X247000Y142500D02*
Y146500D01*
X251000D01*
Y142500D01*
X247000D01*
Y152500D02*
Y156500D01*
X251000D01*
Y152500D01*
X247000D01*
Y162500D02*
Y166500D01*
X251000D01*
Y162500D01*
X247000D01*
Y172500D02*
Y176500D01*
X251000D01*
Y172500D01*
X247000D01*
Y224000D02*
Y228000D01*
X251000D01*
Y224000D01*
X247000D01*
Y214000D02*
Y218000D01*
X251000D01*
Y214000D01*
X247000D01*
X131445Y300500D02*
X129445Y304500D01*
X133445D01*
X131445Y300500D01*
X165500D02*
X163500Y304500D01*
X167500D01*
X165500Y300500D01*
X159850Y286012D02*
X160850Y287012D01*
X161850D01*
X160850Y288012D01*
X161850Y289012D01*
X160850D01*
X159850Y290012D01*
X158850Y289012D01*
X157850D01*
X158850Y288012D01*
X157850Y287012D01*
X158850D01*
X159850Y286012D01*
X137094D02*
X138094Y287012D01*
X139094D01*
X138094Y288012D01*
X139094Y289012D01*
X138094D01*
X137094Y290012D01*
X136094Y289012D01*
X135094D01*
X136094Y288012D01*
X135094Y287012D01*
X136094D01*
X137094Y286012D01*
X228441Y100721D02*
X229441D01*
X230441Y101720D01*
X231441Y100721D01*
X232441D01*
Y101720D01*
X231441Y102720D01*
X232441Y103720D01*
Y104720D01*
X231441D01*
X230441Y103720D01*
X229441Y104720D01*
X228441D01*
Y103720D01*
X229441Y102720D01*
X228441Y101720D01*
Y100721D01*
X149701D02*
X150701D01*
X151701Y101720D01*
X152701Y100721D01*
X153701D01*
Y101720D01*
X152701Y102720D01*
X153701Y103720D01*
Y104720D01*
X152701D01*
X151701Y103720D01*
X150701Y104720D01*
X149701D01*
Y103720D01*
X150701Y102720D01*
X149701Y101720D01*
Y100721D01*
X228441Y258201D02*
X229441D01*
X230441Y259201D01*
X231441Y258201D01*
X232441D01*
Y259201D01*
X231441Y260201D01*
X232441Y261201D01*
Y262201D01*
X231441D01*
X230441Y261201D01*
X229441Y262201D01*
X228441D01*
Y261201D01*
X229441Y260201D01*
X228441Y259201D01*
Y258201D01*
X149701D02*
X150701D01*
X151701Y259201D01*
X152701Y258201D01*
X153701D01*
Y259201D01*
X152701Y260201D01*
X153701Y261201D01*
Y262201D01*
X152701D01*
X151701Y261201D01*
X150701Y262201D01*
X149701D01*
Y261201D01*
X150701Y260201D01*
X149701Y259201D01*
Y258201D01*
X164500Y114500D02*
X162500Y118500D01*
X166500D01*
X164500Y114500D01*
Y115300D02*
X163300Y117700D01*
X165700D01*
X164500Y115300D01*
X169500Y105000D02*
X167500Y109000D01*
X171500D01*
X169500Y105000D01*
Y105800D02*
X168300Y108200D01*
X170700D01*
X169500Y105800D01*
X196500Y103500D02*
X194500Y107500D01*
X198500D01*
X196500Y103500D01*
Y104300D02*
X195300Y106700D01*
X197700D01*
X196500Y104300D01*
X191000Y103500D02*
X189000Y107500D01*
X193000D01*
X191000Y103500D01*
Y104300D02*
X189800Y106700D01*
X192200D01*
X191000Y104300D01*
X186500Y103500D02*
X184500Y107500D01*
X188500D01*
X186500Y103500D01*
Y104300D02*
X185300Y106700D01*
X187700D01*
X186500Y104300D01*
X181500Y99500D02*
X179500Y103500D01*
X183500D01*
X181500Y99500D01*
Y100300D02*
X180300Y102700D01*
X182700D01*
X181500Y100300D01*
Y103500D02*
X179500Y107500D01*
X183500D01*
X181500Y103500D01*
Y104300D02*
X180300Y106700D01*
X182700D01*
X181500Y104300D01*
X174500Y99500D02*
X172500Y103500D01*
X176500D01*
X174500Y99500D01*
Y100300D02*
X173300Y102700D01*
X175700D01*
X174500Y100300D01*
Y103000D02*
X172500Y107000D01*
X176500D01*
X174500Y103000D01*
Y103800D02*
X173300Y106200D01*
X175700D01*
X174500Y103800D01*
X76047Y74420D02*
X74047Y78420D01*
X78047D01*
X76047Y74420D01*
Y75220D02*
X74847Y77620D01*
X77247D01*
X76047Y75220D01*
X80444Y69560D02*
X78444Y73560D01*
X82444D01*
X80444Y69560D01*
Y70360D02*
X79244Y72760D01*
X81644D01*
X80444Y70360D01*
X101996Y107759D02*
X99996Y111759D01*
X103996D01*
X101996Y107759D01*
Y108559D02*
X100796Y110959D01*
X103196D01*
X101996Y108559D01*
X96981Y125934D02*
X94981Y129934D01*
X98981D01*
X96981Y125934D01*
Y126734D02*
X95781Y129134D01*
X98181D01*
X96981Y126734D01*
X145917Y225904D02*
X143917Y229904D01*
X147917D01*
X145917Y225904D01*
Y226704D02*
X144717Y229104D01*
X147117D01*
X145917Y226704D01*
X154022Y222462D02*
X152022Y226462D01*
X156022D01*
X154022Y222462D01*
Y223261D02*
X152822Y225661D01*
X155222D01*
X154022Y223261D01*
X153997Y231646D02*
X151997Y235646D01*
X155997D01*
X153997Y231646D01*
Y232446D02*
X152797Y234846D01*
X155197D01*
X153997Y232446D01*
X145904Y231570D02*
X143904Y235570D01*
X147904D01*
X145904Y231570D01*
Y232370D02*
X144704Y234770D01*
X147104D01*
X145904Y232370D01*
X172662Y237583D02*
X170662Y241583D01*
X174662D01*
X172662Y237583D01*
Y238383D02*
X171462Y240783D01*
X173862D01*
X172662Y238383D01*
X175554Y246590D02*
X173554Y250590D01*
X177554D01*
X175554Y246590D01*
Y247390D02*
X174354Y249790D01*
X176754D01*
X175554Y247390D01*
X182308Y247095D02*
X180308Y251095D01*
X184308D01*
X182308Y247095D01*
Y247895D02*
X181108Y250295D01*
X183508D01*
X182308Y247895D01*
X160081Y259962D02*
X158081Y263962D01*
X162081D01*
X160081Y259962D01*
Y260762D02*
X158881Y263162D01*
X161281D01*
X160081Y260762D01*
X157325Y264009D02*
X155325Y268009D01*
X159325D01*
X157325Y264009D01*
Y264809D02*
X156125Y267209D01*
X158525D01*
X157325Y264809D01*
X146347Y264440D02*
X144347Y268440D01*
X148347D01*
X146347Y264440D01*
Y265240D02*
X145147Y267640D01*
X147547D01*
X146347Y265240D01*
X136875Y257336D02*
X134875Y261336D01*
X138875D01*
X136875Y257336D01*
Y258136D02*
X135675Y260536D01*
X138075D01*
X136875Y258136D01*
X142472Y259532D02*
X140472Y263532D01*
X144472D01*
X142472Y259532D01*
Y260332D02*
X141272Y262732D01*
X143672D01*
X142472Y260332D01*
X173320Y273890D02*
X171320Y277890D01*
X175320D01*
X173320Y273890D01*
Y274690D02*
X172120Y277090D01*
X174520D01*
X173320Y274690D01*
X173131Y277446D02*
X171131Y281446D01*
X175131D01*
X173131Y277446D01*
Y278246D02*
X171931Y280646D01*
X174331D01*
X173131Y278246D01*
X168819Y277274D02*
X166819Y281274D01*
X170819D01*
X168819Y277274D01*
Y278074D02*
X167619Y280474D01*
X170019D01*
X168819Y278074D01*
X168699Y273787D02*
X166699Y277787D01*
X170699D01*
X168699Y273787D01*
Y274587D02*
X167499Y276987D01*
X169899D01*
X168699Y274587D01*
X163494Y277205D02*
X161494Y281205D01*
X165494D01*
X163494Y277205D01*
Y278005D02*
X162294Y280405D01*
X164694D01*
X163494Y278005D01*
X132037Y276843D02*
X130037Y280843D01*
X134037D01*
X132037Y276843D01*
Y277643D02*
X130837Y280043D01*
X133237D01*
X132037Y277643D01*
X133404Y270679D02*
X131404Y274679D01*
X135404D01*
X133404Y270679D01*
Y271479D02*
X132204Y273879D01*
X134604D01*
X133404Y271479D01*
X126840Y272362D02*
X124840Y276362D01*
X128840D01*
X126840Y272362D01*
Y273162D02*
X125640Y275562D01*
X128040D01*
X126840Y273162D01*
X129912Y271037D02*
X127912Y275037D01*
X131912D01*
X129912Y271037D01*
Y271836D02*
X128712Y274236D01*
X131112D01*
X129912Y271836D01*
X128944Y257286D02*
X126944Y261286D01*
X130944D01*
X128944Y257286D01*
Y258086D02*
X127744Y260486D01*
X130144D01*
X128944Y258086D01*
X129611Y260232D02*
X127611Y264232D01*
X131611D01*
X129611Y260232D01*
Y261032D02*
X128411Y263432D01*
X130811D01*
X129611Y261032D01*
X126862Y260310D02*
X124862Y264310D01*
X128862D01*
X126862Y260310D01*
Y261110D02*
X125662Y263510D01*
X128062D01*
X126862Y261110D01*
X153674Y285207D02*
X151674Y289207D01*
X155674D01*
X153674Y285207D01*
Y286006D02*
X152474Y288406D01*
X154874D01*
X153674Y286006D01*
X147565Y287431D02*
X145565Y291431D01*
X149565D01*
X147565Y287431D01*
Y288231D02*
X146365Y290631D01*
X148765D01*
X147565Y288231D01*
X142233Y285454D02*
X140233Y289454D01*
X144233D01*
X142233Y285454D01*
Y286254D02*
X141033Y288654D01*
X143433D01*
X142233Y286254D01*
X139031Y270179D02*
X137031Y274179D01*
X141031D01*
X139031Y270179D01*
Y270979D02*
X137831Y273379D01*
X140231D01*
X139031Y270979D01*
X138850Y267524D02*
X136850Y271524D01*
X140850D01*
X138850Y267524D01*
Y268324D02*
X137650Y270724D01*
X140050D01*
X138850Y268324D01*
X136931Y271656D02*
X134931Y275656D01*
X138931D01*
X136931Y271656D01*
Y272456D02*
X135731Y274856D01*
X138131D01*
X136931Y272456D01*
X136602Y268564D02*
X134602Y272564D01*
X138602D01*
X136602Y268564D01*
Y269364D02*
X135402Y271764D01*
X137802D01*
X136602Y269364D01*
X138893Y273131D02*
X136893Y277131D01*
X140893D01*
X138893Y273131D01*
Y273931D02*
X137693Y276331D01*
X140093D01*
X138893Y273931D01*
X161254Y273401D02*
X159254Y277401D01*
X163254D01*
X161254Y273401D01*
Y274201D02*
X160054Y276601D01*
X162454D01*
X161254Y274201D01*
X161116Y270992D02*
X159116Y274992D01*
X163116D01*
X161116Y270992D01*
Y271792D02*
X159916Y274192D01*
X162316D01*
X161116Y271792D01*
X161047Y268009D02*
X159047Y272009D01*
X163047D01*
X161047Y268009D01*
Y268810D02*
X159847Y271210D01*
X162247D01*
X161047Y268810D01*
X158271Y269661D02*
X156271Y273661D01*
X160271D01*
X158271Y269661D01*
Y270461D02*
X157071Y272861D01*
X159471D01*
X158271Y270461D01*
X158340Y272896D02*
X156340Y276896D01*
X160340D01*
X158340Y272896D01*
Y273696D02*
X157140Y276096D01*
X159540D01*
X158340Y273696D01*
X77945Y150160D02*
X75945Y154160D01*
X79945D01*
X77945Y150160D01*
Y150960D02*
X76745Y153360D01*
X79145D01*
X77945Y150960D01*
X88189Y187412D02*
X86189Y191412D01*
X90189D01*
X88189Y187412D01*
Y188212D02*
X86989Y190612D01*
X89389D01*
X88189Y188212D01*
X115042Y170266D02*
X113042Y174266D01*
X117042D01*
X115042Y170266D01*
Y171066D02*
X113842Y173466D01*
X116242D01*
X115042Y171066D01*
X134642Y151283D02*
X132642Y155283D01*
X136642D01*
X134642Y151283D01*
Y152083D02*
X133442Y154483D01*
X135842D01*
X134642Y152083D01*
X116070Y141680D02*
X114070Y145680D01*
X118070D01*
X116070Y141680D01*
Y142480D02*
X114870Y144880D01*
X117270D01*
X116070Y142480D01*
X119901Y135476D02*
X117901Y139476D01*
X121901D01*
X119901Y135476D01*
Y136276D02*
X118701Y138676D01*
X121101D01*
X119901Y136276D01*
X109500Y133500D02*
X107500Y137500D01*
X111500D01*
X109500Y133500D01*
Y134300D02*
X108300Y136700D01*
X110700D01*
X109500Y134300D01*
X100500Y135000D02*
X98500Y139000D01*
X102500D01*
X100500Y135000D01*
Y135800D02*
X99300Y138200D01*
X101700D01*
X100500Y135800D01*
X99000Y143000D02*
X97000Y147000D01*
X101000D01*
X99000Y143000D01*
Y143800D02*
X97800Y146200D01*
X100200D01*
X99000Y143800D01*
X95500Y143000D02*
X93500Y147000D01*
X97500D01*
X95500Y143000D01*
Y143800D02*
X94300Y146200D01*
X96700D01*
X95500Y143800D01*
X80617Y36155D02*
X78617Y40155D01*
X82617D01*
X80617Y36155D01*
Y36955D02*
X79417Y39355D01*
X81817D01*
X80617Y36955D01*
X74500Y40500D02*
X72500Y44500D01*
X76500D01*
X74500Y40500D01*
Y41300D02*
X73300Y43700D01*
X75700D01*
X74500Y41300D01*
X80500Y40500D02*
X78500Y44500D01*
X82500D01*
X80500Y40500D01*
Y41300D02*
X79300Y43700D01*
X81700D01*
X80500Y41300D01*
X255000Y239000D02*
X253000Y243000D01*
X257000D01*
X255000Y239000D01*
Y239800D02*
X253800Y242200D01*
X256200D01*
X255000Y239800D01*
Y247000D02*
X253000Y251000D01*
X257000D01*
X255000Y247000D01*
Y247800D02*
X253800Y250200D01*
X256200D01*
X255000Y247800D01*
Y255000D02*
X253000Y259000D01*
X257000D01*
X255000Y255000D01*
Y255800D02*
X253800Y258200D01*
X256200D01*
X255000Y255800D01*
Y263000D02*
X253000Y267000D01*
X257000D01*
X255000Y263000D01*
Y263800D02*
X253800Y266200D01*
X256200D01*
X255000Y263800D01*
X242500Y193500D02*
X240500Y197500D01*
X244500D01*
X242500Y193500D01*
Y194300D02*
X241300Y196700D01*
X243700D01*
X242500Y194300D01*
Y187500D02*
X240500Y191500D01*
X244500D01*
X242500Y187500D01*
Y188300D02*
X241300Y190700D01*
X243700D01*
X242500Y188300D01*
Y181500D02*
X240500Y185500D01*
X244500D01*
X242500Y181500D01*
Y182300D02*
X241300Y184700D01*
X243700D01*
X242500Y182300D01*
X248500Y193500D02*
X246500Y197500D01*
X250500D01*
X248500Y193500D01*
Y194300D02*
X247300Y196700D01*
X249700D01*
X248500Y194300D01*
Y187500D02*
X246500Y191500D01*
X250500D01*
X248500Y187500D01*
Y188300D02*
X247300Y190700D01*
X249700D01*
X248500Y188300D01*
Y181500D02*
X246500Y185500D01*
X250500D01*
X248500Y181500D01*
Y182300D02*
X247300Y184700D01*
X249700D01*
X248500Y182300D01*
X171500Y194000D02*
X169500Y198000D01*
X173500D01*
X171500Y194000D01*
Y194800D02*
X170300Y197200D01*
X172700D01*
X171500Y194800D01*
X182000Y193000D02*
X180000Y197000D01*
X184000D01*
X182000Y193000D01*
Y193800D02*
X180800Y196200D01*
X183200D01*
X182000Y193800D01*
Y197000D02*
X180000Y201000D01*
X184000D01*
X182000Y197000D01*
Y197800D02*
X180800Y200200D01*
X183200D01*
X182000Y197800D01*
X146000Y139500D02*
X144000Y143500D01*
X148000D01*
X146000Y139500D01*
Y140300D02*
X144800Y142700D01*
X147200D01*
X146000Y140300D01*
Y145500D02*
X144000Y149500D01*
X148000D01*
X146000Y145500D01*
Y146300D02*
X144800Y148700D01*
X147200D01*
X146000Y146300D01*
Y151500D02*
X144000Y155500D01*
X148000D01*
X146000Y151500D01*
Y152300D02*
X144800Y154700D01*
X147200D01*
X146000Y152300D01*
Y157500D02*
X144000Y161500D01*
X148000D01*
X146000Y157500D01*
Y158300D02*
X144800Y160700D01*
X147200D01*
X146000Y158300D01*
Y163500D02*
X144000Y167500D01*
X148000D01*
X146000Y163500D01*
Y164300D02*
X144800Y166700D01*
X147200D01*
X146000Y164300D01*
Y169500D02*
X144000Y173500D01*
X148000D01*
X146000Y169500D01*
Y170300D02*
X144800Y172700D01*
X147200D01*
X146000Y170300D01*
Y175500D02*
X144000Y179500D01*
X148000D01*
X146000Y175500D01*
Y176300D02*
X144800Y178700D01*
X147200D01*
X146000Y176300D01*
X136333Y156359D02*
X134333Y160359D01*
X138333D01*
X136333Y156359D01*
Y157159D02*
X135133Y159559D01*
X137533D01*
X136333Y157159D01*
X136550Y175687D02*
X134550Y179686D01*
X138550D01*
X136550Y175687D01*
Y176487D02*
X135350Y178886D01*
X137750D01*
X136550Y176487D01*
Y181686D02*
X134550Y185687D01*
X138550D01*
X136550Y181686D01*
Y182486D02*
X135350Y184887D01*
X137750D01*
X136550Y182486D01*
X136333Y162359D02*
X134333Y166359D01*
X138333D01*
X136333Y162359D01*
Y163159D02*
X135133Y165559D01*
X137533D01*
X136333Y163159D01*
X158964Y81123D02*
X156964Y85123D01*
X160963D01*
X158964Y81123D01*
Y81923D02*
X157764Y84323D01*
X160163D01*
X158964Y81923D01*
X152963Y81123D02*
X150963Y85123D01*
X154964D01*
X152963Y81123D01*
Y81923D02*
X151763Y84323D01*
X154164D01*
X152963Y81923D01*
X146964Y81123D02*
X144964Y85123D01*
X148963D01*
X146964Y81123D01*
Y81923D02*
X145764Y84323D01*
X148163D01*
X146964Y81923D01*
X140963Y81123D02*
X138963Y85123D01*
X142964D01*
X140963Y81123D01*
Y81923D02*
X139763Y84323D01*
X142164D01*
X140963Y81923D01*
X158964Y87123D02*
X156964Y91123D01*
X160963D01*
X158964Y87123D01*
Y87923D02*
X157764Y90323D01*
X160163D01*
X158964Y87923D01*
X152963Y87123D02*
X150963Y91123D01*
X154964D01*
X152963Y87123D01*
Y87923D02*
X151763Y90323D01*
X154164D01*
X152963Y87923D01*
X146964Y87123D02*
X144964Y91123D01*
X148963D01*
X146964Y87123D01*
Y87923D02*
X145764Y90323D01*
X148163D01*
X146964Y87923D01*
X140963Y87123D02*
X138963Y91123D01*
X142964D01*
X140963Y87123D01*
Y87923D02*
X139763Y90323D01*
X142164D01*
X140963Y87923D01*
X134964Y87123D02*
X132964Y91123D01*
X136963D01*
X134964Y87123D01*
Y87923D02*
X133764Y90323D01*
X136163D01*
X134964Y87923D01*
Y93123D02*
X132964Y97123D01*
X136963D01*
X134964Y93123D01*
Y93923D02*
X133764Y96323D01*
X136163D01*
X134964Y93923D01*
Y99123D02*
X132964Y103123D01*
X136963D01*
X134964Y99123D01*
Y99923D02*
X133764Y102323D01*
X136163D01*
X134964Y99923D01*
Y105123D02*
X132964Y109123D01*
X136963D01*
X134964Y105123D01*
Y105923D02*
X133764Y108323D01*
X136163D01*
X134964Y105923D01*
X135000Y111000D02*
X133000Y115000D01*
X137000D01*
X135000Y111000D01*
Y111800D02*
X133800Y114200D01*
X136200D01*
X135000Y111800D01*
X212776Y207446D02*
Y211446D01*
X216776D01*
Y207446D01*
X212776D01*
X213576Y208246D02*
Y210646D01*
X215976D01*
Y208246D01*
X213576D01*
X210000Y207500D02*
Y211500D01*
X214000D01*
Y207500D01*
X210000D01*
X210800Y208300D02*
Y210700D01*
X213200D01*
Y208300D01*
X210800D01*
X194264Y192180D02*
Y196180D01*
X198264D01*
Y192180D01*
X194264D01*
X195064Y192980D02*
Y195380D01*
X197464D01*
Y192980D01*
X195064D01*
X196432Y192180D02*
Y196180D01*
X200432D01*
Y192180D01*
X196432D01*
X197232Y192980D02*
Y195380D01*
X199632D01*
Y192980D01*
X197232D01*
X198600Y192180D02*
Y196180D01*
X202600D01*
Y192180D01*
X198600D01*
X199399Y192980D02*
Y195380D01*
X201800D01*
Y192980D01*
X199399D01*
X194264Y194348D02*
Y198347D01*
X198264D01*
Y194348D01*
X194264D01*
X195064Y195148D02*
Y197547D01*
X197464D01*
Y195148D01*
X195064D01*
X196432Y194348D02*
Y198347D01*
X200432D01*
Y194348D01*
X196432D01*
X197232Y195148D02*
Y197547D01*
X199632D01*
Y195148D01*
X197232D01*
X198600Y194348D02*
Y198347D01*
X202600D01*
Y194348D01*
X198600D01*
X199399Y195148D02*
Y197547D01*
X201800D01*
Y195148D01*
X199399D01*
X194264Y196515D02*
Y200515D01*
X198264D01*
Y196515D01*
X194264D01*
X195064Y197315D02*
Y199715D01*
X197464D01*
Y197315D01*
X195064D01*
X196432Y196515D02*
Y200515D01*
X200432D01*
Y196515D01*
X196432D01*
X197232Y197315D02*
Y199715D01*
X199632D01*
Y197315D01*
X197232D01*
X198600Y196515D02*
Y200515D01*
X202600D01*
Y196515D01*
X198600D01*
X199399Y197315D02*
Y199715D01*
X201800D01*
Y197315D01*
X199399D01*
X198600Y198683D02*
Y202683D01*
X202600D01*
Y198683D01*
X198600D01*
X199399Y199483D02*
Y201883D01*
X201800D01*
Y199483D01*
X199399D01*
X196432Y198683D02*
Y202683D01*
X200432D01*
Y198683D01*
X196432D01*
X197232Y199483D02*
Y201883D01*
X199632D01*
Y199483D01*
X197232D01*
X194264Y198683D02*
Y202683D01*
X198264D01*
Y198683D01*
X194264D01*
X195064Y199483D02*
Y201883D01*
X197464D01*
Y199483D01*
X195064D01*
X198600Y200850D02*
Y204850D01*
X202600D01*
Y200850D01*
X198600D01*
X199399Y201650D02*
Y204050D01*
X201800D01*
Y201650D01*
X199399D01*
X196432Y200850D02*
Y204850D01*
X200432D01*
Y200850D01*
X196432D01*
X197232Y201650D02*
Y204050D01*
X199632D01*
Y201650D01*
X197232D01*
X194264Y200850D02*
Y204850D01*
X198264D01*
Y200850D01*
X194264D01*
X195064Y201650D02*
Y204050D01*
X197464D01*
Y201650D01*
X195064D01*
X92751Y72621D02*
Y76621D01*
X96751D01*
Y72621D01*
X92751D01*
X93551Y73421D02*
Y75821D01*
X95951D01*
Y73421D01*
X93551D01*
X92797Y74941D02*
Y78941D01*
X96797D01*
Y74941D01*
X92797D01*
X93597Y75741D02*
Y78141D01*
X95997D01*
Y75741D01*
X93597D01*
X88500Y80500D02*
Y84500D01*
X92500D01*
Y80500D01*
X88500D01*
X89300Y81300D02*
Y83700D01*
X91700D01*
Y81300D01*
X89300D01*
X88500Y71500D02*
Y75500D01*
X92500D01*
Y71500D01*
X88500D01*
X89300Y72300D02*
Y74700D01*
X91700D01*
Y72300D01*
X89300D01*
X88500Y74500D02*
Y78500D01*
X92500D01*
Y74500D01*
X88500D01*
X89300Y75300D02*
Y77700D01*
X91700D01*
Y75300D01*
X89300D01*
X88500Y77500D02*
Y81500D01*
X92500D01*
Y77500D01*
X88500D01*
X89300Y78300D02*
Y80700D01*
X91700D01*
Y78300D01*
X89300D01*
X91500Y77500D02*
Y81500D01*
X95500D01*
Y77500D01*
X91500D01*
X92300Y78300D02*
Y80700D01*
X94700D01*
Y78300D01*
X92300D01*
X91500Y80500D02*
Y84500D01*
X95500D01*
Y80500D01*
X91500D01*
X92300Y81300D02*
Y83700D01*
X94700D01*
Y81300D01*
X92300D01*
X94500Y80500D02*
Y84500D01*
X98500D01*
Y80500D01*
X94500D01*
X95300Y81300D02*
Y83700D01*
X97700D01*
Y81300D01*
X95300D01*
X97500Y80500D02*
Y84500D01*
X101500D01*
Y80500D01*
X97500D01*
X98300Y81300D02*
Y83700D01*
X100700D01*
Y81300D01*
X98300D01*
X94500Y77500D02*
Y81500D01*
X98500D01*
Y77500D01*
X94500D01*
X95300Y78300D02*
Y80700D01*
X97700D01*
Y78300D01*
X95300D01*
X97500Y77500D02*
Y81500D01*
X101500D01*
Y77500D01*
X97500D01*
X98300Y78300D02*
Y80700D01*
X100700D01*
Y78300D01*
X98300D01*
X100500Y80500D02*
Y84500D01*
X104500D01*
Y80500D01*
X100500D01*
X101300Y81300D02*
Y83700D01*
X103700D01*
Y81300D01*
X101300D01*
X100500Y77500D02*
Y81500D01*
X104500D01*
Y77500D01*
X100500D01*
X101300Y78300D02*
Y80700D01*
X103700D01*
Y78300D01*
X101300D01*
X121968Y157794D02*
Y161794D01*
X125968D01*
Y157794D01*
X121968D01*
X122768Y158594D02*
Y160994D01*
X125168D01*
Y158594D01*
X122768D01*
X121783Y140615D02*
Y144615D01*
X125783D01*
Y140615D01*
X121783D01*
X122583Y141415D02*
Y143815D01*
X124983D01*
Y141415D01*
X122583D01*
X123000Y93500D02*
X121000Y97500D01*
X125000D01*
X123000Y93500D01*
Y94300D02*
X121800Y96700D01*
X124200D01*
X123000Y94300D01*
Y100500D02*
X121000Y104500D01*
X125000D01*
X123000Y100500D01*
Y101300D02*
X121800Y103700D01*
X124200D01*
X123000Y101300D01*
X123226Y111290D02*
X121226Y115290D01*
X125226D01*
X123226Y111290D01*
Y112090D02*
X122026Y114490D01*
X124426D01*
X123226Y112090D01*
X123448Y116852D02*
X121448Y120852D01*
X125448D01*
X123448Y116852D01*
Y117652D02*
X122248Y120052D01*
X124648D01*
X123448Y117652D01*
X253000Y136000D02*
X251000Y140000D01*
X255000D01*
X253000Y136000D01*
Y136800D02*
X251800Y139200D01*
X254200D01*
X253000Y136800D01*
Y68500D02*
X251000Y72500D01*
X255000D01*
X253000Y68500D01*
Y69300D02*
X251800Y71700D01*
X254200D01*
X253000Y69300D01*
Y80500D02*
X251000Y84500D01*
X255000D01*
X253000Y80500D01*
Y81300D02*
X251800Y83700D01*
X254200D01*
X253000Y81300D01*
Y92500D02*
X251000Y96500D01*
X255000D01*
X253000Y92500D01*
Y93300D02*
X251800Y95700D01*
X254200D01*
X253000Y93300D01*
Y104500D02*
X251000Y108500D01*
X255000D01*
X253000Y104500D01*
Y105300D02*
X251800Y107700D01*
X254200D01*
X253000Y105300D01*
Y116500D02*
X251000Y120500D01*
X255000D01*
X253000Y116500D01*
Y117300D02*
X251800Y119700D01*
X254200D01*
X253000Y117300D01*
X223000Y39500D02*
X221000Y43500D01*
X225000D01*
X223000Y39500D01*
Y40300D02*
X221800Y42700D01*
X224200D01*
X223000Y40300D01*
X215000Y39500D02*
X213000Y43500D01*
X217000D01*
X215000Y39500D01*
Y40300D02*
X213800Y42700D01*
X216200D01*
X215000Y40300D01*
X207000Y39500D02*
X205000Y43500D01*
X209000D01*
X207000Y39500D01*
Y40300D02*
X205800Y42700D01*
X208200D01*
X207000Y40300D01*
X199000Y39500D02*
X197000Y43500D01*
X201000D01*
X199000Y39500D01*
Y40300D02*
X197800Y42700D01*
X200200D01*
X199000Y40300D01*
X191000Y39500D02*
X189000Y43500D01*
X193000D01*
X191000Y39500D01*
Y40300D02*
X189800Y42700D01*
X192200D01*
X191000Y40300D01*
X183000Y39500D02*
X181000Y43500D01*
X185000D01*
X183000Y39500D01*
Y40300D02*
X181800Y42700D01*
X184200D01*
X183000Y40300D01*
X175000Y39500D02*
X173000Y43500D01*
X177000D01*
X175000Y39500D01*
Y40300D02*
X173800Y42700D01*
X176200D01*
X175000Y40300D01*
X167000Y39500D02*
X165000Y43500D01*
X169000D01*
X167000Y39500D01*
Y40300D02*
X165800Y42700D01*
X168200D01*
X167000Y40300D01*
X159000Y39500D02*
X157000Y43500D01*
X161000D01*
X159000Y39500D01*
Y40300D02*
X157800Y42700D01*
X160200D01*
X159000Y40300D01*
X151000Y39500D02*
X149000Y43500D01*
X153000D01*
X151000Y39500D01*
Y40300D02*
X149800Y42700D01*
X152200D01*
X151000Y40300D01*
X143439Y39648D02*
X141439Y43648D01*
X145439D01*
X143439Y39648D01*
Y40448D02*
X142239Y42848D01*
X144639D01*
X143439Y40448D01*
X109729Y212114D02*
X107729Y216114D01*
X111729D01*
X109729Y212114D01*
Y212914D02*
X108529Y215314D01*
X110929D01*
X109729Y212914D01*
X110647Y198718D02*
X108647Y202718D01*
X112647D01*
X110647Y198718D01*
Y199518D02*
X109447Y201918D01*
X111847D01*
X110647Y199518D01*
X114745Y187157D02*
X112745Y191157D01*
X116745D01*
X114745Y187157D01*
Y187957D02*
X113545Y190357D01*
X115945D01*
X114745Y187957D01*
X122391Y196516D02*
X120391Y200516D01*
X124391D01*
X122391Y196516D01*
Y197316D02*
X121191Y199716D01*
X123591D01*
X122391Y197316D01*
X122413Y186061D02*
X120413Y190061D01*
X124413D01*
X122413Y186061D01*
Y186861D02*
X121213Y189261D01*
X123613D01*
X122413Y186861D01*
X125866Y187097D02*
X123866Y191097D01*
X127866D01*
X125866Y187097D01*
Y187897D02*
X124666Y190297D01*
X127066D01*
X125866Y187897D01*
X125417Y183886D02*
X123417Y187886D01*
X127417D01*
X125417Y183886D01*
Y184686D02*
X124217Y187086D01*
X126617D01*
X125417Y184686D01*
X127500Y158500D02*
X125500Y162500D01*
X129500D01*
X127500Y158500D01*
Y159300D02*
X126300Y161700D01*
X128700D01*
X127500Y159300D01*
Y131000D02*
X125500Y135000D01*
X129500D01*
X127500Y131000D01*
Y131800D02*
X126300Y134200D01*
X128700D01*
X127500Y131800D01*
Y126000D02*
X125500Y130000D01*
X129500D01*
X127500Y126000D01*
Y126800D02*
X126300Y129200D01*
X128700D01*
X127500Y126800D01*
Y118500D02*
X125500Y122500D01*
X129500D01*
X127500Y118500D01*
Y119300D02*
X126300Y121700D01*
X128700D01*
X127500Y119300D01*
Y113500D02*
X125500Y117500D01*
X129500D01*
X127500Y113500D01*
Y114300D02*
X126300Y116700D01*
X128700D01*
X127500Y114300D01*
Y106000D02*
X125500Y110000D01*
X129500D01*
X127500Y106000D01*
Y106800D02*
X126300Y109200D01*
X128700D01*
X127500Y106800D01*
Y98500D02*
X125500Y102500D01*
X129500D01*
X127500Y98500D01*
Y99300D02*
X126300Y101700D01*
X128700D01*
X127500Y99300D01*
X127529Y90341D02*
X125529Y94341D01*
X129529D01*
X127529Y90341D01*
Y91141D02*
X126329Y93541D01*
X128729D01*
X127529Y91141D01*
X133500Y72500D02*
X131500Y76500D01*
X135500D01*
X133500Y72500D01*
Y73300D02*
X132300Y75700D01*
X134700D01*
X133500Y73300D01*
X139500Y67500D02*
X137500Y71500D01*
X141500D01*
X139500Y67500D01*
Y68300D02*
X138300Y70700D01*
X140700D01*
X139500Y68300D01*
X144000Y62000D02*
X142000Y66000D01*
X146000D01*
X144000Y62000D01*
Y62800D02*
X142800Y65200D01*
X145200D01*
X144000Y62800D01*
X150000Y58000D02*
X148000Y62000D01*
X152000D01*
X150000Y58000D01*
Y58800D02*
X148800Y61200D01*
X151200D01*
X150000Y58800D01*
X159000Y57500D02*
X157000Y61500D01*
X161000D01*
X159000Y57500D01*
Y58300D02*
X157800Y60700D01*
X160200D01*
X159000Y58300D01*
X170000Y57500D02*
X168000Y61500D01*
X172000D01*
X170000Y57500D01*
Y58300D02*
X168800Y60700D01*
X171200D01*
X170000Y58300D01*
X181000Y57500D02*
X179000Y61500D01*
X183000D01*
X181000Y57500D01*
Y58300D02*
X179800Y60700D01*
X182200D01*
X181000Y58300D01*
X191500Y57500D02*
X189500Y61500D01*
X193500D01*
X191500Y57500D01*
Y58300D02*
X190300Y60700D01*
X192700D01*
X191500Y58300D01*
X202000Y57500D02*
X200000Y61500D01*
X204000D01*
X202000Y57500D01*
Y58300D02*
X200800Y60700D01*
X203200D01*
X202000Y58300D01*
X213500Y57500D02*
X211500Y61500D01*
X215500D01*
X213500Y57500D01*
Y58300D02*
X212300Y60700D01*
X214700D01*
X213500Y58300D01*
X210000Y48000D02*
X208000Y52000D01*
X212000D01*
X210000Y48000D01*
Y48800D02*
X208800Y51200D01*
X211200D01*
X210000Y48800D01*
X195000Y48000D02*
X193000Y52000D01*
X197000D01*
X195000Y48000D01*
Y48800D02*
X193800Y51200D01*
X196200D01*
X195000Y48800D01*
X177500Y47500D02*
X175500Y51500D01*
X179500D01*
X177500Y47500D01*
Y48300D02*
X176300Y50700D01*
X178700D01*
X177500Y48300D01*
X164500Y48500D02*
X162500Y52500D01*
X166500D01*
X164500Y48500D01*
Y49300D02*
X163300Y51700D01*
X165700D01*
X164500Y49300D01*
X151000Y48000D02*
X149000Y52000D01*
X153000D01*
X151000Y48000D01*
Y48800D02*
X149800Y51200D01*
X152200D01*
X151000Y48800D01*
X140000Y50000D02*
X138000Y54000D01*
X142000D01*
X140000Y50000D01*
Y50800D02*
X138800Y53200D01*
X141200D01*
X140000Y50800D01*
X134500Y56000D02*
X132500Y60000D01*
X136500D01*
X134500Y56000D01*
Y56800D02*
X133300Y59200D01*
X135700D01*
X134500Y56800D01*
X130000Y61000D02*
X128000Y65000D01*
X132000D01*
X130000Y61000D01*
Y61800D02*
X128800Y64200D01*
X131200D01*
X130000Y61800D01*
X116500Y157000D02*
X114500Y161000D01*
X118500D01*
X116500Y157000D01*
Y157800D02*
X115300Y160200D01*
X117700D01*
X116500Y157800D01*
Y153000D02*
X114500Y157000D01*
X118500D01*
X116500Y153000D01*
Y153800D02*
X115300Y156200D01*
X117700D01*
X116500Y153800D01*
X115500Y148000D02*
X113500Y152000D01*
X117500D01*
X115500Y148000D01*
Y148800D02*
X114300Y151200D01*
X116700D01*
X115500Y148800D01*
X114500Y145500D02*
X112500Y149500D01*
X116500D01*
X114500Y145500D01*
Y146300D02*
X113300Y148700D01*
X115700D01*
X114500Y146300D01*
X108360Y142530D02*
X106360Y146530D01*
X110360D01*
X108360Y142530D01*
Y143330D02*
X107160Y145730D01*
X109560D01*
X108360Y143330D01*
X83843Y144315D02*
X81843Y148314D01*
X85843D01*
X83843Y144315D01*
Y145115D02*
X82643Y147514D01*
X85043D01*
X83843Y145115D01*
X81253Y147192D02*
X79254Y151192D01*
X83254D01*
X81253Y147192D01*
Y147992D02*
X80054Y150392D01*
X82454D01*
X81253Y147992D01*
X79000Y156000D02*
X77000Y160000D01*
X81000D01*
X79000Y156000D01*
Y156800D02*
X77800Y159200D01*
X80200D01*
X79000Y156800D01*
X95434Y208222D02*
X93434Y212222D01*
X97434D01*
X95434Y208222D01*
Y209022D02*
X94234Y211422D01*
X96634D01*
X95434Y209022D01*
X83500Y197000D02*
X81500Y201000D01*
X85500D01*
X83500Y197000D01*
Y197800D02*
X82300Y200200D01*
X84700D01*
X83500Y197800D01*
X75000Y198500D02*
X73000Y202500D01*
X77000D01*
X75000Y198500D01*
Y199300D02*
X73800Y201700D01*
X76200D01*
X75000Y199300D01*
X68500Y198500D02*
X66500Y202500D01*
X70500D01*
X68500Y198500D01*
Y199300D02*
X67300Y201700D01*
X69700D01*
X68500Y199300D01*
X58000Y225000D02*
X56000Y229000D01*
X60000D01*
X58000Y225000D01*
Y225800D02*
X56800Y228200D01*
X59200D01*
X58000Y225800D01*
X49000Y211500D02*
X47000Y215500D01*
X51000D01*
X49000Y211500D01*
Y212300D02*
X47800Y214700D01*
X50200D01*
X49000Y212300D01*
X60000Y212500D02*
X58000Y216500D01*
X62000D01*
X60000Y212500D01*
Y213300D02*
X58800Y215700D01*
X61200D01*
X60000Y213300D01*
X70000Y213000D02*
X68000Y217000D01*
X72000D01*
X70000Y213000D01*
Y213800D02*
X68800Y216200D01*
X71200D01*
X70000Y213800D01*
X77000Y212500D02*
X75000Y216500D01*
X79000D01*
X77000Y212500D01*
Y213300D02*
X75800Y215700D01*
X78200D01*
X77000Y213300D01*
X113000Y240500D02*
X111000Y244500D01*
X115000D01*
X113000Y240500D01*
Y241300D02*
X111800Y243700D01*
X114200D01*
X113000Y241300D01*
X108000Y240500D02*
X106000Y244500D01*
X110000D01*
X108000Y240500D01*
Y241300D02*
X106800Y243700D01*
X109200D01*
X108000Y241300D01*
X103000Y240500D02*
X101000Y244500D01*
X105000D01*
X103000Y240500D01*
Y241300D02*
X101800Y243700D01*
X104200D01*
X103000Y241300D01*
X98000Y240500D02*
X96000Y244500D01*
X100000D01*
X98000Y240500D01*
Y241300D02*
X96800Y243700D01*
X99200D01*
X98000Y241300D01*
X93000Y240500D02*
X91000Y244500D01*
X95000D01*
X93000Y240500D01*
Y241300D02*
X91800Y243700D01*
X94200D01*
X93000Y241300D01*
X207500Y233500D02*
X205500Y237500D01*
X209500D01*
X207500Y233500D01*
Y234300D02*
X206300Y236700D01*
X208700D01*
X207500Y234300D01*
X211000Y231000D02*
X209000Y235000D01*
X213000D01*
X211000Y231000D01*
Y231800D02*
X209800Y234200D01*
X212200D01*
X211000Y231800D01*
X194500Y220000D02*
X192500Y224000D01*
X196500D01*
X194500Y220000D01*
Y220800D02*
X193300Y223200D01*
X195700D01*
X194500Y220800D01*
X202500Y220000D02*
X200500Y224000D01*
X204500D01*
X202500Y220000D01*
Y220800D02*
X201300Y223200D01*
X203700D01*
X202500Y220800D01*
X210500Y220000D02*
X208500Y224000D01*
X212500D01*
X210500Y220000D01*
Y220800D02*
X209300Y223200D01*
X211700D01*
X210500Y220800D01*
X239000Y214000D02*
X237000Y218000D01*
X241000D01*
X239000Y214000D01*
Y214800D02*
X237800Y217200D01*
X240200D01*
X239000Y214800D01*
X234000Y219500D02*
X232000Y223500D01*
X236000D01*
X234000Y219500D01*
Y220300D02*
X232800Y222700D01*
X235200D01*
X234000Y220300D01*
Y208500D02*
X232000Y212500D01*
X236000D01*
X234000Y208500D01*
Y209300D02*
X232800Y211700D01*
X235200D01*
X234000Y209300D01*
X218000Y172500D02*
X216000Y176500D01*
X220000D01*
X218000Y172500D01*
Y173300D02*
X216800Y175700D01*
X219200D01*
X218000Y173300D01*
X217500Y159500D02*
X215500Y163500D01*
X219500D01*
X217500Y159500D01*
Y160300D02*
X216300Y162700D01*
X218700D01*
X217500Y160300D01*
X211500Y166000D02*
X209500Y170000D01*
X213500D01*
X211500Y166000D01*
Y166800D02*
X210300Y169200D01*
X212700D01*
X211500Y166800D01*
X226000Y167000D02*
X224000Y171000D01*
X228000D01*
X226000Y167000D01*
Y167800D02*
X224800Y170200D01*
X227200D01*
X226000Y167800D01*
X205500Y155500D02*
X203500Y159500D01*
X207500D01*
X205500Y155500D01*
Y156300D02*
X204300Y158700D01*
X206700D01*
X205500Y156300D01*
Y143500D02*
X203500Y147500D01*
X207500D01*
X205500Y143500D01*
Y144300D02*
X204300Y146700D01*
X206700D01*
X205500Y144300D01*
X205000Y135500D02*
X203000Y139500D01*
X207000D01*
X205000Y135500D01*
Y136300D02*
X203800Y138700D01*
X206200D01*
X205000Y136300D01*
X249500Y135000D02*
X247500Y139000D01*
X251500D01*
X249500Y135000D01*
Y135800D02*
X248300Y138200D01*
X250700D01*
X249500Y135800D01*
X237000Y139500D02*
X235000Y143500D01*
X239000D01*
X237000Y139500D01*
Y140300D02*
X235800Y142700D01*
X238200D01*
X237000Y140300D01*
X232253Y134971D02*
X230253Y138971D01*
X234253D01*
X232253Y134971D01*
Y135771D02*
X231053Y138171D01*
X233453D01*
X232253Y135771D01*
X243500Y122000D02*
X241500Y126000D01*
X245500D01*
X243500Y122000D01*
Y122800D02*
X242300Y125200D01*
X244700D01*
X243500Y122800D01*
X236500Y122000D02*
X234500Y126000D01*
X238500D01*
X236500Y122000D01*
Y122800D02*
X235300Y125200D01*
X237700D01*
X236500Y122800D01*
X222500Y122500D02*
X220500Y126500D01*
X224500D01*
X222500Y122500D01*
Y123300D02*
X221300Y125700D01*
X223700D01*
X222500Y123300D01*
X213000Y122000D02*
X211000Y126000D01*
X215000D01*
X213000Y122000D01*
Y122800D02*
X211800Y125200D01*
X214200D01*
X213000Y122800D01*
X208000Y122000D02*
X206000Y126000D01*
X210000D01*
X208000Y122000D01*
Y122800D02*
X206800Y125200D01*
X209200D01*
X208000Y122800D01*
X203000Y122000D02*
X201000Y126000D01*
X205000D01*
X203000Y122000D01*
Y122800D02*
X201800Y125200D01*
X204200D01*
X203000Y122800D01*
X249500Y51000D02*
X247500Y55000D01*
X251500D01*
X249500Y51000D01*
Y51800D02*
X248300Y54200D01*
X250700D01*
X249500Y51800D01*
X250000Y69500D02*
X248000Y73500D01*
X252000D01*
X250000Y69500D01*
Y70300D02*
X248800Y72700D01*
X251200D01*
X250000Y70300D01*
X240500Y65000D02*
X238500Y69000D01*
X242500D01*
X240500Y65000D01*
Y65800D02*
X239300Y68200D01*
X241700D01*
X240500Y65800D01*
Y38500D02*
X238500Y42500D01*
X242500D01*
X240500Y38500D01*
Y39300D02*
X239300Y41700D01*
X241700D01*
X240500Y39300D01*
X226000Y48000D02*
X224000Y52000D01*
X228000D01*
X226000Y48000D01*
Y48800D02*
X224800Y51200D01*
X227200D01*
X226000Y48800D01*
X230000Y48000D02*
X228000Y52000D01*
X232000D01*
X230000Y48000D01*
Y48800D02*
X228800Y51200D01*
X231200D01*
X230000Y48800D01*
X226500Y58000D02*
X224500Y62000D01*
X228500D01*
X226500Y58000D01*
Y58800D02*
X225300Y61200D01*
X227700D01*
X226500Y58800D01*
X230974Y58117D02*
X228974Y62116D01*
X232974D01*
X230974Y58117D01*
Y58916D02*
X229774Y61317D01*
X232174D01*
X230974Y58916D01*
X145000Y111000D02*
X143000Y115000D01*
X147000D01*
X145000Y111000D01*
Y111800D02*
X143800Y114200D01*
X146200D01*
X145000Y111800D01*
X139000Y111000D02*
X137000Y115000D01*
X141000D01*
X139000Y111000D01*
Y111800D02*
X137800Y114200D01*
X140200D01*
X139000Y111800D01*
X135000Y117000D02*
X133000Y121000D01*
X137000D01*
X135000Y117000D01*
Y117800D02*
X133800Y120200D01*
X136200D01*
X135000Y117800D01*
X144500Y119000D02*
X142500Y123000D01*
X146500D01*
X144500Y119000D01*
Y119800D02*
X143300Y122200D01*
X145700D01*
X144500Y119800D01*
X135000Y123000D02*
X133000Y127000D01*
X137000D01*
X135000Y123000D01*
Y123800D02*
X133800Y126200D01*
X136200D01*
X135000Y123800D01*
X133500Y42500D02*
X131500Y46500D01*
X135500D01*
X133500Y42500D01*
Y43300D02*
X132300Y45700D01*
X134700D01*
X133500Y43300D01*
X127500Y42500D02*
X125500Y46500D01*
X129500D01*
X127500Y42500D01*
Y43300D02*
X126300Y45700D01*
X128700D01*
X127500Y43300D01*
X121500Y42500D02*
X119500Y46500D01*
X123500D01*
X121500Y42500D01*
Y43300D02*
X120300Y45700D01*
X122700D01*
X121500Y43300D01*
X127500Y48500D02*
X125500Y52500D01*
X129500D01*
X127500Y48500D01*
Y49300D02*
X126300Y51700D01*
X128700D01*
X127500Y49300D01*
X121500Y48500D02*
X119500Y52500D01*
X123500D01*
X121500Y48500D01*
Y49300D02*
X120300Y51700D01*
X122700D01*
X121500Y49300D01*
X81500Y94500D02*
X79500Y98500D01*
X83500D01*
X81500Y94500D01*
Y95300D02*
X80300Y97700D01*
X82700D01*
X81500Y95300D01*
X75500Y94500D02*
X73500Y98500D01*
X77500D01*
X75500Y94500D01*
Y95300D02*
X74300Y97700D01*
X76700D01*
X75500Y95300D01*
X69500Y94500D02*
X67500Y98500D01*
X71500D01*
X69500Y94500D01*
Y95300D02*
X68300Y97700D01*
X70700D01*
X69500Y95300D01*
X81500Y100500D02*
X79500Y104500D01*
X83500D01*
X81500Y100500D01*
Y101300D02*
X80300Y103700D01*
X82700D01*
X81500Y101300D01*
X75500Y100500D02*
X73500Y104500D01*
X77500D01*
X75500Y100500D01*
Y101300D02*
X74300Y103700D01*
X76700D01*
X75500Y101300D01*
X69500Y100500D02*
X67500Y104500D01*
X71500D01*
X69500Y100500D01*
Y101300D02*
X68300Y103700D01*
X70700D01*
X69500Y101300D01*
X113500Y123000D02*
X111500Y127000D01*
X115500D01*
X113500Y123000D01*
Y123800D02*
X112300Y126200D01*
X114700D01*
X113500Y123800D01*
X107000Y123000D02*
X105000Y127000D01*
X109000D01*
X107000Y123000D01*
Y123800D02*
X105800Y126200D01*
X108200D01*
X107000Y123800D01*
X81500Y112500D02*
X79500Y116500D01*
X83500D01*
X81500Y112500D01*
Y113300D02*
X80300Y115700D01*
X82700D01*
X81500Y113300D01*
X75500Y112500D02*
X73500Y116500D01*
X77500D01*
X75500Y112500D01*
Y113300D02*
X74300Y115700D01*
X76700D01*
X75500Y113300D01*
X69500Y112500D02*
X67500Y116500D01*
X71500D01*
X69500Y112500D01*
Y113300D02*
X68300Y115700D01*
X70700D01*
X69500Y113300D01*
X81500Y118500D02*
X79500Y122500D01*
X83500D01*
X81500Y118500D01*
Y119300D02*
X80300Y121700D01*
X82700D01*
X81500Y119300D01*
X75500Y118500D02*
X73500Y122500D01*
X77500D01*
X75500Y118500D01*
Y119300D02*
X74300Y121700D01*
X76700D01*
X75500Y119300D01*
X69500Y118500D02*
X67500Y122500D01*
X71500D01*
X69500Y118500D01*
Y119300D02*
X68300Y121700D01*
X70700D01*
X69500Y119300D01*
X81500Y124500D02*
X79500Y128500D01*
X83500D01*
X81500Y124500D01*
Y125300D02*
X80300Y127700D01*
X82700D01*
X81500Y125300D01*
X75500Y124500D02*
X73500Y128500D01*
X77500D01*
X75500Y124500D01*
Y125300D02*
X74300Y127700D01*
X76700D01*
X75500Y125300D01*
X69500Y124500D02*
X67500Y128500D01*
X71500D01*
X69500Y124500D01*
Y125300D02*
X68300Y127700D01*
X70700D01*
X69500Y125300D01*
X55796Y182885D02*
X53796Y186885D01*
X57796D01*
X55796Y182885D01*
Y183685D02*
X54596Y186085D01*
X56996D01*
X55796Y183685D01*
X62329Y189652D02*
X60329Y193652D01*
X64329D01*
X62329Y189652D01*
Y190452D02*
X61129Y192852D01*
X63529D01*
X62329Y190452D01*
X56737Y190325D02*
X54737Y194325D01*
X58737D01*
X56737Y190325D01*
Y191126D02*
X55537Y193526D01*
X57937D01*
X56737Y191126D01*
X61811Y181990D02*
X59811Y185989D01*
X63811D01*
X61811Y181990D01*
Y182790D02*
X60611Y185189D01*
X63011D01*
X61811Y182790D01*
X63977Y179287D02*
X61976Y183287D01*
X65977D01*
X63977Y179287D01*
Y180087D02*
X62776Y182487D01*
X65176D01*
X63977Y180087D01*
X64511Y168527D02*
X62511Y172528D01*
X66511D01*
X64511Y168527D01*
Y169327D02*
X63311Y171728D01*
X65711D01*
X64511Y169327D01*
X64019Y173765D02*
X62019Y177765D01*
X66019D01*
X64019Y173765D01*
Y174565D02*
X62819Y176965D01*
X65219D01*
X64019Y174565D01*
X70253Y168170D02*
X68253Y172170D01*
X72253D01*
X70253Y168170D01*
Y168970D02*
X69053Y171370D01*
X71453D01*
X70253Y168970D01*
X78698Y167689D02*
X76698Y171689D01*
X80698D01*
X78698Y167689D01*
Y168489D02*
X77498Y170889D01*
X79898D01*
X78698Y168489D01*
X75181Y159997D02*
X73181Y163997D01*
X77180D01*
X75181Y159997D01*
Y160797D02*
X73980Y163197D01*
X76380D01*
X75181Y160797D01*
X59738Y158394D02*
X57738Y162394D01*
X61738D01*
X59738Y158394D01*
Y159194D02*
X58538Y161594D01*
X60938D01*
X59738Y159194D01*
X52408Y158804D02*
X50408Y162804D01*
X54408D01*
X52408Y158804D01*
Y159604D02*
X51208Y162004D01*
X53608D01*
X52408Y159604D01*
X48777Y180975D02*
X46777Y184975D01*
X50777D01*
X48777Y180975D01*
Y181775D02*
X47577Y184175D01*
X49977D01*
X48777Y181775D01*
X51022Y189593D02*
X49022Y193593D01*
X53022D01*
X51022Y189593D01*
Y190393D02*
X49822Y192793D01*
X52222D01*
X51022Y190393D01*
X45983Y159676D02*
X43984Y163676D01*
X47984D01*
X45983Y159676D01*
Y160476D02*
X44783Y162876D01*
X47183D01*
X45983Y160476D01*
X46102Y166390D02*
X44102Y170390D01*
X48102D01*
X46102Y166390D01*
Y167190D02*
X44902Y169590D01*
X47302D01*
X46102Y167190D01*
X46043Y173580D02*
X44043Y177580D01*
X48043D01*
X46043Y173580D01*
Y174380D02*
X44843Y176780D01*
X47243D01*
X46043Y174380D01*
X67730Y180947D02*
X65730Y184947D01*
X69730D01*
X67730Y180947D01*
Y181747D02*
X66530Y184147D01*
X68930D01*
X67730Y181747D01*
X67908Y175897D02*
X65908Y179897D01*
X69908D01*
X67908Y175897D01*
Y176697D02*
X66708Y179097D01*
X69108D01*
X67908Y176697D01*
X109949Y206081D02*
X107949Y210081D01*
X111949D01*
X109949Y206081D01*
Y206880D02*
X108748Y209280D01*
X111149D01*
X109949Y206880D01*
X113874Y196986D02*
X111874Y200986D01*
X115874D01*
X113874Y196986D01*
Y197786D02*
X112674Y200186D01*
X115074D01*
X113874Y197786D01*
X99392Y190761D02*
X97391Y194761D01*
X101391D01*
X99392Y190761D01*
Y191561D02*
X98191Y193961D01*
X100592D01*
X99392Y191561D01*
X105448Y187242D02*
X103448Y191242D01*
X107448D01*
X105448Y187242D01*
Y188042D02*
X104248Y190442D01*
X106648D01*
X105448Y188042D01*
X101512Y181719D02*
X99512Y185719D01*
X103512D01*
X101512Y181719D01*
Y182519D02*
X100312Y184919D01*
X102712D01*
X101512Y182519D01*
X111401Y174542D02*
X109401Y178542D01*
X113401D01*
X111401Y174542D01*
Y175342D02*
X110201Y177742D01*
X112601D01*
X111401Y175342D01*
X129238Y195959D02*
X127238Y199959D01*
X131238D01*
X129238Y195959D01*
Y196759D02*
X128038Y199159D01*
X130438D01*
X129238Y196759D01*
X129415Y206904D02*
X127415Y210904D01*
X131415D01*
X129415Y206904D01*
Y207704D02*
X128215Y210104D01*
X130615D01*
X129415Y207704D01*
X129330Y215535D02*
X127330Y219535D01*
X131330D01*
X129330Y215535D01*
Y216335D02*
X128130Y218735D01*
X130530D01*
X129330Y216335D01*
X135981Y215799D02*
X133981Y219799D01*
X137981D01*
X135981Y215799D01*
Y216599D02*
X134781Y218999D01*
X137181D01*
X135981Y216599D01*
X128776Y225797D02*
X126776Y229797D01*
X130776D01*
X128776Y225797D01*
Y226597D02*
X127576Y228997D01*
X129976D01*
X128776Y226597D01*
X128979Y238680D02*
X126979Y242680D01*
X130979D01*
X128979Y238680D01*
Y239480D02*
X127779Y241880D01*
X130179D01*
X128979Y239480D01*
X136637Y238832D02*
X134637Y242832D01*
X138637D01*
X136637Y238832D01*
Y239632D02*
X135437Y242032D01*
X137837D01*
X136637Y239632D01*
X136550Y187687D02*
X134550Y191686D01*
X138550D01*
X136550Y187687D01*
Y188487D02*
X135350Y190886D01*
X137750D01*
X136550Y188487D01*
X136615Y203597D02*
X134615Y207597D01*
X138615D01*
X136615Y203597D01*
Y204397D02*
X135415Y206797D01*
X137815D01*
X136615Y204397D01*
X136333Y168359D02*
X134333Y172359D01*
X138333D01*
X136333Y168359D01*
Y169159D02*
X135133Y171559D01*
X137533D01*
X136333Y169159D01*
X154099Y239367D02*
X152099Y243367D01*
X156099D01*
X154099Y239367D01*
Y240167D02*
X152899Y242567D01*
X155299D01*
X154099Y240167D01*
X145811Y239367D02*
X143811Y243367D01*
X147811D01*
X145811Y239367D01*
Y240167D02*
X144611Y242567D01*
X147011D01*
X145811Y240167D01*
X160327Y209793D02*
X158327Y213793D01*
X162327D01*
X160327Y209793D01*
Y210593D02*
X159127Y212993D01*
X161527D01*
X160327Y210593D01*
X148169Y209938D02*
X146169Y213938D01*
X150169D01*
X148169Y209938D01*
Y210738D02*
X146969Y213138D01*
X149369D01*
X148169Y210738D01*
X143180Y209599D02*
X141180Y213599D01*
X145180D01*
X143180Y209599D01*
Y210399D02*
X141980Y212799D01*
X144380D01*
X143180Y210399D01*
X136446Y225633D02*
X134447Y229633D01*
X138446D01*
X136446Y225633D01*
Y226433D02*
X135247Y228833D01*
X137646D01*
X136446Y226433D01*
X151484Y199500D02*
X149484Y203500D01*
X153484D01*
X151484Y199500D01*
Y200300D02*
X150284Y202700D01*
X152684D01*
X151484Y200300D01*
X185701Y207348D02*
X183701Y211348D01*
X187701D01*
X185701Y207348D01*
Y208148D02*
X184501Y210548D01*
X186901D01*
X185701Y208148D01*
X196310Y232842D02*
X194310Y236842D01*
X198310D01*
X196310Y232842D01*
Y233642D02*
X195110Y236042D01*
X197510D01*
X196310Y233642D01*
X196221Y229873D02*
X194221Y233873D01*
X198221D01*
X196221Y229873D01*
Y230673D02*
X195021Y233073D01*
X197421D01*
X196221Y230673D01*
X184500Y228000D02*
X182500Y232000D01*
X186500D01*
X184500Y228000D01*
Y228800D02*
X183300Y231200D01*
X185700D01*
X184500Y228800D01*
Y231000D02*
X182500Y235000D01*
X186500D01*
X184500Y231000D01*
Y231800D02*
X183300Y234200D01*
X185700D01*
X184500Y231800D01*
X195300Y250276D02*
X193300Y254276D01*
X197300D01*
X195300Y250276D01*
Y251076D02*
X194100Y253476D01*
X196500D01*
X195300Y251076D01*
X191298Y254789D02*
X189298Y258789D01*
X193298D01*
X191298Y254789D01*
Y255589D02*
X190099Y257989D01*
X192499D01*
X191298Y255589D01*
X187000Y250500D02*
X185000Y254500D01*
X189000D01*
X187000Y250500D01*
Y251300D02*
X185800Y253700D01*
X188200D01*
X187000Y251300D01*
X167000Y233000D02*
X165000Y237000D01*
X169000D01*
X167000Y233000D01*
Y233800D02*
X165800Y236200D01*
X168200D01*
X167000Y233800D01*
X256728Y226700D02*
X254728Y230700D01*
X258728D01*
X256728Y226700D01*
Y227500D02*
X255527Y229900D01*
X257927D01*
X256728Y227500D01*
X141306Y254834D02*
X139306Y258834D01*
X143306D01*
X141306Y254834D01*
Y255634D02*
X140106Y258034D01*
X142506D01*
X141306Y255634D01*
X159849Y253040D02*
X157849Y257040D01*
X161849D01*
X159849Y253040D01*
Y253840D02*
X158649Y256240D01*
X161049D01*
X159849Y253840D01*
X82500Y265500D02*
X80500Y269500D01*
X84500D01*
X82500Y265500D01*
Y266300D02*
X81300Y268700D01*
X83700D01*
X82500Y266300D01*
X103000Y270000D02*
X101000Y274000D01*
X105000D01*
X103000Y270000D01*
Y270800D02*
X101800Y273200D01*
X104200D01*
X103000Y270800D01*
X101000Y263000D02*
X99000Y267000D01*
X103000D01*
X101000Y263000D01*
Y263800D02*
X99800Y266200D01*
X102200D01*
X101000Y263800D01*
X101112Y221230D02*
X99112Y225230D01*
X103112D01*
X101112Y221230D01*
Y222030D02*
X99912Y224430D01*
X102312D01*
X101112Y222030D01*
X91458Y220226D02*
X89458Y224226D01*
X93458D01*
X91458Y220226D01*
Y221026D02*
X90258Y223426D01*
X92658D01*
X91458Y221026D01*
X82724Y219139D02*
X80725Y223139D01*
X84724D01*
X82724Y219139D01*
Y219939D02*
X81524Y222339D01*
X83925D01*
X82724Y219939D01*
X40500Y229000D02*
X42500Y231000D01*
X44500Y229000D01*
X42500Y227000D01*
X40500Y229000D01*
Y237000D02*
X42500Y239000D01*
X44500Y237000D01*
X42500Y235000D01*
X40500Y237000D01*
Y245000D02*
X42500Y247000D01*
X44500Y245000D01*
X42500Y243000D01*
X40500Y245000D01*
Y253500D02*
X42500Y255500D01*
X44500Y253500D01*
X42500Y251500D01*
X40500Y253500D01*
Y261500D02*
X42500Y263500D01*
X44500Y261500D01*
X42500Y259500D01*
X40500Y261500D01*
Y269500D02*
X42500Y271500D01*
X44500Y269500D01*
X42500Y267500D01*
X40500Y269500D01*
Y278000D02*
X42500Y280000D01*
X44500Y278000D01*
X42500Y276000D01*
X40500Y278000D01*
Y286000D02*
X42500Y288000D01*
X44500Y286000D01*
X42500Y284000D01*
X40500Y286000D01*
Y294000D02*
X42500Y296000D01*
X44500Y294000D01*
X42500Y292000D01*
X40500Y294000D01*
X39500Y149000D02*
X41500Y151000D01*
X43500Y149000D01*
X41500Y147000D01*
X39500Y149000D01*
Y140500D02*
X41500Y142500D01*
X43500Y140500D01*
X41500Y138500D01*
X39500Y140500D01*
Y132000D02*
X41500Y134000D01*
X43500Y132000D01*
X41500Y130000D01*
X39500Y132000D01*
Y123500D02*
X41500Y125500D01*
X43500Y123500D01*
X41500Y121500D01*
X39500Y123500D01*
Y115000D02*
X41500Y117000D01*
X43500Y115000D01*
X41500Y113000D01*
X39500Y115000D01*
Y106500D02*
X41500Y108500D01*
X43500Y106500D01*
X41500Y104500D01*
X39500Y106500D01*
Y98000D02*
X41500Y100000D01*
X43500Y98000D01*
X41500Y96000D01*
X39500Y98000D01*
Y89500D02*
X41500Y91500D01*
X43500Y89500D01*
X41500Y87500D01*
X39500Y89500D01*
Y81000D02*
X41500Y83000D01*
X43500Y81000D01*
X41500Y79000D01*
X39500Y81000D01*
Y72500D02*
X41500Y74500D01*
X43500Y72500D01*
X41500Y70500D01*
X39500Y72500D01*
Y64000D02*
X41500Y66000D01*
X43500Y64000D01*
X41500Y62000D01*
X39500Y64000D01*
Y55500D02*
X41500Y57500D01*
X43500Y55500D01*
X41500Y53500D01*
X39500Y55500D01*
Y47000D02*
X41500Y49000D01*
X43500Y47000D01*
X41500Y45000D01*
X39500Y47000D01*
Y38500D02*
X41500Y40500D01*
X43500Y38500D01*
X41500Y36500D01*
X39500Y38500D01*
X43500Y30000D02*
X45500Y32000D01*
X47500Y30000D01*
X45500Y28000D01*
X43500Y30000D01*
X52000D02*
X54000Y32000D01*
X56000Y30000D01*
X54000Y28000D01*
X52000Y30000D01*
X60500D02*
X62500Y32000D01*
X64500Y30000D01*
X62500Y28000D01*
X60500Y30000D01*
X69000D02*
X71000Y32000D01*
X73000Y30000D01*
X71000Y28000D01*
X69000Y30000D01*
X77500D02*
X79500Y32000D01*
X81500Y30000D01*
X79500Y28000D01*
X77500Y30000D01*
X98000D02*
X100000Y32000D01*
X102000Y30000D01*
X100000Y28000D01*
X98000Y30000D01*
X106500D02*
X108500Y32000D01*
X110500Y30000D01*
X108500Y28000D01*
X106500Y30000D01*
X115000D02*
X117000Y32000D01*
X119000Y30000D01*
X117000Y28000D01*
X115000Y30000D01*
X123500D02*
X125500Y32000D01*
X127500Y30000D01*
X125500Y28000D01*
X123500Y30000D01*
X132000D02*
X134000Y32000D01*
X136000Y30000D01*
X134000Y28000D01*
X132000Y30000D01*
X140500D02*
X142500Y32000D01*
X144500Y30000D01*
X142500Y28000D01*
X140500Y30000D01*
X149000D02*
X151000Y32000D01*
X153000Y30000D01*
X151000Y28000D01*
X149000Y30000D01*
X157000D02*
X159000Y32000D01*
X161000Y30000D01*
X159000Y28000D01*
X157000Y30000D01*
X165500D02*
X167500Y32000D01*
X169500Y30000D01*
X167500Y28000D01*
X165500Y30000D01*
X174000D02*
X176000Y32000D01*
X178000Y30000D01*
X176000Y28000D01*
X174000Y30000D01*
X182500D02*
X184500Y32000D01*
X186500Y30000D01*
X184500Y28000D01*
X182500Y30000D01*
X191000D02*
X193000Y32000D01*
X195000Y30000D01*
X193000Y28000D01*
X191000Y30000D01*
X199500D02*
X201500Y32000D01*
X203500Y30000D01*
X201500Y28000D01*
X199500Y30000D01*
X208000D02*
X210000Y32000D01*
X212000Y30000D01*
X210000Y28000D01*
X208000Y30000D01*
X216500D02*
X218500Y32000D01*
X220500Y30000D01*
X218500Y28000D01*
X216500Y30000D01*
X225000D02*
X227000Y32000D01*
X229000Y30000D01*
X227000Y28000D01*
X225000Y30000D01*
X233500D02*
X235500Y32000D01*
X237500Y30000D01*
X235500Y28000D01*
X233500Y30000D01*
X242000D02*
X244000Y32000D01*
X246000Y30000D01*
X244000Y28000D01*
X242000Y30000D01*
X250500D02*
X252500Y32000D01*
X254500Y30000D01*
X252500Y28000D01*
X250500Y30000D01*
X261500Y37000D02*
X263500Y39000D01*
X265500Y37000D01*
X263500Y35000D01*
X261500Y37000D01*
Y45500D02*
X263500Y47500D01*
X265500Y45500D01*
X263500Y43500D01*
X261500Y45500D01*
Y53500D02*
X263500Y55500D01*
X265500Y53500D01*
X263500Y51500D01*
X261500Y53500D01*
Y61500D02*
X263500Y63500D01*
X265500Y61500D01*
X263500Y59500D01*
X261500Y61500D01*
Y70000D02*
X263500Y72000D01*
X265500Y70000D01*
X263500Y68000D01*
X261500Y70000D01*
Y78000D02*
X263500Y80000D01*
X265500Y78000D01*
X263500Y76000D01*
X261500Y78000D01*
Y86000D02*
X263500Y88000D01*
X265500Y86000D01*
X263500Y84000D01*
X261500Y86000D01*
Y94000D02*
X263500Y96000D01*
X265500Y94000D01*
X263500Y92000D01*
X261500Y94000D01*
Y102500D02*
X263500Y104500D01*
X265500Y102500D01*
X263500Y100500D01*
X261500Y102500D01*
Y110500D02*
X263500Y112500D01*
X265500Y110500D01*
X263500Y108500D01*
X261500Y110500D01*
Y119000D02*
X263500Y121000D01*
X265500Y119000D01*
X263500Y117000D01*
X261500Y119000D01*
Y144000D02*
X263500Y146000D01*
X265500Y144000D01*
X263500Y142000D01*
X261500Y144000D01*
Y152000D02*
X263500Y154000D01*
X265500Y152000D01*
X263500Y150000D01*
X261500Y152000D01*
Y160000D02*
X263500Y162000D01*
X265500Y160000D01*
X263500Y158000D01*
X261500Y160000D01*
Y168000D02*
X263500Y170000D01*
X265500Y168000D01*
X263500Y166000D01*
X261500Y168000D01*
Y176500D02*
X263500Y178500D01*
X265500Y176500D01*
X263500Y174500D01*
X261500Y176500D01*
Y184500D02*
X263500Y186500D01*
X265500Y184500D01*
X263500Y182500D01*
X261500Y184500D01*
Y192500D02*
X263500Y194500D01*
X265500Y192500D01*
X263500Y190500D01*
X261500Y192500D01*
Y201000D02*
X263500Y203000D01*
X265500Y201000D01*
X263500Y199000D01*
X261500Y201000D01*
Y209000D02*
X263500Y211000D01*
X265500Y209000D01*
X263500Y207000D01*
X261500Y209000D01*
Y217000D02*
X263500Y219000D01*
X265500Y217000D01*
X263500Y215000D01*
X261500Y217000D01*
Y225500D02*
X263500Y227500D01*
X265500Y225500D01*
X263500Y223500D01*
X261500Y225500D01*
X259000Y241000D02*
X261000Y243000D01*
X263000Y241000D01*
X261000Y239000D01*
X259000Y241000D01*
Y249000D02*
X261000Y251000D01*
X263000Y249000D01*
X261000Y247000D01*
X259000Y249000D01*
Y257000D02*
X261000Y259000D01*
X263000Y257000D01*
X261000Y255000D01*
X259000Y257000D01*
Y265000D02*
X261000Y267000D01*
X263000Y265000D01*
X261000Y263000D01*
X259000Y265000D01*
Y273500D02*
X261000Y275500D01*
X263000Y273500D01*
X261000Y271500D01*
X259000Y273500D01*
Y281500D02*
X261000Y283500D01*
X263000Y281500D01*
X261000Y279500D01*
X259000Y281500D01*
Y289500D02*
X261000Y291500D01*
X263000Y289500D01*
X261000Y287500D01*
X259000Y289500D01*
X171000Y280500D02*
X169000Y284500D01*
X173000D01*
X171000Y280500D01*
Y281300D02*
X169800Y283700D01*
X172200D01*
X171000Y281300D01*
X175500Y275500D02*
X173500Y279500D01*
X177500D01*
X175500Y275500D01*
Y276300D02*
X174300Y278700D01*
X176700D01*
X175500Y276300D01*
X171000Y275500D02*
X169000Y279500D01*
X173000D01*
X171000Y275500D01*
Y276300D02*
X169800Y278700D01*
X172200D01*
X171000Y276300D01*
X166500Y275500D02*
X164500Y279500D01*
X168500D01*
X166500Y275500D01*
Y276300D02*
X165300Y278700D01*
X167700D01*
X166500Y276300D01*
X137500Y294000D02*
X139500Y296000D01*
X141500Y294000D01*
X139500Y292000D01*
X137500Y294000D01*
X145500D02*
X147500Y296000D01*
X149500Y294000D01*
X147500Y292000D01*
X145500Y294000D01*
X153500D02*
X155500Y296000D01*
X157500Y294000D01*
X155500Y292000D01*
X153500Y294000D01*
X49557Y286010D02*
X51557Y288010D01*
X53557Y286010D01*
X51557Y284010D01*
X49557Y286010D01*
Y294010D02*
X51557Y296010D01*
X53557Y294010D01*
X51557Y292010D01*
X49557Y294010D01*
X57557D02*
X59557Y296010D01*
X61557Y294010D01*
X59557Y292010D01*
X57557Y294010D01*
Y286010D02*
X59557Y288010D01*
X61557Y286010D01*
X59557Y284010D01*
X57557Y286010D01*
X65557Y294010D02*
X67557Y296010D01*
X69557Y294010D01*
X67557Y292010D01*
X65557Y294010D01*
Y286010D02*
X67557Y288010D01*
X69557Y286010D01*
X67557Y284010D01*
X65557Y286010D01*
X73557Y294010D02*
X75557Y296010D01*
X77557Y294010D01*
X75557Y292010D01*
X73557Y294010D01*
Y286010D02*
X75557Y288010D01*
X77557Y286010D01*
X75557Y284010D01*
X73557Y286010D01*
X81557Y294010D02*
X83557Y296010D01*
X85557Y294010D01*
X83557Y292010D01*
X81557Y294010D01*
Y286010D02*
X83557Y288010D01*
X85557Y286010D01*
X83557Y284010D01*
X81557Y286010D01*
X89557D02*
X91557Y288010D01*
X93557Y286010D01*
X91557Y284010D01*
X89557Y286010D01*
Y294010D02*
X91557Y296010D01*
X93557Y294010D01*
X91557Y292010D01*
X89557Y294010D01*
X97557D02*
X99557Y296010D01*
X101557Y294010D01*
X99557Y292010D01*
X97557Y294010D01*
Y286010D02*
X99557Y288010D01*
X101557Y286010D01*
X99557Y284010D01*
X97557Y286010D01*
X105557Y294010D02*
X107557Y296010D01*
X109557Y294010D01*
X107557Y292010D01*
X105557Y294010D01*
Y286010D02*
X107557Y288010D01*
X109557Y286010D01*
X107557Y284010D01*
X105557Y286010D01*
X113557Y294010D02*
X115557Y296010D01*
X117557Y294010D01*
X115557Y292010D01*
X113557Y294010D01*
Y286010D02*
X115557Y288010D01*
X117557Y286010D01*
X115557Y284010D01*
X113557Y286010D01*
X121557Y294010D02*
X123557Y296010D01*
X125557Y294010D01*
X123557Y292010D01*
X121557Y294010D01*
Y286010D02*
X123557Y288010D01*
X125557Y286010D01*
X123557Y284010D01*
X121557Y286010D01*
X49557Y302010D02*
X51557Y304010D01*
X53557Y302010D01*
X51557Y300010D01*
X49557Y302010D01*
X57557D02*
X59557Y304010D01*
X61557Y302010D01*
X59557Y300010D01*
X57557Y302010D01*
X65557D02*
X67557Y304010D01*
X69557Y302010D01*
X67557Y300010D01*
X65557Y302010D01*
X73557D02*
X75557Y304010D01*
X77557Y302010D01*
X75557Y300010D01*
X73557Y302010D01*
X81557D02*
X83557Y304010D01*
X85557Y302010D01*
X83557Y300010D01*
X81557Y302010D01*
X89557D02*
X91557Y304010D01*
X93557Y302010D01*
X91557Y300010D01*
X89557Y302010D01*
X97557D02*
X99557Y304010D01*
X101557Y302010D01*
X99557Y300010D01*
X97557Y302010D01*
X105557D02*
X107557Y304010D01*
X109557Y302010D01*
X107557Y300010D01*
X105557Y302010D01*
X113557D02*
X115557Y304010D01*
X117557Y302010D01*
X115557Y300010D01*
X113557Y302010D01*
X121557D02*
X123557Y304010D01*
X125557Y302010D01*
X123557Y300010D01*
X121557Y302010D01*
X137500Y302000D02*
X139500Y304000D01*
X141500Y302000D01*
X139500Y300000D01*
X137500Y302000D01*
X145500D02*
X147500Y304000D01*
X149500Y302000D01*
X147500Y300000D01*
X145500Y302000D01*
X153500D02*
X155500Y304000D01*
X157500Y302000D01*
X155500Y300000D01*
X153500Y302000D01*
X209500Y286000D02*
X211500Y288000D01*
X213500Y286000D01*
X211500Y284000D01*
X209500Y286000D01*
Y294000D02*
X211500Y296000D01*
X213500Y294000D01*
X211500Y292000D01*
X209500Y294000D01*
X201500Y286000D02*
X203500Y288000D01*
X205500Y286000D01*
X203500Y284000D01*
X201500Y286000D01*
Y294000D02*
X203500Y296000D01*
X205500Y294000D01*
X203500Y292000D01*
X201500Y294000D01*
X193500Y286000D02*
X195500Y288000D01*
X197500Y286000D01*
X195500Y284000D01*
X193500Y286000D01*
Y294000D02*
X195500Y296000D01*
X197500Y294000D01*
X195500Y292000D01*
X193500Y294000D01*
X185500Y286000D02*
X187500Y288000D01*
X189500Y286000D01*
X187500Y284000D01*
X185500Y286000D01*
Y294000D02*
X187500Y296000D01*
X189500Y294000D01*
X187500Y292000D01*
X185500Y294000D01*
X209500Y302000D02*
X211500Y304000D01*
X213500Y302000D01*
X211500Y300000D01*
X209500Y302000D01*
X201500D02*
X203500Y304000D01*
X205500Y302000D01*
X203500Y300000D01*
X201500Y302000D01*
X193500D02*
X195500Y304000D01*
X197500Y302000D01*
X195500Y300000D01*
X193500Y302000D01*
X185500D02*
X187500Y304000D01*
X189500Y302000D01*
X187500Y300000D01*
X185500Y302000D01*
X177500D02*
X179500Y304000D01*
X181500Y302000D01*
X179500Y300000D01*
X177500Y302000D01*
Y294000D02*
X179500Y296000D01*
X181500Y294000D01*
X179500Y292000D01*
X177500Y294000D01*
Y286000D02*
X179500Y288000D01*
X181500Y286000D01*
X179500Y284000D01*
X177500Y286000D01*
X126819Y268638D02*
X124819Y272638D01*
X128819D01*
X126819Y268638D01*
Y269438D02*
X125619Y271838D01*
X128019D01*
X126819Y269438D01*
X129112Y274655D02*
X127112Y278655D01*
X131112D01*
X129112Y274655D01*
Y275455D02*
X127912Y277855D01*
X130312D01*
X129112Y275455D01*
X135150Y275938D02*
X133150Y279938D01*
X137150D01*
X135150Y275938D01*
Y276738D02*
X133950Y279138D01*
X136350D01*
X135150Y276738D01*
X131826Y268260D02*
X129826Y272260D01*
X133826D01*
X131826Y268260D01*
Y269060D02*
X130626Y271460D01*
X133026D01*
X131826Y269060D01*
X132058Y273729D02*
X130058Y277729D01*
X134058D01*
X132058Y273729D01*
Y274529D02*
X130858Y276929D01*
X133258D01*
X132058Y274529D01*
X121234Y176121D02*
X119234Y180121D01*
X123234D01*
X121234Y176121D01*
Y176921D02*
X120034Y179321D01*
X122434D01*
X121234Y176921D01*
X199000Y226000D02*
X197000Y230000D01*
X201000D01*
X199000Y226000D01*
Y226800D02*
X197800Y229200D01*
X200200D01*
X199000Y226800D01*
X240000Y235500D02*
X238000Y239500D01*
X242000D01*
X240000Y235500D01*
Y236300D02*
X238800Y238700D01*
X241200D01*
X240000Y236300D01*
X116500Y136000D02*
X114500Y140000D01*
X118500D01*
X116500Y136000D01*
Y136800D02*
X115300Y139200D01*
X117700D01*
X116500Y136800D01*
X84414Y177966D02*
X82414Y181966D01*
X86414D01*
X84414Y177966D01*
Y178766D02*
X83214Y181166D01*
X85614D01*
X84414Y178766D01*
X105294Y183931D02*
Y187931D01*
X109294D01*
Y183931D01*
X105294D01*
X106094Y184731D02*
Y187131D01*
X108494D01*
Y184731D01*
X106094D01*
X58500Y185500D02*
X56500Y189500D01*
X60500D01*
X58500Y185500D01*
Y186300D02*
X57300Y188700D01*
X59700D01*
X58500Y186300D01*
X123500Y144500D02*
Y148500D01*
X127500D01*
Y144500D01*
X123500D01*
X124300Y145300D02*
Y147700D01*
X126700D01*
Y145300D01*
X124300D01*
X161113Y257000D02*
Y261000D01*
X165113D01*
Y257000D01*
X161113D01*
X161913Y257800D02*
Y260200D01*
X164313D01*
Y257800D01*
X161913D01*
X166500Y248450D02*
Y252450D01*
X170500D01*
Y248450D01*
X166500D01*
X167300Y249250D02*
Y251650D01*
X169700D01*
Y249250D01*
X167300D01*
X136603Y210367D02*
Y214367D01*
X140603D01*
Y210367D01*
X136603D01*
X137403Y211167D02*
Y213567D01*
X139803D01*
Y211167D01*
X137403D01*
X180000Y236500D02*
Y240500D01*
X184000D01*
Y236500D01*
X180000D01*
X180800Y237300D02*
Y239700D01*
X183200D01*
Y237300D01*
X180800D01*
X124303Y161643D02*
Y165643D01*
X128303D01*
Y161643D01*
X124303D01*
X125103Y162443D02*
Y164843D01*
X127503D01*
Y162443D01*
X125103D01*
X121927Y161893D02*
Y165893D01*
X125927D01*
Y161893D01*
X121927D01*
X122727Y162693D02*
Y165093D01*
X125127D01*
Y162693D01*
X122727D01*
X100621Y125913D02*
Y129913D01*
X104621D01*
Y125913D01*
X100621D01*
X101421Y126713D02*
Y129113D01*
X103821D01*
Y126713D01*
X101421D01*
X101000Y143500D02*
Y147500D01*
X105000D01*
Y143500D01*
X101000D01*
X101800Y144300D02*
Y146700D01*
X104200D01*
Y144300D01*
X101800D01*
X118782Y120370D02*
Y124370D01*
X122782D01*
Y120370D01*
X118782D01*
X119582Y121170D02*
Y123570D01*
X121982D01*
Y121170D01*
X119582D01*
X117678Y203683D02*
Y207683D01*
X121678D01*
Y203683D01*
X117678D01*
X118478Y204483D02*
Y206883D01*
X120878D01*
Y204483D01*
X118478D01*
X117678Y201087D02*
Y205087D01*
X121678D01*
Y201087D01*
X117678D01*
X118478Y201887D02*
Y204287D01*
X120878D01*
Y201887D01*
X118478D01*
X98722Y208815D02*
Y212815D01*
X102722D01*
Y208815D01*
X98722D01*
X99522Y209615D02*
Y212015D01*
X101922D01*
Y209615D01*
X99522D01*
X96500Y207500D02*
Y211500D01*
X100500D01*
Y207500D01*
X96500D01*
X97300Y208300D02*
Y210700D01*
X99700D01*
Y208300D01*
X97300D01*
X108000Y271500D02*
Y275500D01*
X112000D01*
Y271500D01*
X108000D01*
X108800Y272300D02*
Y274700D01*
X111200D01*
Y272300D01*
X108800D01*
X91971Y272368D02*
Y276368D01*
X95971D01*
Y272368D01*
X91971D01*
X92771Y273168D02*
Y275568D01*
X95171D01*
Y273168D01*
X92771D01*
X107500Y269000D02*
Y273000D01*
X111500D01*
Y269000D01*
X107500D01*
X108300Y269800D02*
Y272200D01*
X110700D01*
Y269800D01*
X108300D01*
X93501Y216292D02*
Y220292D01*
X97501D01*
Y216292D01*
X93501D01*
X94301Y217092D02*
Y219492D01*
X96701D01*
Y217092D01*
X94301D01*
X120140Y189317D02*
Y193317D01*
X124140D01*
Y189317D01*
X120140D01*
X120940Y190117D02*
Y192517D01*
X123340D01*
Y190117D01*
X120940D01*
X120140Y191491D02*
Y195491D01*
X124140D01*
Y191491D01*
X120140D01*
X120940Y192291D02*
Y194691D01*
X123340D01*
Y192291D01*
X120940D01*
X109428Y185897D02*
Y189897D01*
X113428D01*
Y185897D01*
X109428D01*
X110228Y186697D02*
Y189097D01*
X112628D01*
Y186697D01*
X110228D01*
X107713Y187540D02*
Y191540D01*
X111713D01*
Y187540D01*
X107713D01*
X108513Y188340D02*
Y190740D01*
X110913D01*
Y188340D01*
X108513D01*
X130835Y252858D02*
Y256858D01*
X134835D01*
Y252858D01*
X130835D01*
X131635Y253659D02*
Y256059D01*
X134035D01*
Y253659D01*
X131635D01*
X232500Y54946D02*
Y58946D01*
X236500D01*
Y54946D01*
X232500D01*
X233300Y55746D02*
Y58146D01*
X235700D01*
Y55746D01*
X233300D01*
X232500Y52771D02*
Y56771D01*
X236500D01*
Y52771D01*
X232500D01*
X233300Y53571D02*
Y55971D01*
X235700D01*
Y53571D01*
X233300D01*
X171500Y113500D02*
Y117500D01*
X175500D01*
Y113500D01*
X171500D01*
X172300Y114300D02*
Y116700D01*
X174700D01*
Y114300D01*
X172300D01*
X217000Y153000D02*
Y157000D01*
X221000D01*
Y153000D01*
X217000D01*
X217800Y153800D02*
Y156200D01*
X220200D01*
Y153800D01*
X217800D01*
X61000Y58000D02*
Y62000D01*
X65000D01*
Y58000D01*
X61000D01*
X61800Y58800D02*
Y61200D01*
X64200D01*
Y58800D01*
X61800D01*
X89000Y97500D02*
Y101500D01*
X93000D01*
Y97500D01*
X89000D01*
X89800Y98300D02*
Y100700D01*
X92200D01*
Y98300D01*
X89800D01*
X166971Y207520D02*
Y211520D01*
X170971D01*
Y207520D01*
X166971D01*
X167771Y208320D02*
Y210720D01*
X170171D01*
Y208320D01*
X167771D01*
X88339Y170661D02*
Y169661D01*
X90339D01*
Y170661D01*
X91339D01*
Y172661D01*
X90339D01*
Y173661D01*
X88339D01*
Y172661D01*
X87339D01*
Y170661D01*
X88339D01*
X92669D02*
Y169661D01*
X94669D01*
Y170661D01*
X95669D01*
Y172661D01*
X94669D01*
Y173661D01*
X92669D01*
Y172661D01*
X91669D01*
Y170661D01*
X92669D01*
X97000D02*
Y169661D01*
X99000D01*
Y170661D01*
X100000D01*
Y172661D01*
X99000D01*
Y173661D01*
X97000D01*
Y172661D01*
X96000D01*
Y170661D01*
X97000D01*
X101331D02*
Y169661D01*
X103331D01*
Y170661D01*
X104331D01*
Y172661D01*
X103331D01*
Y173661D01*
X101331D01*
Y172661D01*
X100331D01*
Y170661D01*
X101331D01*
X105661D02*
Y169661D01*
X107661D01*
Y170661D01*
X108661D01*
Y172661D01*
X107661D01*
Y173661D01*
X105661D01*
Y172661D01*
X104661D01*
Y170661D01*
X105661D01*
X88339Y166331D02*
Y165331D01*
X90339D01*
Y166331D01*
X91339D01*
Y168331D01*
X90339D01*
Y169331D01*
X88339D01*
Y168331D01*
X87339D01*
Y166331D01*
X88339D01*
X92669D02*
Y165331D01*
X94669D01*
Y166331D01*
X95669D01*
Y168331D01*
X94669D01*
Y169331D01*
X92669D01*
Y168331D01*
X91669D01*
Y166331D01*
X92669D01*
X97000D02*
Y165331D01*
X99000D01*
Y166331D01*
X100000D01*
Y168331D01*
X99000D01*
Y169331D01*
X97000D01*
Y168331D01*
X96000D01*
Y166331D01*
X97000D01*
X101331D02*
Y165331D01*
X103331D01*
Y166331D01*
X104331D01*
Y168331D01*
X103331D01*
Y169331D01*
X101331D01*
Y168331D01*
X100331D01*
Y166331D01*
X101331D01*
X105661D02*
Y165331D01*
X107661D01*
Y166331D01*
X108661D01*
Y168331D01*
X107661D01*
Y169331D01*
X105661D01*
Y168331D01*
X104661D01*
Y166331D01*
X105661D01*
X88339Y162000D02*
Y161000D01*
X90339D01*
Y162000D01*
X91339D01*
Y164000D01*
X90339D01*
Y165000D01*
X88339D01*
Y164000D01*
X87339D01*
Y162000D01*
X88339D01*
X92669D02*
Y161000D01*
X94669D01*
Y162000D01*
X95669D01*
Y164000D01*
X94669D01*
Y165000D01*
X92669D01*
Y164000D01*
X91669D01*
Y162000D01*
X92669D01*
X97000D02*
Y161000D01*
X99000D01*
Y162000D01*
X100000D01*
Y164000D01*
X99000D01*
Y165000D01*
X97000D01*
Y164000D01*
X96000D01*
Y162000D01*
X97000D01*
X101331D02*
Y161000D01*
X103331D01*
Y162000D01*
X104331D01*
Y164000D01*
X103331D01*
Y165000D01*
X101331D01*
Y164000D01*
X100331D01*
Y162000D01*
X101331D01*
X105661D02*
Y161000D01*
X107661D01*
Y162000D01*
X108661D01*
Y164000D01*
X107661D01*
Y165000D01*
X105661D01*
Y164000D01*
X104661D01*
Y162000D01*
X105661D01*
X88339Y157669D02*
Y156669D01*
X90339D01*
Y157669D01*
X91339D01*
Y159669D01*
X90339D01*
Y160669D01*
X88339D01*
Y159669D01*
X87339D01*
Y157669D01*
X88339D01*
X92669D02*
Y156669D01*
X94669D01*
Y157669D01*
X95669D01*
Y159669D01*
X94669D01*
Y160669D01*
X92669D01*
Y159669D01*
X91669D01*
Y157669D01*
X92669D01*
X97000D02*
Y156669D01*
X99000D01*
Y157669D01*
X100000D01*
Y159669D01*
X99000D01*
Y160669D01*
X97000D01*
Y159669D01*
X96000D01*
Y157669D01*
X97000D01*
X101331D02*
Y156669D01*
X103331D01*
Y157669D01*
X104331D01*
Y159669D01*
X103331D01*
Y160669D01*
X101331D01*
Y159669D01*
X100331D01*
Y157669D01*
X101331D01*
X105661D02*
Y156669D01*
X107661D01*
Y157669D01*
X108661D01*
Y159669D01*
X107661D01*
Y160669D01*
X105661D01*
Y159669D01*
X104661D01*
Y157669D01*
X105661D01*
X88339Y153339D02*
Y152339D01*
X90339D01*
Y153339D01*
X91339D01*
Y155339D01*
X90339D01*
Y156339D01*
X88339D01*
Y155339D01*
X87339D01*
Y153339D01*
X88339D01*
X92669D02*
Y152339D01*
X94669D01*
Y153339D01*
X95669D01*
Y155339D01*
X94669D01*
Y156339D01*
X92669D01*
Y155339D01*
X91669D01*
Y153339D01*
X92669D01*
X97000D02*
Y152339D01*
X99000D01*
Y153339D01*
X100000D01*
Y155339D01*
X99000D01*
Y156339D01*
X97000D01*
Y155339D01*
X96000D01*
Y153339D01*
X97000D01*
X101331D02*
Y152339D01*
X103331D01*
Y153339D01*
X104331D01*
Y155339D01*
X103331D01*
Y156339D01*
X101331D01*
Y155339D01*
X100331D01*
Y153339D01*
X101331D01*
X105661D02*
Y152339D01*
X107661D01*
Y153339D01*
X108661D01*
Y155339D01*
X107661D01*
Y156339D01*
X105661D01*
Y155339D01*
X104661D01*
Y153339D01*
X105661D01*
D97*
X133445Y286043D02*
G03*
X133445Y286043I-2000J0D01*
G01*
X167500D02*
G03*
X167500Y286043I-2000J0D01*
G01*
X60000Y237000D02*
G03*
X60000Y237000I-2000J0D01*
G01*
X57500Y140500D02*
G03*
X57500Y140500I-2000J0D01*
G01*
D98*
X59200Y237000D02*
G03*
X59200Y237000I-1200J0D01*
G01*
X56700Y140500D02*
G03*
X56700Y140500I-1200J0D01*
G01*
M02*
