G04*
G04 #@! TF.GenerationSoftware,Altium Limited,Altium Designer,23.5.1 (21)*
G04*
G04 Layer_Color=16711935*
%FSLAX25Y25*%
%MOIN*%
G70*
G04*
G04 #@! TF.SameCoordinates,89F97100-6FF8-4533-BDCD-A1BC4398B3AB*
G04*
G04*
G04 #@! TF.FilePolarity,Positive*
G04*
G01*
G75*
%ADD14C,0.00394*%
%ADD95C,0.00197*%
D14*
X89535Y173433D02*
G03*
X89535Y173433I-1969J0D01*
G01*
X92094Y123445D02*
X103905D01*
X92094Y116555D02*
X103905D01*
Y123445D01*
X92094Y116555D02*
Y123445D01*
X60762Y235414D02*
Y246831D01*
X65880D01*
X60762Y235414D02*
X65880D01*
Y246831D01*
X52232Y50929D02*
X53413Y52110D01*
X53020Y50535D02*
X54201Y51717D01*
X51425Y48500D02*
X54575D01*
X52213Y46925D02*
Y50075D01*
Y48500D02*
X53787Y46925D01*
X52213Y48500D02*
X53787Y50075D01*
Y46925D02*
Y50075D01*
X84024Y149024D02*
Y176976D01*
X111976Y149024D02*
Y176976D01*
X84024D02*
X111976D01*
X84024Y149024D02*
X111976D01*
X208898Y143543D02*
X221102D01*
X208898Y136457D02*
X221102D01*
Y143543D01*
X208898Y136457D02*
Y143543D01*
X112882Y72996D02*
Y90004D01*
X123118Y72996D02*
Y90004D01*
X112882D02*
X123118D01*
X112882Y72996D02*
X123118D01*
X148996Y183882D02*
X166004D01*
X148996Y194118D02*
X166004D01*
X148996Y183882D02*
Y194118D01*
X166004Y183882D02*
Y194118D01*
D95*
X187440Y239801D02*
G03*
X187440Y240654I0J427D01*
G01*
D02*
G03*
X187440Y239801I0J-427D01*
G01*
X189559Y237000D02*
Y237724D01*
X190445Y239028D02*
Y239173D01*
X189559Y237000D02*
X190445D01*
X189559Y239028D02*
Y239173D01*
Y238143D02*
Y239028D01*
Y238096D02*
Y238143D01*
Y237724D02*
Y238096D01*
X190445Y237724D02*
Y238096D01*
Y237000D02*
Y237724D01*
Y238143D02*
Y239028D01*
Y238096D02*
Y238143D01*
X189559Y239173D02*
X190445D01*
X187000D02*
X187886D01*
X187000Y239028D02*
Y239173D01*
Y237000D02*
X187886D01*
X187000Y238143D02*
Y239028D01*
X187886D02*
Y239173D01*
Y237000D02*
Y237724D01*
Y238143D02*
Y239028D01*
Y237724D02*
Y238096D01*
X187000Y237000D02*
Y237724D01*
X187886Y238096D02*
Y238143D01*
X187000Y237724D02*
Y238096D01*
Y238143D01*
X192118Y237000D02*
Y237724D01*
X193004Y239028D02*
Y239173D01*
Y237000D02*
Y237724D01*
X192118Y239173D02*
X193004D01*
X192118Y237000D02*
X193004D01*
Y237724D02*
Y238096D01*
X192118Y237724D02*
Y238096D01*
Y238143D02*
Y239028D01*
Y239173D01*
X193004Y238143D02*
Y239028D01*
X192118Y238096D02*
Y238143D01*
X193004Y238096D02*
Y238143D01*
X187000Y243949D02*
Y244833D01*
Y244880D01*
Y243803D02*
X187886D01*
X187000Y245976D02*
X187886D01*
X187000Y243803D02*
Y243949D01*
Y244880D02*
Y245253D01*
Y245976D01*
X187886Y243803D02*
Y243949D01*
Y244833D01*
Y244880D01*
Y245253D01*
Y245976D01*
X189559Y244833D02*
Y244880D01*
Y243803D02*
Y243949D01*
Y245253D02*
Y245976D01*
X190445Y243949D02*
Y244833D01*
Y244880D01*
Y245253D02*
Y245976D01*
Y243803D02*
Y243949D01*
X189559D02*
Y244833D01*
Y245976D02*
X190445D01*
X189559Y244880D02*
Y245253D01*
X190445Y244880D02*
Y245253D01*
X189559Y243803D02*
X190445D01*
X192118D02*
Y243949D01*
Y244880D02*
Y245253D01*
Y245976D02*
X193004D01*
Y243803D02*
Y243949D01*
Y244833D01*
Y244880D01*
Y245253D01*
X192118D02*
Y245976D01*
Y243949D02*
Y244833D01*
Y244880D01*
X193004Y245253D02*
Y245976D01*
X192118Y243803D02*
X193004D01*
X186065Y239028D02*
Y243949D01*
X186163Y239087D02*
Y243890D01*
X193939Y239028D02*
Y243949D01*
X193004Y239028D02*
X193939D01*
X190445D02*
X192118D01*
X187886D02*
X189559D01*
X186065D02*
X187000D01*
X193004Y239087D02*
X193841D01*
X190445D02*
X192118D01*
X187886D02*
X189559D01*
X186163D02*
X187000D01*
X193841D02*
Y243890D01*
X193004Y243949D02*
X193939D01*
X190445D02*
X192118D01*
X187886D02*
X189559D01*
X186065D02*
X187000D01*
X193004Y243890D02*
X193841D01*
X190445D02*
X192118D01*
X187886D02*
X189559D01*
X186163D02*
X187000D01*
M02*
