G04*
G04 #@! TF.GenerationSoftware,Altium Limited,Altium Designer,23.5.1 (21)*
G04*
G04 Layer_Color=16711935*
%FSLAX25Y25*%
%MOIN*%
G70*
G04*
G04 #@! TF.SameCoordinates,89F97100-6FF8-4533-BDCD-A1BC4398B3AB*
G04*
G04*
G04 #@! TF.FilePolarity,Negative*
G04*
G01*
G75*
%ADD70C,0.06706*%
%ADD71R,0.06706X0.06706*%
%ADD72C,0.10249*%
%ADD73R,0.10249X0.10249*%
%ADD74R,0.06706X0.06706*%
G04:AMPARAMS|DCode=76|XSize=59.06mil|YSize=94.49mil|CornerRadius=14.76mil|HoleSize=0mil|Usage=FLASHONLY|Rotation=180.000|XOffset=0mil|YOffset=0mil|HoleType=Round|Shape=RoundedRectangle|*
%AMROUNDEDRECTD76*
21,1,0.05906,0.06496,0,0,180.0*
21,1,0.02953,0.09449,0,0,180.0*
1,1,0.02953,-0.01476,0.03248*
1,1,0.02953,0.01476,0.03248*
1,1,0.02953,0.01476,-0.03248*
1,1,0.02953,-0.01476,-0.03248*
%
%ADD76ROUNDEDRECTD76*%
G04:AMPARAMS|DCode=77|XSize=8mil|YSize=8mil|CornerRadius=0mil|HoleSize=0mil|Usage=FLASHONLY|Rotation=0.000|XOffset=0mil|YOffset=0mil|HoleType=Round|Shape=RoundedRectangle|*
%AMROUNDEDRECTD77*
21,1,0.00800,0.00800,0,0,0.0*
21,1,0.00800,0.00800,0,0,0.0*
1,1,0.00000,0.00400,-0.00400*
1,1,0.00000,-0.00400,-0.00400*
1,1,0.00000,-0.00400,0.00400*
1,1,0.00000,0.00400,0.00400*
%
%ADD77ROUNDEDRECTD77*%
%ADD78C,0.02769*%
G04:AMPARAMS|DCode=94|XSize=59.06mil|YSize=102.36mil|CornerRadius=14.76mil|HoleSize=0mil|Usage=FLASHONLY|Rotation=180.000|XOffset=0mil|YOffset=0mil|HoleType=Round|Shape=RoundedRectangle|*
%AMROUNDEDRECTD94*
21,1,0.05906,0.07284,0,0,180.0*
21,1,0.02953,0.10236,0,0,180.0*
1,1,0.02953,-0.01476,0.03642*
1,1,0.02953,0.01476,0.03642*
1,1,0.02953,0.01476,-0.03642*
1,1,0.02953,-0.01476,-0.03642*
%
%ADD94ROUNDEDRECTD94*%
D70*
X68000Y258500D02*
D03*
X78000D02*
D03*
X88000D02*
D03*
X98000D02*
D03*
X106000Y224500D02*
D03*
X96000D02*
D03*
X86000D02*
D03*
X76000D02*
D03*
X249000Y144500D02*
D03*
Y154500D02*
D03*
Y164500D02*
D03*
Y216000D02*
D03*
D71*
X108000Y258500D02*
D03*
X116000Y224500D02*
D03*
D72*
X247000Y291500D02*
D03*
D73*
X227315D02*
D03*
D74*
X249000Y174500D02*
D03*
Y226000D02*
D03*
D76*
X131445Y302500D02*
D03*
X165500D02*
D03*
D77*
X230441Y102720D02*
D03*
X151701D02*
D03*
X230441Y260201D02*
D03*
X151701D02*
D03*
D78*
X89339Y171661D02*
D03*
X93669D02*
D03*
X98000D02*
D03*
X102331D02*
D03*
X106661D02*
D03*
X89339Y167331D02*
D03*
X93669D02*
D03*
X98000D02*
D03*
X102331D02*
D03*
X106661D02*
D03*
X89339Y163000D02*
D03*
X93669D02*
D03*
X98000D02*
D03*
X102331D02*
D03*
X106661D02*
D03*
X89339Y158669D02*
D03*
X93669D02*
D03*
X98000D02*
D03*
X102331D02*
D03*
X106661D02*
D03*
X89339Y154339D02*
D03*
X93669D02*
D03*
X98000D02*
D03*
X102331D02*
D03*
X106661D02*
D03*
D94*
X131445Y286043D02*
D03*
X165500D02*
D03*
M02*
