G04*
G04 #@! TF.GenerationSoftware,Altium Limited,Altium Designer,23.5.1 (21)*
G04*
G04 Layer_Physical_Order=2*
G04 Layer_Color=16711680*
%FSLAX25Y25*%
%MOIN*%
G70*
G04*
G04 #@! TF.SameCoordinates,89F97100-6FF8-4533-BDCD-A1BC4398B3AB*
G04*
G04*
G04 #@! TF.FilePolarity,Positive*
G04*
G01*
G75*
%ADD13C,0.01000*%
G04:AMPARAMS|DCode=76|XSize=59.06mil|YSize=94.49mil|CornerRadius=14.76mil|HoleSize=0mil|Usage=FLASHONLY|Rotation=180.000|XOffset=0mil|YOffset=0mil|HoleType=Round|Shape=RoundedRectangle|*
%AMROUNDEDRECTD76*
21,1,0.05906,0.06496,0,0,180.0*
21,1,0.02953,0.09449,0,0,180.0*
1,1,0.02953,-0.01476,0.03248*
1,1,0.02953,0.01476,0.03248*
1,1,0.02953,0.01476,-0.03248*
1,1,0.02953,-0.01476,-0.03248*
%
%ADD76ROUNDEDRECTD76*%
%ADD81C,0.02000*%
%ADD82C,0.00600*%
%ADD84C,0.05906*%
%ADD85R,0.05906X0.05906*%
%ADD86C,0.09449*%
%ADD87R,0.09449X0.09449*%
%ADD88R,0.05906X0.05906*%
%ADD89C,0.01968*%
%ADD90C,0.01575*%
%ADD91C,0.02362*%
%ADD92C,0.03937*%
%ADD93C,0.03150*%
G04:AMPARAMS|DCode=94|XSize=59.06mil|YSize=102.36mil|CornerRadius=14.76mil|HoleSize=0mil|Usage=FLASHONLY|Rotation=180.000|XOffset=0mil|YOffset=0mil|HoleType=Round|Shape=RoundedRectangle|*
%AMROUNDEDRECTD94*
21,1,0.05906,0.07284,0,0,180.0*
21,1,0.02953,0.10236,0,0,180.0*
1,1,0.02953,-0.01476,0.03642*
1,1,0.02953,0.01476,0.03642*
1,1,0.02953,0.01476,-0.03642*
1,1,0.02953,-0.01476,-0.03642*
%
%ADD94ROUNDEDRECTD94*%
G36*
X266000Y294000D02*
Y261290D01*
Y141000D01*
X259500Y134500D01*
X256918D01*
Y147500D01*
X256848Y147851D01*
X256649Y148149D01*
X252076Y152722D01*
X252311Y153129D01*
X252553Y154032D01*
Y154968D01*
X252311Y155871D01*
X251843Y156681D01*
X251181Y157343D01*
X250371Y157811D01*
X249468Y158053D01*
X248532D01*
X247629Y157811D01*
X246819Y157343D01*
X246157Y156681D01*
X245689Y155871D01*
X245447Y154968D01*
Y154032D01*
X245689Y153129D01*
X246157Y152319D01*
X246819Y151657D01*
X247629Y151189D01*
X248532Y150947D01*
X249468D01*
X250371Y151189D01*
X250778Y151424D01*
X255082Y147120D01*
Y134500D01*
X243528D01*
X242954Y135886D01*
X248125Y141056D01*
X248532Y140947D01*
X249468D01*
X250371Y141189D01*
X251181Y141657D01*
X251843Y142319D01*
X252311Y143129D01*
X252553Y144032D01*
Y144968D01*
X252311Y145871D01*
X251843Y146681D01*
X251181Y147343D01*
X250371Y147811D01*
X249468Y148053D01*
X248532D01*
X247629Y147811D01*
X246819Y147343D01*
X246157Y146681D01*
X245689Y145871D01*
X245447Y144968D01*
Y144032D01*
X245689Y143129D01*
X246157Y142319D01*
X246474Y142001D01*
X238973Y134500D01*
X219918D01*
Y153955D01*
X220176Y154214D01*
X220387Y154724D01*
Y155276D01*
X220176Y155786D01*
X219786Y156176D01*
X219276Y156387D01*
X218724D01*
X218214Y156176D01*
X217824Y155786D01*
X217613Y155276D01*
Y154724D01*
X217824Y154214D01*
X218082Y153955D01*
Y134500D01*
X201649D01*
Y174500D01*
X201459Y174959D01*
X199459Y176959D01*
X199000Y177149D01*
X194000D01*
X193541Y176959D01*
X193351Y176500D01*
Y171769D01*
X190231Y168649D01*
X167769D01*
X167459Y168959D01*
X167459Y168959D01*
X160459Y175959D01*
X160000Y176149D01*
X152000D01*
X151541Y175959D01*
X150418Y174836D01*
X148918Y175457D01*
Y188169D01*
X168881Y208132D01*
X169247D01*
X169757Y208343D01*
X170147Y208734D01*
X170358Y209244D01*
Y209796D01*
X170147Y210306D01*
X169757Y210696D01*
X169247Y210907D01*
X168695D01*
X168185Y210696D01*
X167795Y210306D01*
X167583Y209796D01*
Y209430D01*
X147351Y189198D01*
X147152Y188900D01*
X147082Y188549D01*
Y125500D01*
X147152Y125149D01*
X147351Y124851D01*
X149364Y122839D01*
X149661Y122640D01*
X150012Y122570D01*
X165132D01*
X172113Y115590D01*
Y115224D01*
X172324Y114714D01*
X172714Y114324D01*
X173224Y114113D01*
X173776D01*
X174286Y114324D01*
X174676Y114714D01*
X174887Y115224D01*
Y115776D01*
X174676Y116286D01*
X174286Y116676D01*
X173776Y116887D01*
X173410D01*
X166447Y123851D01*
D01*
D01*
X166472Y124556D01*
X166562Y124941D01*
X166836Y125490D01*
D01*
D01*
X166959Y125541D01*
X167149Y126000D01*
Y126500D01*
Y133731D01*
X167459Y134041D01*
X167459Y134041D01*
X167769Y134351D01*
X184231D01*
X184351Y134231D01*
Y127000D01*
X184541Y126541D01*
X185041Y126041D01*
X185500Y125851D01*
X200500D01*
X200959Y126041D01*
X201418Y126500D01*
X218082D01*
Y115306D01*
X202694Y99918D01*
X171880D01*
X167918Y103880D01*
Y108759D01*
X167848Y109111D01*
X167649Y109408D01*
X159408Y117649D01*
X159111Y117848D01*
X158759Y117918D01*
X142812D01*
X141401Y119329D01*
Y193517D01*
X141331Y193868D01*
X141132Y194166D01*
X128965Y206332D01*
X128668Y206531D01*
X128317Y206601D01*
X120722D01*
X120464Y206859D01*
X119954Y207071D01*
X119402D01*
X118908Y207401D01*
Y212631D01*
X124649Y218371D01*
X124848Y218669D01*
X124918Y219020D01*
Y242000D01*
X124848Y242351D01*
X124649Y242649D01*
X118418Y248880D01*
Y264500D01*
X118348Y264851D01*
X118149Y265149D01*
X112918Y270380D01*
Y271500D01*
X112848Y271851D01*
X112649Y272149D01*
X111387Y273410D01*
Y273776D01*
X111176Y274286D01*
X110786Y274676D01*
X110276Y274887D01*
X109724D01*
X109214Y274676D01*
X108824Y274286D01*
X108613Y273776D01*
Y273224D01*
X108714Y272176D01*
X108324Y271786D01*
X108113Y271276D01*
Y270724D01*
X108324Y270214D01*
X108714Y269824D01*
X109224Y269613D01*
X109393D01*
X115382Y263623D01*
Y248003D01*
X115452Y247652D01*
X115651Y247354D01*
X120253Y242753D01*
X120253Y242753D01*
X121882Y241123D01*
Y219898D01*
X116141Y214157D01*
X115943Y213859D01*
X115873Y213508D01*
Y188176D01*
X115136Y187142D01*
X114790Y186849D01*
X114119D01*
X112815Y187621D01*
Y188173D01*
X112604Y188683D01*
X112346Y188941D01*
Y196303D01*
X112276Y196654D01*
X112077Y196951D01*
X104918Y204111D01*
Y207537D01*
X104848Y207888D01*
X104649Y208186D01*
X102109Y210725D01*
Y211091D01*
X101898Y211601D01*
X101508Y211991D01*
X100998Y212202D01*
X100446D01*
X99936Y211991D01*
X99546Y211601D01*
X99335Y211091D01*
X98776Y210887D01*
X98224D01*
X97714Y210676D01*
X97324Y210286D01*
X97113Y209776D01*
Y209224D01*
X97324Y208714D01*
X97714Y208324D01*
X98224Y208113D01*
X98578D01*
X101582Y205108D01*
Y203508D01*
X101652Y203157D01*
X101851Y202860D01*
X108796Y195915D01*
Y190584D01*
X108537Y190326D01*
X108326Y189816D01*
Y189264D01*
X108537Y188754D01*
X107740Y187430D01*
X107570Y187319D01*
X107018D01*
X106508Y187107D01*
X106117Y186717D01*
X105906Y186207D01*
Y185655D01*
X106117Y185145D01*
X106508Y184755D01*
X107018Y184544D01*
X107570D01*
X108080Y184755D01*
X108338Y185014D01*
X116958D01*
X119440Y182531D01*
X119436Y182486D01*
X118762Y181088D01*
X86303D01*
X86258Y181198D01*
X85646Y181810D01*
X84847Y182141D01*
X84666D01*
X78154Y188654D01*
X77624Y189007D01*
X77000Y189131D01*
X59944D01*
X59732Y189344D01*
X58933Y189675D01*
X58067D01*
X57268Y189344D01*
X57056Y189131D01*
X44714D01*
X44090Y189007D01*
X43561Y188654D01*
X42017Y187110D01*
X40631Y187684D01*
Y217324D01*
X57739Y234432D01*
X58338D01*
X58991Y234607D01*
X59577Y234945D01*
X60055Y235423D01*
X60394Y236009D01*
X60568Y236662D01*
Y237338D01*
X60474Y237691D01*
X77730Y254947D01*
X78468D01*
X79371Y255189D01*
X80181Y255657D01*
X80843Y256319D01*
X81311Y257129D01*
X81553Y258032D01*
Y258968D01*
X81311Y259871D01*
X80843Y260681D01*
X80181Y261343D01*
X79371Y261811D01*
X78468Y262053D01*
X77532D01*
X76629Y261811D01*
X75819Y261343D01*
X75157Y260681D01*
X74689Y259871D01*
X74447Y258968D01*
Y258032D01*
X74689Y257129D01*
X74912Y256743D01*
X57737Y239568D01*
X57662D01*
X57009Y239393D01*
X56423Y239055D01*
X55945Y238577D01*
X55607Y237991D01*
X55431Y237338D01*
Y236739D01*
X39386Y220693D01*
X38000Y221267D01*
Y297000D01*
X47000Y306000D01*
X127645D01*
X127851Y305748D01*
Y299252D01*
X128013Y298442D01*
X128472Y297755D01*
X129158Y297296D01*
X129969Y297135D01*
X132921D01*
X133731Y297296D01*
X134418Y297755D01*
X134877Y298442D01*
X135038Y299252D01*
Y305748D01*
X135245Y306000D01*
X161700D01*
X161907Y305748D01*
Y299252D01*
X162068Y298442D01*
X162527Y297755D01*
X163214Y297296D01*
X164024Y297135D01*
X166976D01*
X167787Y297296D01*
X168473Y297755D01*
X168932Y298442D01*
X169093Y299252D01*
Y305748D01*
X169300Y306000D01*
X254000D01*
X266000Y294000D01*
D02*
G37*
G36*
X82239Y179954D02*
Y179533D01*
X82570Y178734D01*
X83182Y178122D01*
X83981Y177791D01*
X84847D01*
X85646Y178122D01*
X86258Y178734D01*
X86303Y178844D01*
X118823D01*
X119453Y178214D01*
Y177767D01*
X119725Y177112D01*
X120226Y176611D01*
X120292Y176584D01*
Y171879D01*
X118707Y170293D01*
X118464Y169929D01*
X118378Y169500D01*
X118378Y169500D01*
Y141465D01*
X116695Y139781D01*
X116146D01*
X115491Y139510D01*
X114990Y139009D01*
X114719Y138354D01*
Y137646D01*
X114990Y136991D01*
X115491Y136490D01*
X116146Y136219D01*
X116854D01*
X117509Y136490D01*
X118010Y136991D01*
X118281Y137646D01*
Y138195D01*
X119582Y139496D01*
X121082Y138875D01*
Y123969D01*
X120871Y123757D01*
X120506D01*
X119996Y123546D01*
X119606Y123156D01*
X119394Y122646D01*
Y122094D01*
X119606Y121584D01*
X119996Y121194D01*
X120506Y120983D01*
X121058D01*
X121568Y121194D01*
X121958Y121584D01*
X122169Y122094D01*
Y122460D01*
X122649Y122940D01*
X122848Y123237D01*
X122918Y123588D01*
Y143562D01*
X124418Y144370D01*
X124512Y144308D01*
X124582Y144143D01*
Y115122D01*
D01*
Y59500D01*
X124652Y59149D01*
X124851Y58851D01*
X139351Y44351D01*
X139649Y44152D01*
X140000Y44082D01*
X247500D01*
X247851Y44152D01*
X248149Y44351D01*
X256649Y52851D01*
X256848Y53149D01*
X256918Y53500D01*
Y126500D01*
X262500D01*
X266500Y122500D01*
Y35500D01*
X258000Y27000D01*
X99000D01*
X95000Y31000D01*
Y46000D01*
X94149D01*
Y70000D01*
X93959Y70459D01*
X93500Y70649D01*
X83500D01*
X83041Y70459D01*
X82851Y70000D01*
Y46000D01*
Y45000D01*
X83000Y44639D01*
Y31000D01*
X79000Y27000D01*
X45500D01*
X38000Y34500D01*
X38000Y70680D01*
X38000Y70680D01*
Y153733D01*
X39386Y154307D01*
X52931Y140761D01*
Y140162D01*
X53106Y139509D01*
X53445Y138923D01*
X53923Y138445D01*
X54509Y138107D01*
X55162Y137932D01*
X55838D01*
X56491Y138107D01*
X57077Y138445D01*
X57555Y138923D01*
X57894Y139509D01*
X58069Y140162D01*
Y140838D01*
X57894Y141491D01*
X57555Y142077D01*
X57077Y142555D01*
X56491Y142894D01*
X55838Y143069D01*
X55239D01*
X40631Y157676D01*
Y181110D01*
X45390Y185869D01*
X57056D01*
X57268Y185656D01*
X58067Y185325D01*
X58933D01*
X59732Y185656D01*
X59944Y185869D01*
X76324D01*
X82239Y179954D01*
D02*
G37*
G36*
X229587Y125114D02*
X221304Y116830D01*
X219918Y117404D01*
Y126500D01*
X229013D01*
X229587Y125114D01*
D02*
G37*
G36*
X138366Y192640D02*
Y118451D01*
X138435Y118100D01*
X138635Y117803D01*
X141286Y115151D01*
X141584Y114952D01*
X141935Y114882D01*
X157882D01*
X164882Y107882D01*
Y102700D01*
X164952Y102349D01*
X165151Y102051D01*
X170351Y96851D01*
X170649Y96652D01*
X171000Y96582D01*
X203271D01*
X203622Y96652D01*
X203920Y96851D01*
X233569Y126500D01*
X255082D01*
Y53880D01*
X247120Y45918D01*
X140380D01*
X140298Y46000D01*
X126418Y59880D01*
Y118516D01*
Y145456D01*
X126676Y145714D01*
X126887Y146224D01*
Y146776D01*
X126676Y147286D01*
X126286Y147676D01*
X125776Y147887D01*
X125224D01*
X124714Y147676D01*
X124418Y147380D01*
X123965Y147420D01*
X122918Y147811D01*
Y161186D01*
X123651Y162506D01*
X124203D01*
X124713Y162717D01*
X124899Y162903D01*
X125127Y162857D01*
X125517Y162467D01*
X126027Y162256D01*
X126579D01*
X127089Y162467D01*
X128582Y161900D01*
Y118301D01*
Y69971D01*
X128652Y69620D01*
X128851Y69322D01*
X143606Y54568D01*
X143903Y54369D01*
X144255Y54299D01*
X233194D01*
X233324Y53985D01*
X233714Y53595D01*
X234224Y53384D01*
X234776D01*
X235286Y53595D01*
X235676Y53985D01*
X235887Y54495D01*
Y55047D01*
X235676Y55557D01*
X235375Y55858D01*
X235676Y56160D01*
X235887Y56670D01*
Y57222D01*
X235676Y57732D01*
X235286Y58122D01*
X234776Y58333D01*
X234224D01*
X233714Y58122D01*
X233324Y57732D01*
X233194Y57418D01*
X145166D01*
X131701Y70883D01*
Y124201D01*
D01*
Y190032D01*
X131631Y190383D01*
X131432Y190680D01*
X128403Y193710D01*
X128105Y193909D01*
X127754Y193978D01*
X123440D01*
X123316Y194277D01*
X122926Y194668D01*
X122416Y194879D01*
X121864D01*
X121354Y194668D01*
X120964Y194277D01*
X120752Y193767D01*
Y193216D01*
X120964Y192706D01*
X121265Y192404D01*
X120964Y192103D01*
X120752Y191593D01*
Y191041D01*
X120964Y190531D01*
X121354Y190140D01*
X121864Y189929D01*
X122416D01*
X122926Y190140D01*
X123316Y190531D01*
X123468Y190898D01*
X126804D01*
X128582Y189120D01*
Y181250D01*
X127822Y181007D01*
X127082Y181001D01*
X127011Y181108D01*
X118908Y189211D01*
Y201370D01*
X119402Y201700D01*
X119954D01*
X120464Y201911D01*
X120722Y202170D01*
X128835D01*
X138366Y192640D01*
D02*
G37*
%LPC*%
G36*
X166976Y291802D02*
X164024D01*
X163214Y291641D01*
X162527Y291182D01*
X162155Y290626D01*
X161923Y290442D01*
X160450Y289904D01*
X160244Y289990D01*
X159457D01*
X158730Y289689D01*
X158174Y289132D01*
X157872Y288405D01*
Y287618D01*
X158174Y286891D01*
X158730Y286335D01*
X159457Y286034D01*
X160244D01*
X160407Y286101D01*
X161773Y285381D01*
X161907Y285223D01*
Y282402D01*
X162068Y281591D01*
X162527Y280905D01*
X163214Y280446D01*
X164024Y280285D01*
X166976D01*
X167787Y280446D01*
X168473Y280905D01*
X168932Y281591D01*
X169093Y282402D01*
Y289685D01*
X168932Y290495D01*
X168473Y291182D01*
X167787Y291641D01*
X166976Y291802D01*
D02*
G37*
G36*
X247701Y296824D02*
X246299D01*
X244945Y296462D01*
X243731Y295761D01*
X242739Y294769D01*
X242038Y293555D01*
X241676Y292201D01*
Y290799D01*
X242038Y289445D01*
X242739Y288231D01*
X243731Y287239D01*
X244945Y286538D01*
X246299Y286176D01*
X247701D01*
X249055Y286538D01*
X250269Y287239D01*
X251261Y288231D01*
X251962Y289445D01*
X252324Y290799D01*
Y292201D01*
X251962Y293555D01*
X251261Y294769D01*
X250269Y295761D01*
X249055Y296462D01*
X247701Y296824D01*
D02*
G37*
G36*
X132921Y291802D02*
X129969D01*
X129158Y291641D01*
X128472Y291182D01*
X128013Y290495D01*
X127851Y289685D01*
Y282402D01*
X128013Y281591D01*
X128472Y280905D01*
X129158Y280446D01*
X129969Y280285D01*
X132921D01*
X133731Y280446D01*
X134418Y280905D01*
X134877Y281591D01*
X135038Y282402D01*
Y285223D01*
X135172Y285381D01*
X136538Y286101D01*
X136701Y286034D01*
X137488D01*
X138215Y286335D01*
X138771Y286891D01*
X139072Y287618D01*
Y288405D01*
X138771Y289132D01*
X138215Y289689D01*
X137488Y289990D01*
X136701D01*
X136495Y289904D01*
X135021Y290442D01*
X134790Y290626D01*
X134418Y291182D01*
X133731Y291641D01*
X132921Y291802D01*
D02*
G37*
G36*
X98468Y262053D02*
X97532D01*
X96629Y261811D01*
X95819Y261343D01*
X95157Y260681D01*
X94689Y259871D01*
X94447Y258968D01*
Y258032D01*
X94689Y257129D01*
X95157Y256319D01*
X95819Y255657D01*
X96629Y255189D01*
X97532Y254947D01*
X98468D01*
X99371Y255189D01*
X100181Y255657D01*
X100843Y256319D01*
X101311Y257129D01*
X101553Y258032D01*
Y258968D01*
X101311Y259871D01*
X100843Y260681D01*
X100181Y261343D01*
X99371Y261811D01*
X98468Y262053D01*
D02*
G37*
G36*
X88468D02*
X87532D01*
X86629Y261811D01*
X85819Y261343D01*
X85157Y260681D01*
X84689Y259871D01*
X84447Y258968D01*
Y258032D01*
X84689Y257129D01*
X85157Y256319D01*
X85819Y255657D01*
X86629Y255189D01*
X87532Y254947D01*
X88468D01*
X89371Y255189D01*
X90181Y255657D01*
X90843Y256319D01*
X91311Y257129D01*
X91553Y258032D01*
Y258968D01*
X91311Y259871D01*
X90843Y260681D01*
X90181Y261343D01*
X89371Y261811D01*
X88468Y262053D01*
D02*
G37*
G36*
X68468D02*
X67532D01*
X66629Y261811D01*
X65819Y261343D01*
X65157Y260681D01*
X64689Y259871D01*
X64447Y258968D01*
Y258032D01*
X64689Y257129D01*
X65157Y256319D01*
X65819Y255657D01*
X66629Y255189D01*
X67532Y254947D01*
X68468D01*
X69371Y255189D01*
X70181Y255657D01*
X70843Y256319D01*
X71311Y257129D01*
X71553Y258032D01*
Y258968D01*
X71311Y259871D01*
X70843Y260681D01*
X70181Y261343D01*
X69371Y261811D01*
X68468Y262053D01*
D02*
G37*
G36*
X162000Y277149D02*
X137500D01*
X137041Y276959D01*
X135041Y274959D01*
X134851Y274500D01*
Y269000D01*
X135041Y268541D01*
X135541Y268041D01*
X136000Y267851D01*
X148221D01*
X148519Y266351D01*
X148433Y266315D01*
X147303Y265560D01*
X146342Y264599D01*
X145587Y263469D01*
X145067Y262213D01*
X144802Y260880D01*
Y259521D01*
X145067Y258188D01*
X145587Y256933D01*
X146342Y255803D01*
X147303Y254842D01*
X148433Y254087D01*
X149688Y253567D01*
X151021Y253302D01*
X152380D01*
X153713Y253567D01*
X154969Y254087D01*
X156099Y254842D01*
X157060Y255803D01*
X157815Y256933D01*
X158335Y258188D01*
X158600Y259521D01*
Y260880D01*
X158335Y262213D01*
X157815Y263469D01*
X157060Y264599D01*
X156099Y265560D01*
X154969Y266315D01*
X154882Y266351D01*
X155181Y267851D01*
X162500D01*
X162959Y268041D01*
X164959Y270041D01*
X165149Y270500D01*
Y274000D01*
X164959Y274459D01*
X162459Y276959D01*
X162000Y277149D01*
D02*
G37*
G36*
X230441Y270801D02*
X228783Y270671D01*
X227165Y270282D01*
X225628Y269646D01*
X224210Y268777D01*
X222945Y267696D01*
X221865Y266432D01*
X220996Y265013D01*
X220359Y263476D01*
X219971Y261859D01*
X219841Y260201D01*
X219866Y259871D01*
X219971Y258542D01*
X220359Y256925D01*
X220996Y255388D01*
X221865Y253970D01*
X222945Y252705D01*
X224210Y251625D01*
X225628Y250756D01*
X227165Y250119D01*
X228783Y249731D01*
X230441Y249600D01*
X232099Y249731D01*
X233717Y250119D01*
X235253Y250756D01*
X236672Y251625D01*
X237937Y252705D01*
X239017Y253970D01*
X239886Y255388D01*
X240523Y256925D01*
X240911Y258542D01*
X241041Y260201D01*
X240911Y261859D01*
X240523Y263476D01*
X239886Y265013D01*
X239017Y266432D01*
X237937Y267696D01*
X236672Y268777D01*
X235253Y269646D01*
X233717Y270282D01*
X232099Y270671D01*
X230441Y270801D01*
D02*
G37*
G36*
X163389Y260387D02*
X162837D01*
X162327Y260176D01*
X161936Y259786D01*
X161725Y259276D01*
Y258724D01*
X161936Y258214D01*
X162327Y257824D01*
X162837Y257613D01*
X163202D01*
X167582Y253233D01*
Y251495D01*
X167324Y251236D01*
X167113Y250726D01*
Y250174D01*
X167324Y249664D01*
X167714Y249274D01*
X168224Y249063D01*
X168776D01*
X169286Y249274D01*
X169676Y249664D01*
X169887Y250174D01*
Y250726D01*
X169676Y251236D01*
X169418Y251495D01*
Y253613D01*
X169348Y253964D01*
X169149Y254261D01*
X164500Y258910D01*
Y259276D01*
X164289Y259786D01*
X163899Y260176D01*
X163389Y260387D01*
D02*
G37*
G36*
X240354Y239281D02*
X239646D01*
X238991Y239010D01*
X238490Y238509D01*
X238219Y237854D01*
Y237305D01*
X230035Y229121D01*
X200397D01*
X200009Y229510D01*
X199354Y229781D01*
X198646D01*
X197991Y229510D01*
X197490Y229009D01*
X197219Y228354D01*
Y227646D01*
X197490Y226991D01*
X197991Y226490D01*
X198646Y226219D01*
X199354D01*
X200009Y226490D01*
X200397Y226878D01*
X230500D01*
X230500Y226878D01*
X230929Y226964D01*
X231293Y227207D01*
X239805Y235719D01*
X240354D01*
X241009Y235990D01*
X241510Y236491D01*
X241781Y237146D01*
Y237854D01*
X241510Y238509D01*
X241009Y239010D01*
X240354Y239281D01*
D02*
G37*
G36*
X252553Y229553D02*
X245447D01*
Y222447D01*
X252553D01*
Y229553D01*
D02*
G37*
G36*
X106468Y228053D02*
X105532D01*
X104629Y227811D01*
X103819Y227343D01*
X103157Y226681D01*
X102689Y225871D01*
X102447Y224968D01*
Y224032D01*
X102689Y223129D01*
X103157Y222319D01*
X103819Y221657D01*
X104629Y221189D01*
X105532Y220947D01*
X106468D01*
X107371Y221189D01*
X108181Y221657D01*
X108843Y222319D01*
X109311Y223129D01*
X109553Y224032D01*
Y224968D01*
X109311Y225871D01*
X108843Y226681D01*
X108181Y227343D01*
X107371Y227811D01*
X106468Y228053D01*
D02*
G37*
G36*
X96468D02*
X95532D01*
X94629Y227811D01*
X93819Y227343D01*
X93157Y226681D01*
X92689Y225871D01*
X92447Y224968D01*
Y224032D01*
X92689Y223129D01*
X93157Y222319D01*
X93819Y221657D01*
X94629Y221189D01*
X95532Y220947D01*
X96468D01*
X97371Y221189D01*
X98181Y221657D01*
X98843Y222319D01*
X99311Y223129D01*
X99553Y224032D01*
Y224968D01*
X99311Y225871D01*
X98843Y226681D01*
X98181Y227343D01*
X97371Y227811D01*
X96468Y228053D01*
D02*
G37*
G36*
X86468D02*
X85532D01*
X84629Y227811D01*
X83819Y227343D01*
X83157Y226681D01*
X82689Y225871D01*
X82447Y224968D01*
Y224032D01*
X82689Y223129D01*
X83157Y222319D01*
X83819Y221657D01*
X84629Y221189D01*
X85532Y220947D01*
X86468D01*
X87371Y221189D01*
X88181Y221657D01*
X88843Y222319D01*
X89311Y223129D01*
X89553Y224032D01*
Y224968D01*
X89311Y225871D01*
X88843Y226681D01*
X88181Y227343D01*
X87371Y227811D01*
X86468Y228053D01*
D02*
G37*
G36*
X76468D02*
X75532D01*
X74629Y227811D01*
X73819Y227343D01*
X73157Y226681D01*
X72689Y225871D01*
X72447Y224968D01*
Y224032D01*
X72689Y223129D01*
X73157Y222319D01*
X73819Y221657D01*
X74629Y221189D01*
X75532Y220947D01*
X76468D01*
X77371Y221189D01*
X78181Y221657D01*
X78843Y222319D01*
X79311Y223129D01*
X79553Y224032D01*
Y224968D01*
X79311Y225871D01*
X78843Y226681D01*
X78181Y227343D01*
X77371Y227811D01*
X76468Y228053D01*
D02*
G37*
G36*
X249468Y219553D02*
X248532D01*
X247629Y219311D01*
X246819Y218843D01*
X246157Y218181D01*
X245689Y217371D01*
X245447Y216468D01*
Y215532D01*
X245689Y214629D01*
X246157Y213819D01*
X246819Y213157D01*
X247629Y212689D01*
X248532Y212447D01*
X249468D01*
X250371Y212689D01*
X251181Y213157D01*
X251843Y213819D01*
X252311Y214629D01*
X252553Y215532D01*
Y216468D01*
X252311Y217371D01*
X251843Y218181D01*
X251181Y218843D01*
X250371Y219311D01*
X249468Y219553D01*
D02*
G37*
G36*
X182276Y239887D02*
X181724D01*
X181214Y239676D01*
X180824Y239286D01*
X180613Y238776D01*
Y238224D01*
X180824Y237714D01*
X181082Y237456D01*
Y231380D01*
X179620Y229918D01*
X151500D01*
X151149Y229848D01*
X150851Y229649D01*
X137954Y216752D01*
X137755Y216454D01*
X137685Y216103D01*
Y213411D01*
X137427Y213153D01*
X137215Y212643D01*
Y212091D01*
X137427Y211581D01*
X137817Y211191D01*
X138327Y210979D01*
X138879D01*
X139389Y211191D01*
X139779Y211581D01*
X139990Y212091D01*
Y212643D01*
X139779Y213153D01*
X139520Y213411D01*
Y215723D01*
X151880Y228082D01*
X180000D01*
X180351Y228152D01*
X180649Y228351D01*
X182649Y230351D01*
X182848Y230649D01*
X182918Y231000D01*
Y237456D01*
X183176Y237714D01*
X183387Y238224D01*
Y238776D01*
X183176Y239286D01*
X182786Y239676D01*
X182276Y239887D01*
D02*
G37*
G36*
X249468Y168053D02*
X248532D01*
X247629Y167811D01*
X246819Y167343D01*
X246157Y166681D01*
X245689Y165871D01*
X245447Y164968D01*
Y164032D01*
X245689Y163129D01*
X246157Y162319D01*
X246819Y161657D01*
X247629Y161189D01*
X248532Y160947D01*
X249468D01*
X250371Y161189D01*
X251181Y161657D01*
X251843Y162319D01*
X252311Y163129D01*
X252553Y164032D01*
Y164968D01*
X252311Y165871D01*
X251843Y166681D01*
X251181Y167343D01*
X250371Y167811D01*
X249468Y168053D01*
D02*
G37*
%LPD*%
G36*
X164500Y274000D02*
Y270500D01*
X162500Y268500D01*
X136000D01*
X135500Y269000D01*
Y274500D01*
X137500Y276500D01*
X162000D01*
X164500Y274000D01*
D02*
G37*
%LPC*%
G36*
X103276Y146887D02*
X102724D01*
X102214Y146676D01*
X101824Y146286D01*
X101613Y145776D01*
Y145224D01*
X101824Y144714D01*
X101998Y144539D01*
Y130280D01*
X101972Y130254D01*
X101774Y129956D01*
X101704Y129605D01*
Y128957D01*
X101445Y128699D01*
X101234Y128189D01*
Y127637D01*
X101445Y127127D01*
X101835Y126736D01*
X102345Y126525D01*
X102897D01*
X103407Y126736D01*
X103797Y127127D01*
X104009Y127637D01*
Y128189D01*
X103797Y128699D01*
X103539Y128957D01*
Y129225D01*
X103565Y129251D01*
X103764Y129549D01*
X103834Y129900D01*
Y144372D01*
X104176Y144714D01*
X104387Y145224D01*
Y145776D01*
X104176Y146286D01*
X103786Y146676D01*
X103276Y146887D01*
D02*
G37*
G36*
X91276Y100887D02*
X90724D01*
X90214Y100676D01*
X89824Y100286D01*
X89613Y99776D01*
Y99410D01*
X62351Y72149D01*
X62152Y71851D01*
X62082Y71500D01*
Y61044D01*
X61824Y60786D01*
X61613Y60276D01*
Y59724D01*
X61824Y59214D01*
X62214Y58824D01*
X62724Y58613D01*
X63276D01*
X63786Y58824D01*
X64176Y59214D01*
X64387Y59724D01*
Y60276D01*
X64176Y60786D01*
X63918Y61044D01*
Y69961D01*
D01*
Y71120D01*
X90910Y98113D01*
X91276D01*
X91786Y98324D01*
X92176Y98714D01*
X92387Y99224D01*
Y99776D01*
X92176Y100286D01*
X91786Y100676D01*
X91276Y100887D01*
D02*
G37*
G36*
X230441Y113321D02*
X228783Y113190D01*
X227165Y112802D01*
X225628Y112165D01*
X224210Y111296D01*
X222945Y110216D01*
X221865Y108951D01*
X220996Y107533D01*
X220359Y105996D01*
X219971Y104379D01*
X219841Y102720D01*
X219971Y101062D01*
X220359Y99445D01*
X220996Y97908D01*
X221865Y96490D01*
X222945Y95225D01*
X224210Y94144D01*
X225628Y93275D01*
X227165Y92639D01*
X228783Y92251D01*
X230441Y92120D01*
X232099Y92251D01*
X233717Y92639D01*
X235253Y93275D01*
X236672Y94144D01*
X237937Y95225D01*
X239017Y96490D01*
X239886Y97908D01*
X240523Y99445D01*
X240911Y101062D01*
X241041Y102720D01*
X240911Y104379D01*
X240523Y105996D01*
X239886Y107533D01*
X239017Y108951D01*
X237937Y110216D01*
X236672Y111296D01*
X235253Y112165D01*
X233717Y112802D01*
X232099Y113190D01*
X230441Y113321D01*
D02*
G37*
G36*
X151701D02*
X150042Y113190D01*
X148425Y112802D01*
X146888Y112165D01*
X145470Y111296D01*
X144205Y110216D01*
X143125Y108951D01*
X142256Y107533D01*
X141619Y105996D01*
X141231Y104379D01*
X141100Y102720D01*
X141231Y101062D01*
X141619Y99445D01*
X142256Y97908D01*
X143125Y96490D01*
X144205Y95225D01*
X145470Y94144D01*
X146888Y93275D01*
X148425Y92639D01*
X150042Y92251D01*
X151701Y92120D01*
X153359Y92251D01*
X154976Y92639D01*
X156513Y93275D01*
X157932Y94144D01*
X159196Y95225D01*
X160277Y96490D01*
X161146Y97908D01*
X161782Y99445D01*
X162171Y101062D01*
X162301Y102720D01*
X162171Y104379D01*
X161782Y105996D01*
X161146Y107533D01*
X160277Y108951D01*
X159196Y110216D01*
X157932Y111296D01*
X156513Y112165D01*
X154976Y112802D01*
X153359Y113190D01*
X151701Y113321D01*
D02*
G37*
%LPD*%
D13*
X119500Y169500D02*
X121414Y171414D01*
X121234Y178121D02*
X121414Y177942D01*
Y171414D02*
Y177942D01*
X119288Y179966D02*
X121132Y178121D01*
X121234D01*
X84414Y179966D02*
X119288D01*
X230500Y228000D02*
X240000Y237500D01*
X199000Y228000D02*
X230500D01*
X119500Y141000D02*
Y169500D01*
X116500Y138000D02*
X119500Y141000D01*
D76*
X131445Y302500D02*
D03*
X165500D02*
D03*
D81*
X78000Y257524D02*
Y258500D01*
X58000Y237524D02*
X78000Y257524D01*
X58000Y237000D02*
Y237524D01*
X39000Y181786D02*
X44714Y187500D01*
X39000Y181786D02*
Y218000D01*
Y157000D02*
Y181786D01*
X44714Y187500D02*
X58500D01*
X77000D01*
X39000Y218000D02*
X58000Y237000D01*
X39000Y157000D02*
X55500Y140500D01*
X77000Y187500D02*
X84414Y180086D01*
Y179966D02*
Y180086D01*
D82*
X120782Y122370D02*
X122000Y123588D01*
Y165500D02*
X123962Y167462D01*
X122000Y123588D02*
Y165500D01*
X117338Y185931D02*
X123962Y179307D01*
X107294Y185931D02*
X117338D01*
X130783Y70503D02*
X144786Y56500D01*
X127754Y193061D02*
X130783Y190032D01*
Y70503D02*
Y190032D01*
X127184Y191816D02*
X129500Y189500D01*
Y69971D02*
Y189500D01*
Y69971D02*
X144255Y55217D01*
X125500Y59500D02*
Y146500D01*
X140000Y45000D02*
X247500D01*
X125500Y59500D02*
X140000Y45000D01*
X247500D02*
X256000Y53500D01*
X249000Y154500D02*
X256000Y147500D01*
Y53500D02*
Y147500D01*
X144255Y55217D02*
X234054D01*
X144786Y56500D02*
X234054D01*
X163113Y259000D02*
X168500Y253613D01*
Y250450D02*
Y253613D01*
X138603Y212367D02*
Y216103D01*
X151500Y229000D01*
X180000D02*
X182000Y231000D01*
Y238500D01*
X151500Y229000D02*
X180000D01*
X126362Y163702D02*
Y180459D01*
X126303Y163643D02*
X126362Y163702D01*
X123927Y163893D02*
X125162Y165128D01*
X123962Y167462D02*
Y179307D01*
X102916Y129900D02*
Y145416D01*
X102621Y127913D02*
Y129605D01*
X102916Y129900D01*
Y145416D02*
X103000Y145500D01*
X116790Y213508D02*
X122800Y219517D01*
X116790Y188176D02*
Y213508D01*
X119678Y205683D02*
X128317D01*
X117990Y188831D02*
X126362Y180459D01*
X117990Y188831D02*
Y213011D01*
X119678Y203087D02*
X129216D01*
X117990Y213011D02*
X124000Y219020D01*
X116790Y188176D02*
X125162Y179804D01*
X124000Y219020D02*
Y242000D01*
X122800Y219517D02*
Y241503D01*
X117500Y248500D02*
X124000Y242000D01*
X125162Y165128D02*
Y179804D01*
X100722Y210815D02*
X104000Y207537D01*
Y203731D02*
Y207537D01*
X102500Y203508D02*
Y205488D01*
X98500Y209488D02*
X102500Y205488D01*
Y203508D02*
X109713Y196295D01*
X104000Y203731D02*
X111428Y196303D01*
X112000Y270000D02*
Y271500D01*
X110000Y273500D02*
X112000Y271500D01*
X109500Y270803D02*
Y271000D01*
Y270803D02*
X116300Y264003D01*
X112000Y270000D02*
X117500Y264500D01*
Y248500D02*
Y264500D01*
X98000Y258500D02*
X98553Y259053D01*
X116300Y248003D02*
Y264003D01*
X120902Y243402D02*
Y243402D01*
X116300Y248003D02*
X120902Y243402D01*
Y243402D02*
X122800Y241503D01*
X111428Y187897D02*
Y196303D01*
X109713Y189540D02*
Y196295D01*
X122140Y193491D02*
X122404D01*
X122834Y193061D01*
X127754D01*
X122902Y191816D02*
X127184D01*
X122404Y191317D02*
X122902Y191816D01*
X122140Y191317D02*
X122404D01*
X129216Y203087D02*
X139283Y193020D01*
X128317Y205683D02*
X140483Y193517D01*
X96000Y224233D02*
Y224500D01*
X234054Y56500D02*
X234500Y56946D01*
X234054Y55217D02*
X234500Y54771D01*
X203074Y99000D02*
X219000Y114926D01*
X171500Y99000D02*
X203074D01*
X219000Y114926D02*
Y155000D01*
X171000Y97500D02*
X203271D01*
X249000Y143229D01*
Y144500D01*
X139283Y118451D02*
Y193020D01*
Y118451D02*
X141935Y115800D01*
X140483Y118948D02*
X142432Y117000D01*
X140483Y118948D02*
Y193517D01*
X142432Y117000D02*
X158759D01*
X141935Y115800D02*
X158262D01*
X165800Y102700D02*
X171000Y97500D01*
X167000Y103500D02*
X171500Y99000D01*
X167000Y103500D02*
Y108759D01*
X165800Y102700D02*
Y108262D01*
X158262Y115800D02*
X165800Y108262D01*
X158759Y117000D02*
X167000Y108759D01*
X165512Y123488D02*
X173500Y115500D01*
X150012Y123488D02*
X165512D01*
X148000Y125500D02*
Y188549D01*
Y125500D02*
X150012Y123488D01*
X148000Y188549D02*
X168971Y209520D01*
X63000Y71500D02*
X91000Y99500D01*
X63000Y60000D02*
Y71500D01*
D84*
X68000Y258500D02*
D03*
X78000D02*
D03*
X88000D02*
D03*
X98000D02*
D03*
X106000Y224500D02*
D03*
X96000D02*
D03*
X86000D02*
D03*
X76000D02*
D03*
X249000Y144500D02*
D03*
Y154500D02*
D03*
Y164500D02*
D03*
Y216000D02*
D03*
D85*
X108000Y258500D02*
D03*
X116000Y224500D02*
D03*
D86*
X247000Y291500D02*
D03*
D87*
X227315D02*
D03*
D88*
X249000Y174500D02*
D03*
Y226000D02*
D03*
D89*
X164500Y116500D02*
D03*
X169500Y107000D02*
D03*
X196500Y105500D02*
D03*
X191000D02*
D03*
X186500D02*
D03*
X181500Y101500D02*
D03*
Y105500D02*
D03*
X174500Y101500D02*
D03*
Y105000D02*
D03*
X76047Y76420D02*
D03*
X80444Y71560D02*
D03*
X101996Y109759D02*
D03*
X96981Y127934D02*
D03*
X145917Y227904D02*
D03*
X154022Y224462D02*
D03*
X153997Y233646D02*
D03*
X145904Y233570D02*
D03*
X172662Y239583D02*
D03*
X175554Y248590D02*
D03*
X182308Y249095D02*
D03*
X160081Y261962D02*
D03*
X157325Y266009D02*
D03*
X146347Y266440D02*
D03*
X136875Y259336D02*
D03*
X142472Y261532D02*
D03*
X173320Y275890D02*
D03*
X173131Y279446D02*
D03*
X168819Y279274D02*
D03*
X168699Y275787D02*
D03*
X163494Y279205D02*
D03*
X132037Y278843D02*
D03*
X133404Y272679D02*
D03*
X126840Y274362D02*
D03*
X129912Y273037D02*
D03*
X128944Y259286D02*
D03*
X129611Y262232D02*
D03*
X126862Y262310D02*
D03*
X153674Y287207D02*
D03*
X147565Y289431D02*
D03*
X142233Y287454D02*
D03*
X139031Y272179D02*
D03*
X138850Y269524D02*
D03*
X136931Y273656D02*
D03*
X136602Y270564D02*
D03*
X138893Y275131D02*
D03*
X161254Y275401D02*
D03*
X161116Y272992D02*
D03*
X161047Y270009D02*
D03*
X158271Y271661D02*
D03*
X158340Y274896D02*
D03*
X77945Y152160D02*
D03*
X88189Y189412D02*
D03*
X115042Y172266D02*
D03*
X134642Y153283D02*
D03*
X116070Y143680D02*
D03*
X119901Y137476D02*
D03*
X109500Y135500D02*
D03*
X100500Y137000D02*
D03*
X99000Y145000D02*
D03*
X95500D02*
D03*
X80617Y38155D02*
D03*
X74500Y42500D02*
D03*
X80500D02*
D03*
X255000Y241000D02*
D03*
Y249000D02*
D03*
Y257000D02*
D03*
Y265000D02*
D03*
X242500Y195500D02*
D03*
Y189500D02*
D03*
Y183500D02*
D03*
X248500Y195500D02*
D03*
Y189500D02*
D03*
Y183500D02*
D03*
X171500Y196000D02*
D03*
X182000Y195000D02*
D03*
Y199000D02*
D03*
X146000Y141500D02*
D03*
Y147500D02*
D03*
Y153500D02*
D03*
Y159500D02*
D03*
Y165500D02*
D03*
Y171500D02*
D03*
Y177500D02*
D03*
X136333Y158359D02*
D03*
X136550Y177687D02*
D03*
Y183686D02*
D03*
X136333Y164359D02*
D03*
X158964Y83123D02*
D03*
X152963D02*
D03*
X146964D02*
D03*
X140963D02*
D03*
X158964Y89123D02*
D03*
X152963D02*
D03*
X146964D02*
D03*
X140963D02*
D03*
X134964D02*
D03*
Y95123D02*
D03*
Y101123D02*
D03*
Y107123D02*
D03*
X135000Y113000D02*
D03*
X123000Y95500D02*
D03*
Y102500D02*
D03*
X123226Y113290D02*
D03*
X123448Y118852D02*
D03*
X253000Y138000D02*
D03*
Y70500D02*
D03*
Y82500D02*
D03*
Y94500D02*
D03*
Y106500D02*
D03*
Y118500D02*
D03*
X223000Y41500D02*
D03*
X215000D02*
D03*
X207000D02*
D03*
X199000D02*
D03*
X191000D02*
D03*
X183000D02*
D03*
X175000D02*
D03*
X167000D02*
D03*
X159000D02*
D03*
X151000D02*
D03*
X143439Y41648D02*
D03*
X109729Y214114D02*
D03*
X110647Y200718D02*
D03*
X114745Y189157D02*
D03*
X122391Y198516D02*
D03*
X122413Y188061D02*
D03*
X125866Y189097D02*
D03*
X125417Y185886D02*
D03*
X127500Y160500D02*
D03*
Y133000D02*
D03*
Y128000D02*
D03*
Y120500D02*
D03*
Y115500D02*
D03*
Y108000D02*
D03*
Y100500D02*
D03*
X127529Y92341D02*
D03*
X133500Y74500D02*
D03*
X139500Y69500D02*
D03*
X144000Y64000D02*
D03*
X150000Y60000D02*
D03*
X159000Y59500D02*
D03*
X170000D02*
D03*
X181000D02*
D03*
X191500D02*
D03*
X202000D02*
D03*
X213500D02*
D03*
X210000Y50000D02*
D03*
X195000D02*
D03*
X177500Y49500D02*
D03*
X164500Y50500D02*
D03*
X151000Y50000D02*
D03*
X140000Y52000D02*
D03*
X134500Y58000D02*
D03*
X130000Y63000D02*
D03*
X116500Y159000D02*
D03*
Y155000D02*
D03*
X115500Y150000D02*
D03*
X114500Y147500D02*
D03*
X108360Y144530D02*
D03*
X83843Y146315D02*
D03*
X81253Y149192D02*
D03*
X79000Y158000D02*
D03*
X95434Y210222D02*
D03*
X83500Y199000D02*
D03*
X75000Y200500D02*
D03*
X68500D02*
D03*
X58000Y227000D02*
D03*
X49000Y213500D02*
D03*
X60000Y214500D02*
D03*
X70000Y215000D02*
D03*
X77000Y214500D02*
D03*
X113000Y242500D02*
D03*
X108000D02*
D03*
X103000D02*
D03*
X98000D02*
D03*
X93000D02*
D03*
X207500Y235500D02*
D03*
X211000Y233000D02*
D03*
X194500Y222000D02*
D03*
X202500D02*
D03*
X210500D02*
D03*
X239000Y216000D02*
D03*
X234000Y221500D02*
D03*
Y210500D02*
D03*
X218000Y174500D02*
D03*
X217500Y161500D02*
D03*
X211500Y168000D02*
D03*
X226000Y169000D02*
D03*
X205500Y157500D02*
D03*
Y145500D02*
D03*
X205000Y137500D02*
D03*
X249500Y137000D02*
D03*
X237000Y141500D02*
D03*
X232253Y136971D02*
D03*
X243500Y124000D02*
D03*
X236500D02*
D03*
X222500Y124500D02*
D03*
X213000Y124000D02*
D03*
X208000D02*
D03*
X203000D02*
D03*
X249500Y53000D02*
D03*
X250000Y71500D02*
D03*
X240500Y67000D02*
D03*
Y40500D02*
D03*
X226000Y50000D02*
D03*
X230000D02*
D03*
X226500Y60000D02*
D03*
X230974Y60116D02*
D03*
X145000Y113000D02*
D03*
X139000D02*
D03*
X135000Y119000D02*
D03*
X144500Y121000D02*
D03*
X135000Y125000D02*
D03*
X133500Y44500D02*
D03*
X127500D02*
D03*
X121500D02*
D03*
X127500Y50500D02*
D03*
X121500D02*
D03*
X81500Y96500D02*
D03*
X75500D02*
D03*
X69500D02*
D03*
X81500Y102500D02*
D03*
X75500D02*
D03*
X69500D02*
D03*
X113500Y125000D02*
D03*
X107000D02*
D03*
X81500Y114500D02*
D03*
X75500D02*
D03*
X69500D02*
D03*
X81500Y120500D02*
D03*
X75500D02*
D03*
X69500D02*
D03*
X81500Y126500D02*
D03*
X75500D02*
D03*
X69500D02*
D03*
X55796Y184885D02*
D03*
X62329Y191652D02*
D03*
X56737Y192325D02*
D03*
X61811Y183990D02*
D03*
X63977Y181287D02*
D03*
X64511Y170528D02*
D03*
X64019Y175765D02*
D03*
X70253Y170170D02*
D03*
X78698Y169689D02*
D03*
X75181Y161997D02*
D03*
X59738Y160394D02*
D03*
X52408Y160804D02*
D03*
X48777Y182975D02*
D03*
X51022Y191593D02*
D03*
X45983Y161676D02*
D03*
X46102Y168390D02*
D03*
X46043Y175580D02*
D03*
X67730Y182947D02*
D03*
X67908Y177897D02*
D03*
X109949Y208081D02*
D03*
X113874Y198986D02*
D03*
X99392Y192761D02*
D03*
X105448Y189242D02*
D03*
X101512Y183719D02*
D03*
X111401Y176542D02*
D03*
X129238Y197959D02*
D03*
X129415Y208904D02*
D03*
X129330Y217535D02*
D03*
X135981Y217799D02*
D03*
X128776Y227797D02*
D03*
X128979Y240680D02*
D03*
X136637Y240832D02*
D03*
X136550Y189687D02*
D03*
X136615Y205597D02*
D03*
X136333Y170359D02*
D03*
X154099Y241367D02*
D03*
X145811D02*
D03*
X160327Y211793D02*
D03*
X148169Y211938D02*
D03*
X143180Y211599D02*
D03*
X136446Y227633D02*
D03*
X151484Y201500D02*
D03*
X185701Y209348D02*
D03*
X196310Y234842D02*
D03*
X196221Y231873D02*
D03*
X184500Y230000D02*
D03*
Y233000D02*
D03*
X195300Y252276D02*
D03*
X191298Y256789D02*
D03*
X187000Y252500D02*
D03*
X167000Y235000D02*
D03*
X256728Y228700D02*
D03*
X141306Y256834D02*
D03*
X159849Y255040D02*
D03*
X82500Y267500D02*
D03*
X103000Y272000D02*
D03*
X101000Y265000D02*
D03*
X101112Y223230D02*
D03*
X91458Y222226D02*
D03*
X82724Y221139D02*
D03*
X171000Y282500D02*
D03*
X175500Y277500D02*
D03*
X171000D02*
D03*
X166500D02*
D03*
X126819Y270638D02*
D03*
X129112Y276655D02*
D03*
X135150Y277938D02*
D03*
X131826Y270260D02*
D03*
X132058Y275729D02*
D03*
X89339Y171661D02*
D03*
X93669D02*
D03*
X98000D02*
D03*
X102331D02*
D03*
X106661D02*
D03*
X89339Y167331D02*
D03*
X93669D02*
D03*
X98000D02*
D03*
X102331D02*
D03*
X106661D02*
D03*
X89339Y163000D02*
D03*
X93669D02*
D03*
X98000D02*
D03*
X102331D02*
D03*
X106661D02*
D03*
X89339Y158669D02*
D03*
X93669D02*
D03*
X98000D02*
D03*
X102331D02*
D03*
X106661D02*
D03*
X89339Y154339D02*
D03*
X93669D02*
D03*
X98000D02*
D03*
X102331D02*
D03*
X106661D02*
D03*
D90*
X214776Y209446D02*
D03*
X212000Y209500D02*
D03*
X196264Y194180D02*
D03*
X198432D02*
D03*
X200600D02*
D03*
X196264Y196347D02*
D03*
X198432D02*
D03*
X200600D02*
D03*
X196264Y198515D02*
D03*
X198432D02*
D03*
X200600D02*
D03*
Y200683D02*
D03*
X198432D02*
D03*
X196264D02*
D03*
X200600Y202850D02*
D03*
X198432D02*
D03*
X196264D02*
D03*
X94751Y74621D02*
D03*
X94797Y76941D02*
D03*
X90500Y82500D02*
D03*
Y73500D02*
D03*
Y76500D02*
D03*
Y79500D02*
D03*
X93500D02*
D03*
Y82500D02*
D03*
X96500D02*
D03*
X99500D02*
D03*
X96500Y79500D02*
D03*
X99500D02*
D03*
X102500Y82500D02*
D03*
Y79500D02*
D03*
X123968Y159794D02*
D03*
X123783Y142615D02*
D03*
X107294Y185931D02*
D03*
X125500Y146500D02*
D03*
X163113Y259000D02*
D03*
X168500Y250450D02*
D03*
X138603Y212367D02*
D03*
X182000Y238500D02*
D03*
X126303Y163643D02*
D03*
X123927Y163893D02*
D03*
X102621Y127913D02*
D03*
X103000Y145500D02*
D03*
X120782Y122370D02*
D03*
X119678Y205683D02*
D03*
Y203087D02*
D03*
X100722Y210815D02*
D03*
X98500Y209500D02*
D03*
X110000Y273500D02*
D03*
X93971Y274368D02*
D03*
X109500Y271000D02*
D03*
X95501Y218292D02*
D03*
X122140Y191317D02*
D03*
Y193491D02*
D03*
X111428Y187897D02*
D03*
X109713Y189540D02*
D03*
X132835Y254858D02*
D03*
X234500Y56946D02*
D03*
Y54771D02*
D03*
X173500Y115500D02*
D03*
X219000Y155000D02*
D03*
X63000Y60000D02*
D03*
X91000Y99500D02*
D03*
X168971Y209520D02*
D03*
D91*
X42500Y229000D02*
D03*
Y237000D02*
D03*
Y245000D02*
D03*
Y253500D02*
D03*
Y261500D02*
D03*
Y269500D02*
D03*
Y278000D02*
D03*
Y286000D02*
D03*
Y294000D02*
D03*
X41500Y149000D02*
D03*
Y140500D02*
D03*
Y132000D02*
D03*
Y123500D02*
D03*
Y115000D02*
D03*
Y106500D02*
D03*
Y98000D02*
D03*
Y89500D02*
D03*
Y81000D02*
D03*
Y72500D02*
D03*
Y64000D02*
D03*
Y55500D02*
D03*
Y47000D02*
D03*
Y38500D02*
D03*
X45500Y30000D02*
D03*
X54000D02*
D03*
X62500D02*
D03*
X71000D02*
D03*
X79500D02*
D03*
X100000D02*
D03*
X108500D02*
D03*
X117000D02*
D03*
X125500D02*
D03*
X134000D02*
D03*
X142500D02*
D03*
X151000D02*
D03*
X159000D02*
D03*
X167500D02*
D03*
X176000D02*
D03*
X184500D02*
D03*
X193000D02*
D03*
X201500D02*
D03*
X210000D02*
D03*
X218500D02*
D03*
X227000D02*
D03*
X235500D02*
D03*
X244000D02*
D03*
X252500D02*
D03*
X263500Y37000D02*
D03*
Y45500D02*
D03*
Y53500D02*
D03*
Y61500D02*
D03*
Y70000D02*
D03*
Y78000D02*
D03*
Y86000D02*
D03*
Y94000D02*
D03*
Y102500D02*
D03*
Y110500D02*
D03*
Y119000D02*
D03*
Y144000D02*
D03*
Y152000D02*
D03*
Y160000D02*
D03*
Y168000D02*
D03*
Y176500D02*
D03*
Y184500D02*
D03*
Y192500D02*
D03*
Y201000D02*
D03*
Y209000D02*
D03*
Y217000D02*
D03*
Y225500D02*
D03*
X261000Y241000D02*
D03*
Y249000D02*
D03*
Y257000D02*
D03*
Y265000D02*
D03*
Y273500D02*
D03*
Y281500D02*
D03*
Y289500D02*
D03*
X139500Y294000D02*
D03*
X147500D02*
D03*
X155500D02*
D03*
X51557Y286010D02*
D03*
Y294010D02*
D03*
X59557D02*
D03*
Y286010D02*
D03*
X67557Y294010D02*
D03*
Y286010D02*
D03*
X75557Y294010D02*
D03*
Y286010D02*
D03*
X83557Y294010D02*
D03*
Y286010D02*
D03*
X91557D02*
D03*
Y294010D02*
D03*
X99557D02*
D03*
Y286010D02*
D03*
X107557Y294010D02*
D03*
Y286010D02*
D03*
X115557Y294010D02*
D03*
Y286010D02*
D03*
X123557Y294010D02*
D03*
Y286010D02*
D03*
X51557Y302010D02*
D03*
X59557D02*
D03*
X67557D02*
D03*
X75557D02*
D03*
X83557D02*
D03*
X91557D02*
D03*
X99557D02*
D03*
X107557D02*
D03*
X115557D02*
D03*
X123557D02*
D03*
X139500Y302000D02*
D03*
X147500D02*
D03*
X155500D02*
D03*
X211500Y286000D02*
D03*
Y294000D02*
D03*
X203500Y286000D02*
D03*
Y294000D02*
D03*
X195500Y286000D02*
D03*
Y294000D02*
D03*
X187500Y286000D02*
D03*
Y294000D02*
D03*
X211500Y302000D02*
D03*
X203500D02*
D03*
X195500D02*
D03*
X187500D02*
D03*
X179500D02*
D03*
Y294000D02*
D03*
Y286000D02*
D03*
X121234Y178121D02*
D03*
X199000Y228000D02*
D03*
X240000Y237500D02*
D03*
X116500Y138000D02*
D03*
D92*
X58000Y237000D02*
D03*
X55500Y140500D02*
D03*
D93*
X84414Y179966D02*
D03*
X58500Y187500D02*
D03*
D94*
X131445Y286043D02*
D03*
X165500D02*
D03*
M02*
