G04*
G04 #@! TF.GenerationSoftware,Altium Limited,Altium Designer,23.5.1 (21)*
G04*
G04 Layer_Physical_Order=1*
G04 Layer_Color=255*
%FSLAX25Y25*%
%MOIN*%
G70*
G04*
G04 #@! TF.SameCoordinates,89F97100-6FF8-4533-BDCD-A1BC4398B3AB*
G04*
G04*
G04 #@! TF.FilePolarity,Positive*
G04*
G01*
G75*
%ADD13C,0.01000*%
G04:AMPARAMS|DCode=18|XSize=39.37mil|YSize=39.37mil|CornerRadius=9.84mil|HoleSize=0mil|Usage=FLASHONLY|Rotation=0.000|XOffset=0mil|YOffset=0mil|HoleType=Round|Shape=RoundedRectangle|*
%AMROUNDEDRECTD18*
21,1,0.03937,0.01968,0,0,0.0*
21,1,0.01968,0.03937,0,0,0.0*
1,1,0.01968,0.00984,-0.00984*
1,1,0.01968,-0.00984,-0.00984*
1,1,0.01968,-0.00984,0.00984*
1,1,0.01968,0.00984,0.00984*
%
%ADD18ROUNDEDRECTD18*%
G04:AMPARAMS|DCode=19|XSize=11.81mil|YSize=70.87mil|CornerRadius=2.95mil|HoleSize=0mil|Usage=FLASHONLY|Rotation=270.000|XOffset=0mil|YOffset=0mil|HoleType=Round|Shape=RoundedRectangle|*
%AMROUNDEDRECTD19*
21,1,0.01181,0.06496,0,0,270.0*
21,1,0.00591,0.07087,0,0,270.0*
1,1,0.00591,-0.03248,-0.00295*
1,1,0.00591,-0.03248,0.00295*
1,1,0.00591,0.03248,0.00295*
1,1,0.00591,0.03248,-0.00295*
%
%ADD19ROUNDEDRECTD19*%
G04:AMPARAMS|DCode=20|XSize=78.74mil|YSize=59.06mil|CornerRadius=14.76mil|HoleSize=0mil|Usage=FLASHONLY|Rotation=270.000|XOffset=0mil|YOffset=0mil|HoleType=Round|Shape=RoundedRectangle|*
%AMROUNDEDRECTD20*
21,1,0.07874,0.02953,0,0,270.0*
21,1,0.04921,0.05906,0,0,270.0*
1,1,0.02953,-0.01476,-0.02461*
1,1,0.02953,-0.01476,0.02461*
1,1,0.02953,0.01476,0.02461*
1,1,0.02953,0.01476,-0.02461*
%
%ADD20ROUNDEDRECTD20*%
%ADD21R,0.02559X0.02362*%
%ADD22R,0.03858X0.03661*%
%ADD23R,0.04528X0.05512*%
%ADD24R,0.02362X0.02559*%
%ADD25R,0.02362X0.04331*%
%ADD27R,0.01575X0.05512*%
%ADD28R,0.00984X0.02362*%
%ADD29R,0.03661X0.03858*%
%ADD30O,0.03543X0.00984*%
%ADD31O,0.00984X0.03543*%
%ADD32R,0.22047X0.22047*%
%ADD33R,0.02559X0.04528*%
G04:AMPARAMS|DCode=34|XSize=98.43mil|YSize=228.35mil|CornerRadius=24.61mil|HoleSize=0mil|Usage=FLASHONLY|Rotation=180.000|XOffset=0mil|YOffset=0mil|HoleType=Round|Shape=RoundedRectangle|*
%AMROUNDEDRECTD34*
21,1,0.09843,0.17913,0,0,180.0*
21,1,0.04921,0.22835,0,0,180.0*
1,1,0.04921,-0.02461,0.08957*
1,1,0.04921,0.02461,0.08957*
1,1,0.04921,0.02461,-0.08957*
1,1,0.04921,-0.02461,-0.08957*
%
%ADD34ROUNDEDRECTD34*%
%ADD35R,0.07874X0.07874*%
%ADD36R,0.05787X0.04567*%
G04:AMPARAMS|DCode=37|XSize=43.31mil|YSize=23.62mil|CornerRadius=2.01mil|HoleSize=0mil|Usage=FLASHONLY|Rotation=90.000|XOffset=0mil|YOffset=0mil|HoleType=Round|Shape=RoundedRectangle|*
%AMROUNDEDRECTD37*
21,1,0.04331,0.01961,0,0,90.0*
21,1,0.03929,0.02362,0,0,90.0*
1,1,0.00402,0.00980,0.01965*
1,1,0.00402,0.00980,-0.01965*
1,1,0.00402,-0.00980,-0.01965*
1,1,0.00402,-0.00980,0.01965*
%
%ADD37ROUNDEDRECTD37*%
%ADD38R,0.15748X0.11811*%
%ADD39R,0.07874X0.14173*%
%ADD40R,0.07874X0.07874*%
G04:AMPARAMS|DCode=41|XSize=97.4mil|YSize=24.49mil|CornerRadius=12.25mil|HoleSize=0mil|Usage=FLASHONLY|Rotation=180.000|XOffset=0mil|YOffset=0mil|HoleType=Round|Shape=RoundedRectangle|*
%AMROUNDEDRECTD41*
21,1,0.09740,0.00000,0,0,180.0*
21,1,0.07291,0.02449,0,0,180.0*
1,1,0.02449,-0.03646,0.00000*
1,1,0.02449,0.03646,0.00000*
1,1,0.02449,0.03646,0.00000*
1,1,0.02449,-0.03646,0.00000*
%
%ADD41ROUNDEDRECTD41*%
%ADD42R,0.09740X0.02449*%
%ADD43R,0.01575X0.03347*%
%ADD44R,0.09843X0.14173*%
%ADD45O,0.01181X0.05315*%
%ADD46O,0.02362X0.05315*%
%ADD65R,0.07972X0.12205*%
G04:AMPARAMS|DCode=75|XSize=39.37mil|YSize=102.36mil|CornerRadius=9.84mil|HoleSize=0mil|Usage=FLASHONLY|Rotation=180.000|XOffset=0mil|YOffset=0mil|HoleType=Round|Shape=RoundedRectangle|*
%AMROUNDEDRECTD75*
21,1,0.03937,0.08268,0,0,180.0*
21,1,0.01968,0.10236,0,0,180.0*
1,1,0.01968,-0.00984,0.04134*
1,1,0.01968,0.00984,0.04134*
1,1,0.01968,0.00984,-0.04134*
1,1,0.01968,-0.00984,-0.04134*
%
%ADD75ROUNDEDRECTD75*%
G04:AMPARAMS|DCode=76|XSize=59.06mil|YSize=94.49mil|CornerRadius=14.76mil|HoleSize=0mil|Usage=FLASHONLY|Rotation=180.000|XOffset=0mil|YOffset=0mil|HoleType=Round|Shape=RoundedRectangle|*
%AMROUNDEDRECTD76*
21,1,0.05906,0.06496,0,0,180.0*
21,1,0.02953,0.09449,0,0,180.0*
1,1,0.02953,-0.01476,0.03248*
1,1,0.02953,0.01476,0.03248*
1,1,0.02953,0.01476,-0.03248*
1,1,0.02953,-0.01476,-0.03248*
%
%ADD76ROUNDEDRECTD76*%
%ADD79C,0.01100*%
%ADD80R,0.02756X0.02362*%
%ADD81C,0.02000*%
%ADD82C,0.00600*%
%ADD83C,0.01500*%
%ADD84C,0.05906*%
%ADD85R,0.05906X0.05906*%
%ADD86C,0.09449*%
%ADD87R,0.09449X0.09449*%
%ADD88R,0.05906X0.05906*%
%ADD89C,0.01968*%
%ADD90C,0.01575*%
%ADD91C,0.02362*%
%ADD92C,0.03937*%
%ADD93C,0.03150*%
G36*
X266000Y294000D02*
Y261290D01*
D01*
Y141000D01*
X262607Y137607D01*
X261222Y138181D01*
Y229153D01*
X261222Y229153D01*
X261136Y229582D01*
X260893Y229946D01*
X260893Y229946D01*
X256419Y234419D01*
D01*
X252546Y238293D01*
X252182Y238536D01*
X251753Y238622D01*
X251753Y238621D01*
X241397D01*
X241009Y239010D01*
X240354Y239281D01*
X239646D01*
X238991Y239010D01*
X238490Y238509D01*
X238219Y237854D01*
Y237146D01*
X238490Y236491D01*
X238991Y235990D01*
X239646Y235719D01*
X240354D01*
X241009Y235990D01*
X241397Y236379D01*
X251288D01*
X258979Y228688D01*
Y225289D01*
X257593Y224714D01*
X255153Y227153D01*
X254624Y227507D01*
X254000Y227631D01*
X252553D01*
Y229553D01*
X245447D01*
Y222447D01*
X252553D01*
Y223019D01*
X254053Y223640D01*
X256369Y221324D01*
Y165898D01*
X254983Y165324D01*
X254654Y165654D01*
X254124Y166007D01*
X253500Y166131D01*
X252161D01*
X251843Y166681D01*
X251181Y167343D01*
X250371Y167811D01*
X249468Y168053D01*
X248532D01*
X247629Y167811D01*
X246819Y167343D01*
X246157Y166681D01*
X245689Y165871D01*
X245447Y164968D01*
Y164032D01*
X245689Y163129D01*
X246157Y162319D01*
X246819Y161657D01*
X247629Y161189D01*
X248532Y160947D01*
X249468D01*
X250371Y161189D01*
X251181Y161657D01*
X251843Y162319D01*
X253473Y162220D01*
X256369Y159324D01*
Y134500D01*
X226767D01*
X226193Y135886D01*
X235154Y144846D01*
X235507Y145376D01*
X235631Y146000D01*
Y200324D01*
X247919Y212612D01*
X248532Y212447D01*
X249468D01*
X250371Y212689D01*
X251181Y213157D01*
X251843Y213819D01*
X252311Y214629D01*
X252553Y215532D01*
Y216468D01*
X252311Y217371D01*
X251843Y218181D01*
X251181Y218843D01*
X250371Y219311D01*
X249468Y219553D01*
X248532D01*
X247629Y219311D01*
X246819Y218843D01*
X246157Y218181D01*
X245689Y217371D01*
X245447Y216468D01*
Y215532D01*
X245612Y214919D01*
X232846Y202153D01*
X232493Y201624D01*
X232369Y201000D01*
Y146676D01*
X221517Y135824D01*
X216880D01*
Y137057D01*
X213121D01*
Y134500D01*
X201649D01*
Y174500D01*
X201459Y174959D01*
X200954Y175465D01*
X201528Y176851D01*
X203500D01*
X203959Y177041D01*
X204959Y178041D01*
X205149Y178500D01*
Y179353D01*
X206601Y179471D01*
X206899Y179471D01*
X211462D01*
Y184529D01*
X209949D01*
Y189175D01*
X213482D01*
X213482Y192825D01*
X214764Y193351D01*
X218006D01*
Y193121D01*
X224994D01*
Y193351D01*
X225500D01*
X225959Y193541D01*
X228459Y196041D01*
X228649Y196500D01*
Y203000D01*
Y208609D01*
Y234500D01*
Y235500D01*
X228459Y235959D01*
X219149Y245269D01*
D01*
Y255926D01*
X220649Y256225D01*
X220996Y255388D01*
X221865Y253970D01*
X222945Y252705D01*
X224210Y251625D01*
X225628Y250756D01*
X227165Y250119D01*
X228783Y249731D01*
X230441Y249600D01*
X232099Y249731D01*
X233717Y250119D01*
X235253Y250756D01*
X236672Y251625D01*
X237937Y252705D01*
X239017Y253970D01*
X239886Y255388D01*
X240523Y256925D01*
X240911Y258542D01*
X241041Y260201D01*
X240911Y261859D01*
X240523Y263476D01*
X239886Y265013D01*
X239017Y266432D01*
X237937Y267696D01*
X236672Y268777D01*
X235253Y269646D01*
X234759Y269851D01*
X235058Y271351D01*
X249500D01*
X249959Y271541D01*
X254459Y276041D01*
X254649Y276500D01*
Y294000D01*
X254459Y294459D01*
X249959Y298959D01*
X249500Y299149D01*
X243500D01*
X243041Y298959D01*
X239541Y295459D01*
X239351Y295000D01*
Y284269D01*
X238231Y283149D01*
X216000Y283149D01*
X215541Y282959D01*
X199768Y267187D01*
X198479D01*
Y257918D01*
X195000D01*
X194649Y257848D01*
X194351Y257649D01*
X192143Y255441D01*
X191697Y255354D01*
X190869Y255341D01*
X190430Y255397D01*
X190382Y255416D01*
X188149Y257649D01*
X187851Y257848D01*
X187500Y257918D01*
X184521D01*
Y267187D01*
X177649D01*
Y268971D01*
X177899D01*
Y274029D01*
X175166D01*
X174820Y274098D01*
X174459Y274459D01*
X174000Y274649D01*
X164769D01*
X162459Y276959D01*
X162000Y277149D01*
X160353D01*
X159654Y277848D01*
Y280462D01*
X159666Y280524D01*
Y283476D01*
X159528Y284171D01*
X159221Y284632D01*
X159445Y285259D01*
X159929Y286034D01*
X160244D01*
X160971Y286335D01*
X161400Y286765D01*
X161988Y286694D01*
X162900Y286305D01*
Y281909D01*
X163023Y281291D01*
X163374Y280767D01*
X163898Y280417D01*
X164516Y280294D01*
X166484D01*
X167102Y280417D01*
X167626Y280767D01*
X167977Y281291D01*
X168099Y281909D01*
Y290177D01*
X167977Y290795D01*
X167626Y291319D01*
X167102Y291670D01*
X166484Y291792D01*
X164516D01*
X163898Y291670D01*
X163374Y291319D01*
X163023Y290795D01*
X162900Y290177D01*
Y289719D01*
X161988Y289329D01*
X161400Y289259D01*
X160971Y289689D01*
X160244Y289990D01*
X159457D01*
X158730Y289689D01*
X158174Y289132D01*
X157872Y288405D01*
Y287618D01*
X158174Y286891D01*
X158341Y286724D01*
X158029Y285816D01*
X157699Y285262D01*
X157155Y285154D01*
X156150Y284925D01*
X155882Y285104D01*
X155756Y285188D01*
X155756Y285188D01*
X155291Y285281D01*
X155291Y285281D01*
X155143Y285251D01*
X154827Y285188D01*
X154307Y284977D01*
X153787Y285188D01*
X153787Y285188D01*
X153787Y285188D01*
X153323Y285281D01*
X152858Y285188D01*
X152858Y285188D01*
X152858Y285188D01*
X152339Y284977D01*
X151819Y285188D01*
X151354Y285281D01*
X150890Y285188D01*
X150156Y285753D01*
X149656Y286405D01*
X149004Y286905D01*
X148246Y287219D01*
X147432Y287326D01*
X146618Y287219D01*
X145859Y286905D01*
X145208Y286405D01*
X144708Y285753D01*
X143945Y285188D01*
X143945Y285188D01*
X143480Y285281D01*
X143016Y285188D01*
X142496Y284977D01*
X141976Y285188D01*
X141512Y285281D01*
X141512Y285281D01*
X141047Y285188D01*
X141047Y285188D01*
X140654Y284925D01*
X139648Y285154D01*
X139200Y285243D01*
X138795Y286029D01*
X138639Y286759D01*
X138771Y286891D01*
X139072Y287618D01*
Y288405D01*
X138771Y289132D01*
X138215Y289689D01*
X137488Y289990D01*
X136701D01*
X135974Y289689D01*
X135544Y289259D01*
X134957Y289329D01*
X134044Y289719D01*
Y290177D01*
X133922Y290795D01*
X133571Y291319D01*
X133047Y291670D01*
X132429Y291792D01*
X130461D01*
X129842Y291670D01*
X129318Y291319D01*
X128968Y290795D01*
X128845Y290177D01*
Y281909D01*
X128898Y281645D01*
X123351Y276098D01*
X123152Y275800D01*
X123082Y275449D01*
Y260500D01*
X123152Y260149D01*
X123351Y259851D01*
X127434Y255768D01*
X127804Y254421D01*
X127804Y254421D01*
X127804D01*
X127804Y254421D01*
Y250859D01*
Y247710D01*
X129747D01*
X129812Y247385D01*
X130066Y247004D01*
X130810Y246260D01*
Y173969D01*
X126264Y169423D01*
X125444Y169537D01*
X125216Y169760D01*
X124888Y170331D01*
X124618Y171096D01*
X124644Y171227D01*
Y179298D01*
X124575Y179649D01*
X124376Y179947D01*
X121673Y182649D01*
X121376Y182848D01*
X121025Y182918D01*
X113380D01*
X112346Y183952D01*
Y186852D01*
X112604Y187111D01*
X112815Y187621D01*
Y188173D01*
X112604Y188683D01*
X112372Y188915D01*
X112202Y189404D01*
X113619Y190801D01*
X120852D01*
X120964Y190531D01*
X121354Y190140D01*
X121864Y189929D01*
X122416D01*
X122926Y190140D01*
X123316Y190531D01*
X123527Y191041D01*
Y191593D01*
X123316Y192103D01*
X123014Y192404D01*
X123316Y192706D01*
X123527Y193216D01*
Y193767D01*
X123316Y194277D01*
X122926Y194668D01*
X122416Y194879D01*
X121864D01*
X121354Y194668D01*
X120964Y194277D01*
X120786Y193848D01*
X102725D01*
X102374Y193778D01*
X102076Y193579D01*
X97465Y188968D01*
X95965Y189589D01*
Y192546D01*
X97379D01*
Y196108D01*
X93621D01*
X93541Y197575D01*
Y198788D01*
X93633Y200250D01*
X100542D01*
Y202168D01*
X118635D01*
X118892Y201911D01*
X119402Y201700D01*
X119954D01*
X120464Y201911D01*
X120854Y202301D01*
X121065Y202811D01*
Y203363D01*
X120854Y203873D01*
X120539Y204385D01*
X120854Y204897D01*
X121065Y205407D01*
Y205959D01*
X120854Y206469D01*
X120464Y206859D01*
X119954Y207071D01*
X119402D01*
X118892Y206859D01*
X118648Y206616D01*
X100542D01*
Y208390D01*
X100542Y208558D01*
X101521Y209652D01*
X101898Y210029D01*
X102109Y210539D01*
Y211091D01*
X101898Y211601D01*
X101508Y211991D01*
X100998Y212202D01*
X100766D01*
X100528Y212441D01*
Y214293D01*
Y217730D01*
X104222Y221424D01*
X104629Y221189D01*
X105532Y220947D01*
X106468D01*
X107371Y221189D01*
X108181Y221657D01*
X108843Y222319D01*
X109311Y223129D01*
X109553Y224032D01*
Y224968D01*
X109311Y225871D01*
X108843Y226681D01*
X108181Y227343D01*
X107371Y227811D01*
X106468Y228053D01*
X105532D01*
X104629Y227811D01*
X103819Y227343D01*
X103157Y226681D01*
X102689Y225871D01*
X102447Y224968D01*
Y224032D01*
X102689Y223129D01*
X102924Y222722D01*
X99885Y219683D01*
X98385Y220304D01*
Y221597D01*
X98341Y221817D01*
X98843Y222319D01*
X99311Y223129D01*
X99553Y224032D01*
Y224968D01*
X99311Y225871D01*
X98843Y226681D01*
X98181Y227343D01*
X97371Y227811D01*
X96468Y228053D01*
X95532D01*
X94629Y227811D01*
X93819Y227343D01*
X93157Y226681D01*
X92689Y225871D01*
X92447Y224968D01*
Y224032D01*
X92689Y223129D01*
X93157Y222319D01*
X93819Y221657D01*
X94629Y221189D01*
X94985Y221094D01*
X94974Y219655D01*
X94954Y219549D01*
X94527Y219264D01*
X93071Y219054D01*
X92762Y219117D01*
X89106Y222774D01*
X89311Y223129D01*
X89553Y224032D01*
Y224968D01*
X89311Y225871D01*
X88843Y226681D01*
X88181Y227343D01*
X87371Y227811D01*
X86468Y228053D01*
X85532D01*
X84919Y227888D01*
X74271Y238536D01*
X73742Y238889D01*
X73118Y239014D01*
X69236D01*
Y239163D01*
X65280D01*
Y235601D01*
X69236D01*
Y235751D01*
X72442D01*
X82612Y225581D01*
X82447Y224968D01*
Y224032D01*
X82689Y223129D01*
X83157Y222319D01*
X83819Y221657D01*
X84629Y221189D01*
X85532Y220947D01*
X86468D01*
X87371Y221189D01*
X87830Y221454D01*
X88866Y220418D01*
X88245Y218918D01*
X82880D01*
X79076Y222722D01*
X79311Y223129D01*
X79553Y224032D01*
Y224968D01*
X79311Y225871D01*
X78843Y226681D01*
X78181Y227343D01*
X77371Y227811D01*
X76468Y228053D01*
X75532D01*
X74629Y227811D01*
X73819Y227343D01*
X73157Y226681D01*
X72689Y225871D01*
X72447Y224968D01*
Y224032D01*
X72689Y223129D01*
X73157Y222319D01*
X73819Y221657D01*
X74629Y221189D01*
X75532Y220947D01*
X76468D01*
X77371Y221189D01*
X77778Y221424D01*
X81851Y217351D01*
X82149Y217152D01*
X82500Y217082D01*
X89120D01*
X90470Y215733D01*
Y212358D01*
X89601Y211489D01*
X60571D01*
X60220Y211419D01*
X59922Y211220D01*
X40851Y192149D01*
X40652Y191851D01*
X40582Y191500D01*
Y159500D01*
X40652Y159149D01*
X40851Y158851D01*
X43178Y156524D01*
X43476Y156325D01*
X43827Y156256D01*
X48120D01*
Y155392D01*
X51880D01*
X52971Y154406D01*
Y151601D01*
X52971D01*
Y150399D01*
X52971D01*
Y145538D01*
X53869D01*
Y142501D01*
X53445Y142077D01*
X53106Y141491D01*
X52931Y140838D01*
Y140162D01*
X53106Y139509D01*
X53445Y138923D01*
X53869Y138499D01*
Y134379D01*
X53719D01*
Y130621D01*
X53869D01*
Y100000D01*
Y67500D01*
X53993Y66876D01*
X54347Y66347D01*
X61351Y59342D01*
Y51500D01*
X60242Y50380D01*
X59693D01*
X58462Y51029D01*
Y51029D01*
X58462Y51029D01*
X53601D01*
Y46000D01*
Y45971D01*
X58462D01*
Y45971D01*
X59219Y46621D01*
X63118D01*
X63698Y46041D01*
X64157Y45851D01*
X65410D01*
X77553Y33707D01*
X77553Y33707D01*
X77917Y33464D01*
X78347Y33378D01*
X78347Y33378D01*
X83000D01*
Y31000D01*
X79000Y27000D01*
X45500D01*
X38000Y34500D01*
X38000Y70680D01*
X38000Y70680D01*
Y297000D01*
X47000Y306000D01*
X127645D01*
X127851Y305748D01*
Y299252D01*
X128013Y298442D01*
X128472Y297755D01*
X129158Y297296D01*
X129969Y297135D01*
X132921D01*
X133731Y297296D01*
X134418Y297755D01*
X134877Y298442D01*
X135038Y299252D01*
Y305748D01*
X135245Y306000D01*
X161700D01*
X161907Y305748D01*
Y299252D01*
X162068Y298442D01*
X162527Y297755D01*
X163214Y297296D01*
X164024Y297135D01*
X166976D01*
X167787Y297296D01*
X168473Y297755D01*
X168932Y298442D01*
X169093Y299252D01*
Y305748D01*
X169300Y306000D01*
X254000D01*
X266000Y294000D01*
D02*
G37*
G36*
X135974Y286335D02*
X136701Y286034D01*
X136874D01*
X137273Y285394D01*
X137528Y284551D01*
X137275Y284171D01*
X137137Y283476D01*
Y282398D01*
X137134Y282392D01*
Y278553D01*
X137041Y278459D01*
X136851Y278000D01*
Y276769D01*
X135041Y274959D01*
X134851Y274500D01*
Y272500D01*
Y268630D01*
X133454Y268380D01*
X133454Y268380D01*
X133454Y268379D01*
X129892D01*
Y264620D01*
X131620D01*
X132241Y263121D01*
X131154Y262033D01*
X130900Y261653D01*
X130810Y261204D01*
Y257236D01*
X130713Y257139D01*
X130680Y257114D01*
X128863Y257032D01*
X128674Y257124D01*
X124918Y260880D01*
Y275069D01*
X130196Y280347D01*
X130461Y280294D01*
X132429D01*
X133047Y280417D01*
X133571Y280767D01*
X133922Y281291D01*
X134044Y281909D01*
Y286305D01*
X134957Y286694D01*
X135544Y286765D01*
X135974Y286335D01*
D02*
G37*
G36*
X140091Y272590D02*
Y269091D01*
X139000Y268000D01*
X136000D01*
X135500Y268500D01*
Y272500D01*
Y274500D01*
X137500Y276500D01*
Y278000D01*
X137784Y278284D01*
Y282392D01*
X140091Y283545D01*
Y272590D01*
D02*
G37*
G36*
X159005Y283355D02*
Y277579D01*
X160084Y276500D01*
X162000D01*
X164500Y274000D01*
X174000D01*
X174500Y273500D01*
X177000Y273000D01*
Y255500D01*
X176000Y254500D01*
X168500D01*
X164500Y258500D01*
Y263000D01*
X157000Y270500D01*
X157001Y270501D01*
X156683Y270819D01*
Y283437D01*
X159005Y283355D01*
D02*
G37*
G36*
X198479Y251813D02*
X199850D01*
Y248500D01*
X199891Y248403D01*
Y243924D01*
X204157D01*
X215851Y232231D01*
Y206365D01*
X214820Y205539D01*
X213492Y206128D01*
X213376Y206712D01*
X212973Y207315D01*
X212370Y207719D01*
X211658Y207860D01*
X209981D01*
Y211971D01*
X211494D01*
Y217029D01*
X206632D01*
Y211971D01*
X208145D01*
Y207860D01*
X204366D01*
X203655Y207719D01*
X203051Y207315D01*
X202648Y206712D01*
X202506Y206000D01*
X202648Y205288D01*
X203051Y204684D01*
X203151Y204618D01*
X203178Y204588D01*
X203444Y203121D01*
X203387Y202805D01*
X202756Y202174D01*
X202566Y201715D01*
Y201300D01*
X202506Y201000D01*
X202566Y200700D01*
Y196300D01*
X202506Y196000D01*
X202566Y195700D01*
Y195285D01*
X202756Y194826D01*
X203257Y194325D01*
X202636Y192825D01*
X202542D01*
X202542Y189175D01*
X201260Y188649D01*
X195269D01*
X194063Y189855D01*
X194352Y190288D01*
X194494Y191000D01*
X194352Y191712D01*
X193949Y192315D01*
X193345Y192719D01*
X192633Y192860D01*
X185342D01*
X184630Y192719D01*
X184527Y192649D01*
X170305D01*
Y193537D01*
X161231D01*
Y184463D01*
X161351D01*
Y177090D01*
X161250Y176962D01*
X160000Y176149D01*
X152000D01*
X151541Y175959D01*
X149541Y173959D01*
X149351Y173500D01*
Y128500D01*
X149541Y128041D01*
X152041Y125541D01*
X152500Y125351D01*
X166500D01*
X167026Y123965D01*
Y121372D01*
X167351D01*
Y113000D01*
X167541Y112541D01*
X171541Y108541D01*
X171541Y108541D01*
X172541Y107541D01*
X173000Y107351D01*
X176369D01*
Y89176D01*
X168824Y81631D01*
X134176D01*
X124919Y90888D01*
X124390Y91242D01*
X123765Y91366D01*
X122537D01*
Y94305D01*
X113463D01*
Y85231D01*
X122537D01*
Y86535D01*
X124037Y87156D01*
X132346Y78847D01*
X132876Y78493D01*
X133500Y78369D01*
X169500D01*
X170124Y78493D01*
X170653Y78847D01*
X179154Y87347D01*
X179507Y87876D01*
X179631Y88500D01*
X179631Y88500D01*
Y107351D01*
X197500D01*
X197959Y107541D01*
X198614Y108196D01*
D01*
X200459Y110041D01*
X200649Y110500D01*
Y118194D01*
X245326D01*
X245950Y118318D01*
X246479Y118672D01*
X254307Y126500D01*
X256379D01*
Y62871D01*
X255594Y61527D01*
X255594Y61527D01*
X252880D01*
Y62454D01*
X249120D01*
Y61527D01*
X246946D01*
X246920Y61544D01*
X246571Y61614D01*
X240075D01*
X239725Y61544D01*
X239429Y61346D01*
X239231Y61050D01*
X239162Y60701D01*
Y60110D01*
X239231Y59761D01*
X239429Y59465D01*
X239725Y59267D01*
X240075Y59197D01*
X246571D01*
X246920Y59267D01*
X246946Y59284D01*
X249120D01*
Y58892D01*
X252880D01*
Y59284D01*
X255130D01*
X256379Y58035D01*
Y48965D01*
X243035Y35622D01*
X95000D01*
Y44298D01*
X95213Y44608D01*
X96500Y45479D01*
X96669Y45456D01*
X101591D01*
X102390Y45562D01*
X103134Y45870D01*
X103773Y46360D01*
X104264Y47000D01*
X104572Y47744D01*
X104678Y48543D01*
Y66457D01*
X104572Y67256D01*
X104548Y67315D01*
Y69769D01*
X104548Y69769D01*
X105695Y70851D01*
X113463D01*
Y68695D01*
X122537D01*
Y77769D01*
X118149D01*
X117644Y78274D01*
X117185Y78464D01*
X103229D01*
X103220Y78466D01*
X101260D01*
X101251Y78464D01*
X101051D01*
X100592Y78274D01*
X99793Y78404D01*
X99782Y78406D01*
X99480Y78466D01*
X97520D01*
X97207Y78404D01*
X96942Y78227D01*
X96765Y77962D01*
X96703Y77650D01*
Y77638D01*
X96682Y77588D01*
Y72737D01*
X95485Y71813D01*
X95399Y71899D01*
X95101Y72098D01*
X94750Y72168D01*
X86630D01*
X82886Y75912D01*
Y83282D01*
X84386Y83971D01*
X85601D01*
X85899Y83971D01*
X90462D01*
Y85397D01*
X92963D01*
Y84350D01*
X93025Y84038D01*
X93202Y83773D01*
X93467Y83596D01*
X93779Y83534D01*
X95435D01*
X95740Y83534D01*
X96630Y83572D01*
X97520Y83534D01*
X97824Y83534D01*
X99176D01*
X99480Y83534D01*
X100370Y83572D01*
X101260Y83534D01*
X101433Y83534D01*
D01*
X103220D01*
X103533Y83596D01*
X103798Y83773D01*
X103975Y84038D01*
X104037Y84350D01*
Y87141D01*
Y88279D01*
X103975Y88592D01*
X103798Y88857D01*
X103533Y89034D01*
X103220Y89096D01*
X103158D01*
Y90956D01*
X105066D01*
X105066Y90956D01*
Y90956D01*
X106134Y89913D01*
X106206Y89841D01*
Y86277D01*
X111264D01*
Y91138D01*
X107504D01*
X105066Y93576D01*
Y95519D01*
X105066Y95817D01*
Y97019D01*
X105066Y97317D01*
Y101880D01*
X100280D01*
X100008Y101880D01*
Y101880D01*
X98798Y101839D01*
Y101839D01*
X93739D01*
Y100418D01*
X92044D01*
X91786Y100676D01*
X91276Y100887D01*
X90724D01*
X90214Y100676D01*
X89824Y100286D01*
X89613Y99776D01*
Y99224D01*
X89824Y98714D01*
X90214Y98324D01*
X90724Y98113D01*
X91276D01*
X91786Y98324D01*
X91865Y98403D01*
X93389Y98208D01*
X93739Y97082D01*
Y95776D01*
X93739Y95477D01*
Y90914D01*
X98525D01*
X98798Y90914D01*
Y90914D01*
X99823Y90949D01*
X100116Y90865D01*
X100289Y89722D01*
X99644Y89089D01*
X99480Y89096D01*
X99176Y89096D01*
X97824D01*
X97520Y89096D01*
X96630Y89058D01*
X95740Y89096D01*
X95435Y89096D01*
X93779D01*
X93467Y89034D01*
X93202Y88857D01*
X93025Y88592D01*
X92963Y88279D01*
Y87233D01*
X90462D01*
Y89029D01*
X85899D01*
X85601Y89029D01*
X84399D01*
X84101Y89029D01*
X79538D01*
Y83971D01*
X81051D01*
Y75532D01*
X81121Y75180D01*
X81320Y74883D01*
X84167Y72035D01*
X83593Y70649D01*
X83500D01*
X83041Y70459D01*
X82936Y70206D01*
X82644Y69910D01*
X81350Y69347D01*
X81130Y69438D01*
X80331Y69544D01*
X75410D01*
X74611Y69438D01*
X73866Y69130D01*
X73239Y68649D01*
X71494D01*
Y68879D01*
X64506D01*
Y68649D01*
X64500D01*
X64041Y68459D01*
X61541Y65959D01*
X61520Y65909D01*
X59965Y65342D01*
X57131Y68176D01*
Y70443D01*
Y100000D01*
Y100334D01*
X65880Y109082D01*
X92872D01*
Y108121D01*
X96435D01*
Y111880D01*
X96435D01*
X96041Y112510D01*
Y118041D01*
X92479D01*
Y112510D01*
X92479D01*
X92536Y112418D01*
X91835Y110918D01*
X65500D01*
X65149Y110848D01*
X64851Y110649D01*
X58517Y104315D01*
X57131Y104889D01*
Y130621D01*
X57281D01*
Y134379D01*
X57131D01*
Y138499D01*
X57555Y138923D01*
X57894Y139509D01*
X58069Y140162D01*
Y140838D01*
X57894Y141491D01*
X57555Y142077D01*
X57131Y142501D01*
Y145538D01*
X58029D01*
Y150399D01*
X58029D01*
Y151601D01*
X58804Y152780D01*
X59121Y153065D01*
X62880D01*
Y153065D01*
X63621D01*
Y153065D01*
X67379D01*
Y154082D01*
X80000D01*
X80351Y154152D01*
X80579Y154304D01*
X80838Y154275D01*
X82109Y153716D01*
X82109Y153716D01*
X82288Y153157D01*
X82109Y152599D01*
X82024Y152173D01*
X82024Y152173D01*
X82109Y151747D01*
X82109Y151747D01*
X82109Y151747D01*
X82350Y151386D01*
X82712Y151145D01*
X82712Y151145D01*
X83138Y151060D01*
X83138Y151060D01*
X83316Y151060D01*
X83316Y151060D01*
X83317Y151060D01*
X84602D01*
X85769Y150769D01*
X86060Y149602D01*
Y148138D01*
X86145Y147712D01*
X86256Y147545D01*
Y140455D01*
X86326Y140104D01*
X86524Y139807D01*
X97380Y128951D01*
X97678Y128752D01*
X98029Y128682D01*
X99217D01*
X99959Y127490D01*
Y123358D01*
X99959Y121959D01*
X98501Y121858D01*
X97499D01*
X96041Y121959D01*
Y127490D01*
X92479D01*
Y121959D01*
X93540D01*
Y121780D01*
X93610Y121429D01*
X93809Y121131D01*
X94648Y120292D01*
X94946Y120093D01*
X95297Y120023D01*
X119089D01*
X119440Y120093D01*
X119738Y120292D01*
X120451Y121005D01*
X120506Y120983D01*
X121058D01*
X121568Y121194D01*
X121958Y121584D01*
X122169Y122094D01*
Y122646D01*
X121958Y123156D01*
X121568Y123546D01*
X121058Y123757D01*
X120506D01*
X119996Y123546D01*
X119606Y123156D01*
X119394Y122646D01*
Y122544D01*
X118709Y121858D01*
X104980D01*
X103521Y121959D01*
X103521Y123358D01*
Y125517D01*
X103539Y125605D01*
Y126868D01*
X103797Y127127D01*
X104009Y127637D01*
Y128189D01*
X104339Y128682D01*
X120494D01*
X120845Y128752D01*
X121143Y128951D01*
X143649Y151457D01*
X143848Y151755D01*
X143918Y152106D01*
Y203620D01*
X147380Y207082D01*
X152500D01*
X152851Y207152D01*
X153149Y207351D01*
X154649Y208851D01*
X154848Y209149D01*
X154918Y209500D01*
Y220250D01*
X156769Y222101D01*
X160529D01*
Y226962D01*
X160529D01*
Y228038D01*
X160529D01*
Y232899D01*
X160529D01*
Y234101D01*
X160529D01*
Y238962D01*
X158918D01*
Y246120D01*
X166693Y253895D01*
X168392D01*
X168500Y253851D01*
X173479D01*
Y251813D01*
X184521D01*
Y256082D01*
X187120D01*
X189082Y254120D01*
Y248202D01*
X186054D01*
Y246091D01*
X183879D01*
Y246954D01*
X180121D01*
Y243392D01*
Y240046D01*
X180121Y240046D01*
X180613Y238776D01*
Y238224D01*
X180824Y237714D01*
X181214Y237324D01*
X181724Y237113D01*
X182276D01*
X182786Y237324D01*
X183176Y237714D01*
X183387Y238224D01*
Y238750D01*
X183879Y240046D01*
X183880Y240046D01*
X183879Y240046D01*
Y244256D01*
X186054D01*
Y243656D01*
X193947D01*
Y248202D01*
X193477D01*
Y254179D01*
X195380Y256082D01*
X198479D01*
Y251813D01*
D02*
G37*
G36*
X153299Y277403D02*
X154865Y275837D01*
Y270444D01*
X154935Y270093D01*
X155134Y269795D01*
X162245Y262684D01*
Y260095D01*
X161936Y259786D01*
X161725Y259276D01*
Y258724D01*
X161936Y258214D01*
X162327Y257824D01*
X162837Y257613D01*
X163389D01*
X163899Y257824D01*
X164078Y258003D01*
X165166Y256915D01*
X165262Y256635D01*
X165081Y254879D01*
X157351Y247149D01*
X157152Y246851D01*
X157082Y246500D01*
Y238962D01*
X155471D01*
Y237449D01*
X152494D01*
Y238962D01*
X147435D01*
Y237449D01*
X144529D01*
Y238962D01*
X139471D01*
Y234101D01*
X139471D01*
Y232899D01*
X139471D01*
Y228038D01*
X139471D01*
Y226962D01*
X139471D01*
Y223398D01*
X137351Y221279D01*
X137152Y220981D01*
X137082Y220630D01*
Y216500D01*
X137152Y216149D01*
X137351Y215851D01*
X138059Y215143D01*
X138061Y215132D01*
X137817Y213543D01*
X137427Y213153D01*
X137215Y212643D01*
Y212091D01*
X137427Y211581D01*
X137817Y211191D01*
X138327Y210979D01*
X138394D01*
Y182691D01*
X138464Y182340D01*
X138482Y182312D01*
Y154280D01*
X118320Y134118D01*
X99900D01*
X95968Y138049D01*
X96296Y138841D01*
X96296D01*
Y142600D01*
X93996D01*
Y145820D01*
X94038Y145905D01*
X95047Y147024D01*
X95473Y147109D01*
X95473Y147109D01*
X95835Y147350D01*
X96228D01*
X96590Y147109D01*
X96590Y147109D01*
X97016Y147024D01*
X97442Y147109D01*
X98000Y147287D01*
X98558Y147109D01*
X98558Y147109D01*
X98558Y147109D01*
X98984Y147024D01*
X99410Y147109D01*
X99410Y147109D01*
X99410Y147109D01*
X99968Y147287D01*
X100527Y147109D01*
X100654Y147084D01*
X100665Y147076D01*
X101484Y145953D01*
X101613Y145626D01*
Y145224D01*
X101824Y144714D01*
X102214Y144324D01*
X102724Y144113D01*
X103349Y142643D01*
X103121Y141954D01*
X103121D01*
Y138392D01*
X106879D01*
Y141954D01*
X105807D01*
Y147545D01*
X105919Y147712D01*
X106003Y148138D01*
X106003Y150482D01*
Y150518D01*
Y150518D01*
X106003Y150697D01*
X106003Y150697D01*
X105919Y151123D01*
X105919Y151123D01*
X105677Y151484D01*
X105316Y151726D01*
X105316Y151726D01*
X105316Y151726D01*
X104890Y151810D01*
X104890Y151810D01*
X104464Y151726D01*
X103905Y151547D01*
X103347Y151726D01*
X102921Y151810D01*
X102495Y151726D01*
X102495Y151726D01*
X102134Y151484D01*
X101740D01*
X101379Y151726D01*
X101379Y151726D01*
X100953Y151810D01*
X100527Y151726D01*
X99968Y151547D01*
X99410Y151726D01*
X99410Y151726D01*
X99410Y151726D01*
X98984Y151810D01*
X98558Y151726D01*
X98558Y151726D01*
X98558Y151726D01*
X98000Y151547D01*
X97442Y151726D01*
X97016Y151810D01*
X96590Y151726D01*
X96590Y151726D01*
X96228Y151484D01*
X95835D01*
X95473Y151726D01*
X95473Y151726D01*
X95047Y151810D01*
X94621Y151726D01*
X94063Y151547D01*
X93505Y151726D01*
X93079Y151810D01*
X92653Y151726D01*
X92653Y151726D01*
X92291Y151484D01*
X91898D01*
X91536Y151726D01*
X91536Y151726D01*
X91110Y151810D01*
X90684Y151726D01*
X90126Y151547D01*
X89568Y151726D01*
X89568Y151726D01*
X89568Y151726D01*
X89142Y151810D01*
X88716Y151726D01*
X88716Y151726D01*
X88716Y151726D01*
X88157Y151547D01*
X87599Y151726D01*
X87599Y151726D01*
X87599D01*
X87173Y151810D01*
X86810Y152173D01*
X86726Y152599D01*
X86547Y153157D01*
X86726Y153716D01*
X86726Y153716D01*
X86726Y153716D01*
X86810Y154142D01*
X86726Y154568D01*
X86726Y154568D01*
X86726Y154568D01*
X86547Y155126D01*
X86726Y155684D01*
X86726Y155684D01*
X86726Y155684D01*
X86810Y156110D01*
X86726Y156536D01*
X86726Y156536D01*
X86726Y156536D01*
X86547Y157095D01*
X86726Y157653D01*
X86810Y158079D01*
X86810Y158079D01*
X86726Y158505D01*
X86726Y158505D01*
X86726Y158505D01*
X86484Y158866D01*
X86123Y159107D01*
X86123Y159107D01*
X85697Y159192D01*
X85697Y159192D01*
X85518Y159192D01*
X85518Y159192D01*
X85517Y159192D01*
X83138D01*
X82712Y159107D01*
X82350Y158866D01*
X82109Y158505D01*
X82085Y158382D01*
X79620Y155918D01*
X76337D01*
X75715Y157418D01*
X79396Y161098D01*
X82545D01*
X82712Y160987D01*
X83138Y160902D01*
X85482Y160902D01*
X85518D01*
X85518D01*
X85697Y160902D01*
X85697Y160902D01*
X86123Y160987D01*
X86123Y160987D01*
X86484Y161228D01*
X86726Y161590D01*
X86726Y161590D01*
X86726Y161590D01*
X86810Y162016D01*
X86810Y162016D01*
X86726Y162442D01*
X86547Y163000D01*
X86726Y163558D01*
X86726Y163558D01*
X86726Y163558D01*
X86810Y163984D01*
X86726Y164410D01*
X86726Y164410D01*
X86726Y164410D01*
X86547Y164969D01*
X86726Y165527D01*
X86726Y165527D01*
X86726Y165527D01*
X86810Y165953D01*
X86726Y166379D01*
X86726Y166379D01*
X86726Y166379D01*
X86547Y166937D01*
X86726Y167495D01*
X86726Y167495D01*
X86726Y167495D01*
X86810Y167921D01*
X86726Y168347D01*
X86726Y168347D01*
X86726Y168347D01*
X86547Y168905D01*
X86726Y169464D01*
X86726Y169464D01*
X86726Y169464D01*
X86810Y169890D01*
X86726Y170316D01*
X86726Y170316D01*
X86726Y170316D01*
X86547Y170874D01*
X86726Y171432D01*
X86726Y171432D01*
X86726Y171432D01*
X86810Y171858D01*
X86726Y172284D01*
X86726Y172284D01*
X86726Y172284D01*
X86547Y172843D01*
X86726Y173401D01*
X86810Y173827D01*
X87173Y174190D01*
X87599Y174274D01*
X87961Y174516D01*
X88202Y174877D01*
X88287Y175303D01*
Y177862D01*
X88202Y178288D01*
X87961Y178650D01*
X87599Y178891D01*
X87403Y178930D01*
X86589Y179745D01*
Y180398D01*
X86258Y181198D01*
X85835Y181621D01*
X85850Y181703D01*
X86108Y183121D01*
X86108Y183121D01*
X86108Y183121D01*
Y186880D01*
X82546D01*
Y183121D01*
X82546D01*
X82962Y181793D01*
X82993Y181621D01*
X82570Y181198D01*
X82239Y180398D01*
Y179533D01*
X82570Y178734D01*
X82800Y178504D01*
X79041Y174744D01*
X76880D01*
Y176435D01*
X73120D01*
Y172872D01*
X76880D01*
Y172909D01*
X80820D01*
X80905Y172868D01*
X82024Y171858D01*
X82109Y171432D01*
X82109Y171432D01*
X82109Y171432D01*
X82288Y170874D01*
X82109Y170316D01*
X82109Y170316D01*
X82109Y170316D01*
X82024Y169890D01*
X82109Y169464D01*
X82109Y169464D01*
X82109Y169464D01*
X82288Y168905D01*
X82109Y168347D01*
X82109Y168347D01*
X82109Y168347D01*
X82024Y167921D01*
X80905Y166912D01*
X80820Y166870D01*
X74128D01*
Y167879D01*
X67219D01*
Y167879D01*
X66379Y167128D01*
X62621D01*
Y167128D01*
X61157Y167217D01*
Y170540D01*
X55430D01*
Y163828D01*
X61157D01*
Y163828D01*
X62621Y163739D01*
Y163565D01*
X66379D01*
Y163565D01*
X67219Y164120D01*
X74128D01*
Y165035D01*
X79818D01*
X81193Y163690D01*
Y163234D01*
X80905Y162975D01*
X80820Y162933D01*
X79016D01*
X78665Y162864D01*
X78367Y162665D01*
X73793Y158091D01*
X51880D01*
Y158954D01*
X48120D01*
Y158091D01*
X44207D01*
X42418Y159880D01*
Y191120D01*
X60951Y209653D01*
X89981D01*
X90332Y209723D01*
X90630Y209922D01*
X91850Y211143D01*
X94622D01*
Y211143D01*
X95583Y211724D01*
X96375Y211143D01*
X96642Y210362D01*
X96322Y208906D01*
X96286Y208815D01*
X95765Y208558D01*
X93633D01*
Y206096D01*
X90769Y203232D01*
X90570Y202934D01*
X90500Y202583D01*
Y178768D01*
X90323Y178650D01*
X90082Y178288D01*
X89997Y177862D01*
X89997Y175518D01*
Y175482D01*
Y175482D01*
X89997Y175303D01*
X89997Y175303D01*
X90082Y174877D01*
X90082Y174877D01*
X90323Y174516D01*
X90684Y174274D01*
X90684Y174274D01*
X90684Y174274D01*
X91110Y174190D01*
X91110Y174190D01*
X91536Y174274D01*
X92094Y174453D01*
X92653Y174274D01*
X92653Y174274D01*
X92653Y174274D01*
X93079Y174190D01*
X93505Y174274D01*
X93505Y174274D01*
X93505Y174274D01*
X94063Y174453D01*
X94621Y174274D01*
X94621Y174274D01*
X94621Y174274D01*
X95047Y174190D01*
X95473Y174274D01*
X95473Y174274D01*
X95473Y174274D01*
X96031Y174453D01*
X96590Y174274D01*
X96590Y174274D01*
X96590Y174274D01*
X97016Y174190D01*
X97442Y174274D01*
X97442Y174274D01*
X97442Y174274D01*
X98000Y174453D01*
X98558Y174274D01*
X98558Y174274D01*
X98558Y174274D01*
X98984Y174190D01*
X99410Y174274D01*
X99410Y174274D01*
X99410Y174274D01*
X99968Y174453D01*
X100527Y174274D01*
X100527Y174274D01*
X100527Y174274D01*
X100953Y174190D01*
X101379Y174274D01*
X101379Y174274D01*
X101379Y174274D01*
X101937Y174453D01*
X102495Y174274D01*
X102495Y174274D01*
X102495Y174274D01*
X102921Y174190D01*
X103347Y174274D01*
X103347Y174274D01*
X103347Y174274D01*
X103905Y174453D01*
X104464Y174274D01*
X104464Y174274D01*
X104464Y174274D01*
X104890Y174190D01*
X105316Y174274D01*
X105316Y174274D01*
X105316Y174274D01*
X105874Y174453D01*
X106432Y174274D01*
X106858Y174190D01*
X107284Y174274D01*
X107284Y174274D01*
X107646Y174516D01*
X108039D01*
X108401Y174274D01*
X108401D01*
X108827Y174190D01*
X109190Y173827D01*
X109274Y173401D01*
X109516Y173039D01*
Y173039D01*
X109877Y172798D01*
X110303Y172713D01*
X112822D01*
X112862Y172705D01*
X113291Y172791D01*
X113655Y173034D01*
X115325Y174703D01*
X117121D01*
Y174219D01*
X120879D01*
Y174955D01*
X121309Y175145D01*
X122809Y174166D01*
Y171607D01*
X122010Y170807D01*
X113455D01*
X113288Y170919D01*
X112862Y171003D01*
X110303D01*
X109877Y170919D01*
X109516Y170677D01*
X109274Y170316D01*
X109190Y169890D01*
X109274Y169464D01*
X109516Y169102D01*
Y168709D01*
X109274Y168347D01*
X109190Y167921D01*
X109274Y167495D01*
X109516Y167134D01*
Y166740D01*
X109274Y166379D01*
X109190Y165953D01*
X109274Y165527D01*
X109516Y165165D01*
Y164772D01*
X109274Y164410D01*
X109274Y164410D01*
X109190Y163984D01*
X109274Y163558D01*
X109453Y163000D01*
X109274Y162442D01*
X109190Y162016D01*
X109274Y161590D01*
X109274Y161590D01*
X109516Y161228D01*
Y160835D01*
X109274Y160473D01*
X109190Y160047D01*
X109274Y159621D01*
X109516Y159260D01*
Y158866D01*
X109274Y158505D01*
X109190Y158079D01*
X109274Y157653D01*
X109516Y157291D01*
Y156898D01*
X109274Y156536D01*
X109190Y156110D01*
X109274Y155684D01*
X109516Y155323D01*
Y154929D01*
X109274Y154568D01*
X109190Y154142D01*
X109274Y153716D01*
X109516Y153354D01*
X109516Y152961D01*
Y152961D01*
X109274Y152599D01*
X109190Y152173D01*
X108827Y151810D01*
X108401Y151726D01*
X108401Y151726D01*
X108401Y151726D01*
X108039Y151484D01*
X107798Y151123D01*
X107713Y150697D01*
X107713Y150697D01*
X107713Y150522D01*
Y148138D01*
X107798Y147712D01*
X108039Y147350D01*
X108401Y147109D01*
X108597Y147070D01*
X111756Y143911D01*
Y141879D01*
X110892D01*
Y138120D01*
X112967D01*
X113619Y137468D01*
X113620Y137468D01*
X113983Y137224D01*
X114413Y137139D01*
X114413Y137139D01*
X114929D01*
X114990Y136991D01*
X115491Y136490D01*
X116146Y136219D01*
X116854D01*
X117509Y136490D01*
X118010Y136991D01*
X118281Y137646D01*
Y138354D01*
X118010Y139009D01*
X117509Y139510D01*
X116854Y139781D01*
X116146D01*
X115903Y139680D01*
X114742Y140284D01*
X114454Y140580D01*
Y141879D01*
X113591D01*
Y144291D01*
X113521Y144642D01*
X113322Y144940D01*
X109940Y148322D01*
Y149602D01*
X110231Y150769D01*
X111398Y151060D01*
X112862D01*
X113288Y151145D01*
X113468Y151265D01*
X120372D01*
Y149620D01*
X124582D01*
Y147545D01*
X124324Y147286D01*
X124113Y146776D01*
Y146224D01*
X124324Y145714D01*
X124714Y145324D01*
X125224Y145113D01*
X125776D01*
X126286Y145324D01*
X126676Y145714D01*
X126887Y146224D01*
Y146776D01*
X126676Y147286D01*
X126418Y147545D01*
Y149620D01*
X127281D01*
Y153379D01*
X127608Y154121D01*
X127608D01*
Y157879D01*
X124046D01*
Y154121D01*
X122853Y153379D01*
X120372D01*
Y153100D01*
X115181D01*
X115105Y153136D01*
X113976Y154142D01*
X113891Y154568D01*
X113650Y154929D01*
Y155323D01*
X113891Y155684D01*
X113976Y156110D01*
X113891Y156536D01*
X113650Y156898D01*
Y157291D01*
X113891Y157653D01*
X113976Y158079D01*
X113891Y158505D01*
X113650Y158866D01*
Y159260D01*
X113891Y159621D01*
X113976Y160047D01*
X115104Y161053D01*
X115181Y161090D01*
X124667D01*
X125019Y161160D01*
X125316Y161359D01*
X126213Y162256D01*
X126579D01*
X127089Y162467D01*
X127479Y162857D01*
X127690Y163367D01*
Y163919D01*
X127539Y164575D01*
X127820Y165258D01*
X134512Y171950D01*
X134766Y172330D01*
X134855Y172779D01*
Y246260D01*
X135599Y247004D01*
X135854Y247385D01*
X135918Y247710D01*
X137862D01*
Y250859D01*
Y254421D01*
X135974D01*
Y255632D01*
X135885Y256081D01*
X135630Y256461D01*
X134855Y257236D01*
Y260014D01*
X136420Y261579D01*
X139479D01*
X139928Y261668D01*
X140308Y261923D01*
X148112Y269726D01*
X148366Y270107D01*
X148456Y270555D01*
Y275269D01*
X149363Y276662D01*
X150177Y276769D01*
X150936Y277084D01*
X151310Y277370D01*
X151722Y277569D01*
X153299Y277403D01*
D02*
G37*
G36*
X147435Y234101D02*
X147435D01*
Y232899D01*
X147435D01*
Y228038D01*
X147435D01*
Y226962D01*
X147435D01*
Y223398D01*
X145952Y221916D01*
X144529Y222614D01*
Y226962D01*
X144529D01*
Y228038D01*
X144529D01*
Y232899D01*
X144529D01*
Y234101D01*
X144529D01*
Y235614D01*
X147435D01*
Y234101D01*
D02*
G37*
G36*
X155471D02*
X155471D01*
Y232899D01*
X155471D01*
Y228038D01*
X155471D01*
Y226962D01*
X155471D01*
Y223398D01*
X153867Y221794D01*
X152494Y222543D01*
Y226962D01*
X152494D01*
Y228038D01*
X152494D01*
Y232899D01*
X152494D01*
Y234101D01*
X152494D01*
Y235614D01*
X155471D01*
Y234101D01*
D02*
G37*
G36*
X152687Y221474D02*
X153129Y220864D01*
X153082Y220630D01*
Y209880D01*
X152120Y208918D01*
X148226D01*
X146956Y209677D01*
X146918Y210347D01*
Y220285D01*
X148733Y222101D01*
X152096D01*
X152687Y221474D01*
D02*
G37*
G36*
X144574Y221597D02*
X145118Y220845D01*
X145082Y220665D01*
Y210080D01*
X142903Y207901D01*
X141518Y208475D01*
Y213900D01*
X141448Y214251D01*
X141249Y214549D01*
X138918Y216880D01*
Y220250D01*
X140769Y222101D01*
X144073D01*
X144574Y221597D01*
D02*
G37*
G36*
X254000Y294000D02*
Y276500D01*
X249500Y272000D01*
X225000D01*
X218500Y265500D01*
Y245000D01*
X228000Y235500D01*
Y232500D01*
Y203000D01*
Y196500D01*
X225500Y194000D01*
X204500D01*
X203215Y195285D01*
Y201715D01*
X204500Y203000D01*
X213500D01*
X216500Y206000D01*
Y232500D01*
X200500Y248500D01*
X200500Y254500D01*
X200000D01*
Y266500D01*
X216000Y282500D01*
X238500Y282500D01*
D01*
X240000Y284000D01*
Y295000D01*
X243500Y298500D01*
X249500D01*
X254000Y294000D01*
D02*
G37*
G36*
X108326Y189816D02*
Y189264D01*
X108537Y188754D01*
X107726Y187444D01*
X107570Y187319D01*
X107018D01*
X106508Y187107D01*
X106117Y186717D01*
X105906Y186207D01*
Y185842D01*
X104241Y184176D01*
X104042Y183878D01*
X103972Y183527D01*
Y180180D01*
X103931Y180095D01*
X102921Y178976D01*
X102495Y178891D01*
X102495Y178891D01*
X102495Y178891D01*
X101937Y178712D01*
X101379Y178891D01*
X101379Y178891D01*
X101379Y178891D01*
X100953Y178976D01*
X99785Y179684D01*
X99489Y180001D01*
Y186691D01*
X103598Y190801D01*
X107110D01*
X108326Y189816D01*
D02*
G37*
G36*
X112351Y181351D02*
X112649Y181152D01*
X113000Y181082D01*
X119809D01*
X120165Y179843D01*
X120177Y179582D01*
X119725Y179130D01*
X119453Y178475D01*
Y177941D01*
X119293Y177781D01*
X117121D01*
Y176946D01*
X114860D01*
X114860Y176946D01*
X114431Y176861D01*
X114067Y176618D01*
X114067Y176618D01*
X112390Y174940D01*
X111398D01*
X110231Y175231D01*
X109940Y176398D01*
Y177862D01*
X109855Y178288D01*
X109744Y178455D01*
Y181837D01*
X111244Y182458D01*
X112351Y181351D01*
D02*
G37*
G36*
X192500Y191182D02*
X193270D01*
Y189730D01*
X195000Y188000D01*
X203500D01*
X204500Y187000D01*
Y178500D01*
X203500Y177500D01*
X194000D01*
X193270Y176770D01*
Y172770D01*
X192500Y172000D01*
X190000Y169500D01*
X168000D01*
X162000Y175500D01*
Y190000D01*
X164000Y192000D01*
X192500D01*
Y191182D01*
D02*
G37*
G36*
X248307Y125114D02*
X244650Y121457D01*
X200649D01*
Y122162D01*
X200459Y122621D01*
X199621Y123459D01*
X199162Y123649D01*
X187827D01*
X187291Y124351D01*
X188033Y125851D01*
X200500D01*
X200959Y126041D01*
X201418Y126500D01*
X247733D01*
X248307Y125114D01*
D02*
G37*
G36*
X182500Y127500D02*
X187000Y123000D01*
X199162D01*
X200000Y122162D01*
Y110500D01*
X197500Y108000D01*
X173000D01*
X172000Y109000D01*
X168000Y113000D01*
Y133500D01*
X182500D01*
Y127500D01*
D02*
G37*
G36*
X118500Y76500D02*
Y72500D01*
X117500Y71500D01*
X102500D01*
X101051Y72949D01*
Y77815D01*
X117185D01*
X118500Y76500D01*
D02*
G37*
G36*
X99644Y77615D02*
Y72720D01*
X101864Y70500D01*
X103167D01*
X103898Y69769D01*
Y66587D01*
X103797Y66486D01*
X94269D01*
Y69210D01*
X97332Y72274D01*
Y77588D01*
X97417Y77672D01*
X99644Y77615D01*
D02*
G37*
G36*
X78500Y65000D02*
Y46500D01*
X64157D01*
X63142Y47514D01*
Y50358D01*
X62000Y51500D01*
Y65500D01*
X64500Y68000D01*
X75500D01*
X78500Y65000D01*
D02*
G37*
G36*
X74611Y45562D02*
X75410Y45456D01*
X80331D01*
X81130Y45562D01*
X81350Y45653D01*
X82644Y45090D01*
X82936Y44794D01*
X83000Y44639D01*
Y35622D01*
X78811D01*
X69968Y44465D01*
X70542Y45851D01*
X73913D01*
X74611Y45562D01*
D02*
G37*
G36*
X266500Y122500D02*
Y35500D01*
X258000Y27000D01*
X99000D01*
X95000Y31000D01*
Y33378D01*
X243500D01*
X243500Y33378D01*
X243929Y33464D01*
X244293Y33707D01*
X258293Y47707D01*
X258536Y48071D01*
X258622Y48500D01*
X258622Y48500D01*
Y58500D01*
X258622Y58500D01*
X258622Y58500D01*
Y126500D01*
X262500D01*
X266500Y122500D01*
D02*
G37*
%LPC*%
G36*
X106500Y277918D02*
X97000D01*
X96649Y277848D01*
X96351Y277649D01*
X95288Y276586D01*
X95089Y276288D01*
X93970Y275743D01*
X93443Y275638D01*
X92996Y275340D01*
X92698Y274893D01*
X92593Y274366D01*
Y273931D01*
X88939D01*
Y268737D01*
X86620Y266418D01*
X75000D01*
X74649Y266348D01*
X74351Y266149D01*
X69778Y261576D01*
X69371Y261811D01*
X68468Y262053D01*
X67532D01*
X66629Y261811D01*
X65819Y261343D01*
X65157Y260681D01*
X64689Y259871D01*
X64447Y258968D01*
Y258032D01*
X64689Y257129D01*
X65157Y256319D01*
X65819Y255657D01*
X65998Y255554D01*
Y246644D01*
X65280D01*
Y243081D01*
X69236D01*
Y244922D01*
X69261Y245044D01*
Y255160D01*
X69371Y255189D01*
X70181Y255657D01*
X70843Y256319D01*
X71311Y257129D01*
X71553Y258032D01*
Y258968D01*
X71311Y259871D01*
X71076Y260278D01*
X75380Y264582D01*
X81663D01*
X82285Y263082D01*
X80363Y261161D01*
X80181Y261343D01*
X79371Y261811D01*
X78468Y262053D01*
X77532D01*
X76629Y261811D01*
X75819Y261343D01*
X75157Y260681D01*
X74689Y259871D01*
X74447Y258968D01*
Y258032D01*
X74689Y257129D01*
X75157Y256319D01*
X75819Y255657D01*
X76629Y255189D01*
X77532Y254947D01*
X78468D01*
X79371Y255189D01*
X80181Y255657D01*
X80843Y256319D01*
X81311Y257129D01*
X81553Y258032D01*
Y258968D01*
X81386Y259589D01*
X83732Y261934D01*
X84133Y261992D01*
X84292Y261937D01*
X84508Y261623D01*
X84853Y260154D01*
X84689Y259871D01*
X84447Y258968D01*
Y258032D01*
X84689Y257129D01*
X85157Y256319D01*
X85819Y255657D01*
X86629Y255189D01*
X87532Y254947D01*
X88468D01*
X89371Y255189D01*
X90181Y255657D01*
X90843Y256319D01*
X91311Y257129D01*
X91553Y258032D01*
Y258968D01*
X91311Y259871D01*
X91076Y260278D01*
X95535Y264737D01*
X97035Y264116D01*
Y261919D01*
X96629Y261811D01*
X95819Y261343D01*
X95157Y260681D01*
X94689Y259871D01*
X94447Y258968D01*
Y258032D01*
X94689Y257129D01*
X95157Y256319D01*
X95819Y255657D01*
X96629Y255189D01*
X97532Y254947D01*
X98468D01*
X99371Y255189D01*
X100181Y255657D01*
X100843Y256319D01*
X101311Y257129D01*
X101553Y258032D01*
Y258968D01*
X101311Y259871D01*
X100843Y260681D01*
X100181Y261343D01*
X99371Y261811D01*
X98870Y261945D01*
Y267219D01*
X98998D01*
Y270369D01*
Y273931D01*
X100103Y274882D01*
X104320D01*
X108113Y271090D01*
Y270724D01*
X108324Y270214D01*
X108714Y269824D01*
X109224Y269613D01*
X109776D01*
X110286Y269824D01*
X110676Y270214D01*
X110887Y270724D01*
Y271276D01*
X110786Y272324D01*
X111176Y272714D01*
X111387Y273224D01*
Y273776D01*
X111176Y274286D01*
X110786Y274676D01*
X110276Y274887D01*
X109910D01*
X107149Y277649D01*
X106851Y277848D01*
X106500Y277918D01*
D02*
G37*
G36*
X61362Y242903D02*
X57406D01*
Y241452D01*
X57217Y241262D01*
X56863Y240733D01*
X56739Y240109D01*
Y239238D01*
X56423Y239055D01*
X55945Y238577D01*
X55607Y237991D01*
X55431Y237338D01*
Y236662D01*
X55607Y236009D01*
X55945Y235423D01*
X56423Y234945D01*
X57009Y234607D01*
X57662Y234432D01*
X58338D01*
X58991Y234607D01*
X59577Y234945D01*
X60055Y235423D01*
X60394Y236009D01*
X60568Y236662D01*
Y237338D01*
X60434Y237841D01*
X60498Y238142D01*
X61336Y239341D01*
X61362D01*
Y242903D01*
D02*
G37*
G36*
X249468Y158053D02*
X248532D01*
X247629Y157811D01*
X246819Y157343D01*
X246157Y156681D01*
X245689Y155871D01*
X245447Y154968D01*
Y154032D01*
X245689Y153129D01*
X246157Y152319D01*
X246819Y151657D01*
X247629Y151189D01*
X248532Y150947D01*
X249468D01*
X250371Y151189D01*
X251181Y151657D01*
X251843Y152319D01*
X252311Y153129D01*
X252553Y154032D01*
Y154968D01*
X252311Y155871D01*
X251843Y156681D01*
X251181Y157343D01*
X250371Y157811D01*
X249468Y158053D01*
D02*
G37*
G36*
X219276Y156387D02*
X218724D01*
X218214Y156176D01*
X217824Y155786D01*
X217613Y155276D01*
Y154724D01*
X216727Y153421D01*
X216670Y153379D01*
X216565D01*
Y150049D01*
X216565Y149620D01*
X216565D01*
X216861Y148671D01*
X216861Y148671D01*
Y142943D01*
X220620D01*
Y148671D01*
X220620D01*
X220128Y149620D01*
Y153379D01*
X220128Y153379D01*
X220387Y154724D01*
Y155276D01*
X220176Y155786D01*
X219786Y156176D01*
X219276Y156387D01*
D02*
G37*
G36*
X249468Y148053D02*
X248532D01*
X247629Y147811D01*
X246819Y147343D01*
X246157Y146681D01*
X245689Y145871D01*
X245447Y144968D01*
Y144032D01*
X245689Y143129D01*
X246157Y142319D01*
X246819Y141657D01*
X247629Y141189D01*
X248532Y140947D01*
X249468D01*
X250371Y141189D01*
X251181Y141657D01*
X251843Y142319D01*
X252311Y143129D01*
X252553Y144032D01*
Y144968D01*
X252311Y145871D01*
X251843Y146681D01*
X251181Y147343D01*
X250371Y147811D01*
X249468Y148053D01*
D02*
G37*
G36*
X168776Y251838D02*
X168224D01*
X167714Y251626D01*
X167324Y251236D01*
X167135Y250780D01*
X167121Y250747D01*
X167121Y250747D01*
X167113Y250726D01*
X166620Y249454D01*
X166621Y249454D01*
Y245892D01*
X170379D01*
Y249454D01*
X170379Y249454D01*
X169887Y250726D01*
X169879Y250746D01*
X169879Y250747D01*
X169865Y250780D01*
X169676Y251236D01*
X169286Y251626D01*
X168776Y251838D01*
D02*
G37*
G36*
X193947Y239344D02*
X191172D01*
Y234798D01*
X191172D01*
X190974Y233380D01*
X190392D01*
Y229621D01*
X192467D01*
X193000Y229087D01*
X194880Y227207D01*
X195244Y226964D01*
X195673Y226878D01*
X195673Y226878D01*
X197603D01*
X197991Y226490D01*
X198646Y226219D01*
X199354D01*
X200009Y226490D01*
X200510Y226991D01*
X200781Y227646D01*
Y228354D01*
X200510Y229009D01*
X200009Y229510D01*
X199354Y229781D01*
X198646D01*
X197991Y229510D01*
X197603Y229121D01*
X196138D01*
X193954Y231305D01*
Y233301D01*
X193954Y233380D01*
X193954D01*
X193947Y234798D01*
X193947D01*
Y236947D01*
Y239344D01*
D02*
G37*
G36*
X177101Y218029D02*
X175899D01*
X175601Y218029D01*
X171038D01*
Y212971D01*
X171038D01*
X171038Y212029D01*
X169989Y210964D01*
X169538Y210787D01*
X169247Y210907D01*
X168695D01*
X168185Y210696D01*
X167795Y210306D01*
X167583Y209796D01*
Y209244D01*
X167795Y208734D01*
X168185Y208343D01*
X168695Y208132D01*
X169247D01*
X169538Y208253D01*
X170426Y207905D01*
X171038Y207503D01*
Y206971D01*
X175601D01*
X175899Y206971D01*
X177101D01*
X177399Y206971D01*
X180608D01*
X182162Y205418D01*
X182144Y205133D01*
X181674Y203918D01*
X179529D01*
Y205462D01*
X174471D01*
Y200601D01*
X179529D01*
Y202082D01*
X182236D01*
X183482Y201000D01*
X183624Y200288D01*
X184027Y199685D01*
X184630Y199281D01*
X185342Y199140D01*
X192633D01*
X193345Y199281D01*
X193949Y199685D01*
X194352Y200288D01*
X194494Y201000D01*
X194352Y201712D01*
X193949Y202315D01*
X193345Y202719D01*
X193262Y202735D01*
D01*
D01*
Y204265D01*
X193345Y204281D01*
X193949Y204684D01*
X194352Y205288D01*
X194494Y206000D01*
X194352Y206712D01*
X193949Y207315D01*
X193345Y207719D01*
X192633Y207860D01*
X185342D01*
X184630Y207719D01*
X184027Y207315D01*
X182499Y207676D01*
X181962Y208213D01*
Y210446D01*
X183038Y211471D01*
X183231Y211471D01*
X187899D01*
Y216529D01*
X183038D01*
X181962Y217554D01*
Y218029D01*
X177399D01*
X177101Y218029D01*
D02*
G37*
G36*
X230441Y113321D02*
X228783Y113190D01*
X227165Y112802D01*
X225628Y112165D01*
X224210Y111296D01*
X222945Y110216D01*
X221865Y108951D01*
X220996Y107533D01*
X220359Y105996D01*
X219971Y104379D01*
X219841Y102720D01*
X219971Y101062D01*
X220359Y99445D01*
X220996Y97908D01*
X221865Y96490D01*
X222945Y95225D01*
X224210Y94144D01*
X225628Y93275D01*
X227165Y92639D01*
X228783Y92251D01*
X230441Y92120D01*
X232099Y92251D01*
X233717Y92639D01*
X235253Y93275D01*
X236672Y94144D01*
X237937Y95225D01*
X239017Y96490D01*
X239886Y97908D01*
X240523Y99445D01*
X240911Y101062D01*
X241041Y102720D01*
X240911Y104379D01*
X240523Y105996D01*
X239886Y107533D01*
X239017Y108951D01*
X237937Y110216D01*
X236672Y111296D01*
X235253Y112165D01*
X233717Y112802D01*
X232099Y113190D01*
X230441Y113321D01*
D02*
G37*
G36*
X151701D02*
X150042Y113190D01*
X148425Y112802D01*
X146888Y112165D01*
X145470Y111296D01*
X144205Y110216D01*
X143125Y108951D01*
X142256Y107533D01*
X141619Y105996D01*
X141231Y104379D01*
X141100Y102720D01*
X141231Y101062D01*
X141619Y99445D01*
X142256Y97908D01*
X143125Y96490D01*
X144205Y95225D01*
X145470Y94144D01*
X146888Y93275D01*
X148425Y92639D01*
X150042Y92251D01*
X151701Y92120D01*
X153359Y92251D01*
X154976Y92639D01*
X156513Y93275D01*
X157932Y94144D01*
X159196Y95225D01*
X160277Y96490D01*
X161146Y97908D01*
X161782Y99445D01*
X162171Y101062D01*
X162301Y102720D01*
X162171Y104379D01*
X161782Y105996D01*
X161146Y107533D01*
X160277Y108951D01*
X159196Y110216D01*
X157932Y111296D01*
X156513Y112165D01*
X154976Y112802D01*
X153359Y113190D01*
X151701Y113321D01*
D02*
G37*
G36*
X235154Y71873D02*
X232201D01*
X231391Y71712D01*
X230704Y71253D01*
X230245Y70566D01*
X230084Y69756D01*
Y64835D01*
X230245Y64025D01*
X230704Y63338D01*
X231391Y62879D01*
X232201Y62718D01*
X235154D01*
X235964Y62879D01*
X236650Y63338D01*
X237109Y64025D01*
X237271Y64835D01*
Y69756D01*
X237109Y70566D01*
X236650Y71253D01*
X235964Y71712D01*
X235154Y71873D01*
D02*
G37*
G36*
X234776Y58333D02*
X234224D01*
X233714Y58122D01*
X233324Y57732D01*
X233113Y57222D01*
Y56670D01*
X233324Y56160D01*
X233625Y55858D01*
X233324Y55557D01*
X233113Y55047D01*
Y54495D01*
X233324Y53985D01*
X233714Y53595D01*
X234224Y53384D01*
X234776D01*
X235157Y53541D01*
X239456D01*
X239725Y53361D01*
X240075Y53292D01*
X246571D01*
X246920Y53361D01*
X247216Y53559D01*
X247414Y53855D01*
X247484Y54205D01*
Y54795D01*
X247414Y55145D01*
X247239Y55484D01*
X247414Y55824D01*
X247484Y56173D01*
Y56764D01*
X247414Y57113D01*
X247216Y57409D01*
X246920Y57607D01*
X246571Y57677D01*
X240075D01*
X239725Y57607D01*
X239429Y57409D01*
X239414Y57386D01*
X235819D01*
X235676Y57732D01*
X235286Y58122D01*
X234776Y58333D01*
D02*
G37*
G36*
X246571Y51771D02*
X240075D01*
X239725Y51702D01*
X239429Y51504D01*
X239231Y51208D01*
X239162Y50858D01*
Y50268D01*
X239231Y49918D01*
X239429Y49622D01*
X239725Y49424D01*
X240075Y49355D01*
X246571D01*
X246920Y49424D01*
X247216Y49622D01*
X247414Y49918D01*
X247484Y50268D01*
Y50858D01*
X247414Y51208D01*
X247216Y51504D01*
X246920Y51702D01*
X246571Y51771D01*
D02*
G37*
G36*
X235154Y46282D02*
X232201D01*
X231391Y46121D01*
X230704Y45662D01*
X230245Y44976D01*
X230084Y44165D01*
Y39244D01*
X230245Y38434D01*
X230704Y37747D01*
X231391Y37288D01*
X232201Y37127D01*
X235154D01*
X235964Y37288D01*
X236650Y37747D01*
X237109Y38434D01*
X237271Y39244D01*
Y44165D01*
X237109Y44976D01*
X236650Y45662D01*
X235964Y46121D01*
X235154Y46282D01*
D02*
G37*
G36*
X152380Y267100D02*
X151021D01*
X149688Y266835D01*
X148433Y266315D01*
X147303Y265560D01*
X146342Y264599D01*
X145587Y263469D01*
X145067Y262213D01*
X144802Y260880D01*
Y259521D01*
X145067Y258188D01*
X145587Y256933D01*
X146342Y255803D01*
X147303Y254842D01*
X148433Y254087D01*
X149688Y253567D01*
X151021Y253302D01*
X152380D01*
X153713Y253567D01*
X154969Y254087D01*
X156099Y254842D01*
X157060Y255803D01*
X157815Y256933D01*
X158335Y258188D01*
X158600Y259521D01*
Y260880D01*
X158335Y262213D01*
X157815Y263469D01*
X157060Y264599D01*
X156099Y265560D01*
X154969Y266315D01*
X153713Y266835D01*
X152380Y267100D01*
D02*
G37*
G36*
X58933Y189675D02*
X58067D01*
X57268Y189344D01*
X56656Y188732D01*
X56325Y187933D01*
Y187067D01*
X56656Y186268D01*
X57268Y185656D01*
X57582Y185526D01*
Y183879D01*
X52872D01*
Y181418D01*
X51851Y180397D01*
X51652Y180099D01*
X51582Y179748D01*
Y179201D01*
X49131D01*
Y172489D01*
X54858D01*
Y172489D01*
X55430D01*
Y172489D01*
X61157D01*
Y179201D01*
X60900D01*
X59781Y180121D01*
Y183879D01*
X59418D01*
Y185526D01*
X59732Y185656D01*
X60344Y186268D01*
X60675Y187067D01*
Y187933D01*
X60344Y188732D01*
X59732Y189344D01*
X58933Y189675D01*
D02*
G37*
%LPD*%
D13*
X119000Y175825D02*
Y175902D01*
X114860Y175825D02*
X119000D01*
Y175902D02*
X121220Y178121D01*
X121234D01*
X192173Y231402D02*
Y231500D01*
Y231402D02*
X192854Y230720D01*
X192953D01*
X195673Y228000D01*
X199000D01*
X251753Y237500D02*
X260100Y229153D01*
X240000Y237500D02*
X251753D01*
X257500Y58500D02*
Y129030D01*
X260100Y131630D01*
Y229153D01*
X112673Y139902D02*
Y140000D01*
Y139902D02*
X113354Y139220D01*
X113453D01*
X114413Y138261D01*
X116239D01*
X116500Y138000D01*
X112862Y173827D02*
X114860Y175825D01*
X243323Y60405D02*
X255594D01*
X257500Y58500D01*
X243500Y34500D02*
X257500Y48500D01*
Y58500D01*
X65326Y47521D02*
X78347Y34500D01*
X243500D01*
D18*
X65500Y224500D02*
D03*
D19*
X243323Y48594D02*
D03*
Y50563D02*
D03*
Y52531D02*
D03*
Y54500D02*
D03*
Y56468D02*
D03*
Y58437D02*
D03*
Y60405D02*
D03*
D20*
X233677Y67295D02*
D03*
Y41705D02*
D03*
D21*
X119000Y176000D02*
D03*
Y172653D02*
D03*
X50000Y153827D02*
D03*
Y157173D02*
D03*
X65500Y151500D02*
D03*
Y154847D02*
D03*
X61000Y151500D02*
D03*
Y154847D02*
D03*
X95500Y194327D02*
D03*
Y197673D02*
D03*
X105000Y136827D02*
D03*
Y140173D02*
D03*
X64500Y162000D02*
D03*
Y165347D02*
D03*
X168500Y244327D02*
D03*
Y247673D02*
D03*
X182000Y245173D02*
D03*
Y241827D02*
D03*
X75000Y178000D02*
D03*
Y174653D02*
D03*
X251000Y57327D02*
D03*
Y60673D02*
D03*
D22*
X202420Y246355D02*
D03*
Y240292D02*
D03*
X142000Y224532D02*
D03*
Y218468D02*
D03*
Y236531D02*
D03*
Y230469D02*
D03*
X149964Y236531D02*
D03*
Y230469D02*
D03*
Y224532D02*
D03*
Y218468D02*
D03*
X158000Y236531D02*
D03*
Y230469D02*
D03*
Y224532D02*
D03*
Y218468D02*
D03*
X55500Y147968D02*
D03*
Y154032D02*
D03*
X96268Y93345D02*
D03*
Y99408D02*
D03*
X102537Y93387D02*
D03*
Y99449D02*
D03*
X108735Y82644D02*
D03*
Y88708D02*
D03*
X108500Y68468D02*
D03*
Y74532D02*
D03*
X177000Y196968D02*
D03*
Y203031D02*
D03*
D23*
X58294Y167184D02*
D03*
X51994Y175845D02*
D03*
X58294D02*
D03*
X51994Y167184D02*
D03*
D24*
X55500Y132500D02*
D03*
X52153D02*
D03*
X94515Y140720D02*
D03*
X97861D02*
D03*
X125827Y156000D02*
D03*
X129173D02*
D03*
X122153Y151500D02*
D03*
X125500D02*
D03*
X94653Y110000D02*
D03*
X98000D02*
D03*
X95414Y202129D02*
D03*
X98761D02*
D03*
X98761Y206678D02*
D03*
X95414D02*
D03*
X64346Y48500D02*
D03*
X61000D02*
D03*
X109327Y140000D02*
D03*
X112673D02*
D03*
X54654Y182000D02*
D03*
X58000D02*
D03*
X69000Y166000D02*
D03*
X72347D02*
D03*
X215000Y151500D02*
D03*
X218347D02*
D03*
X128327Y266500D02*
D03*
X131673D02*
D03*
X188827Y231500D02*
D03*
X192173D02*
D03*
X87673Y185000D02*
D03*
X84327D02*
D03*
D25*
X101740Y124724D02*
D03*
X98000D02*
D03*
X94260D02*
D03*
Y115276D02*
D03*
X101740D02*
D03*
D27*
X95499Y214499D02*
D03*
X93968Y270575D02*
D03*
X132833Y251066D02*
D03*
D28*
X99436Y212924D02*
D03*
X97467D02*
D03*
X93530D02*
D03*
X99436Y216074D02*
D03*
X97467D02*
D03*
X93530D02*
D03*
X91562Y212924D02*
D03*
Y216074D02*
D03*
X97905Y269000D02*
D03*
X95937D02*
D03*
X92000D02*
D03*
X97905Y272150D02*
D03*
X95937D02*
D03*
X92000D02*
D03*
X90031Y269000D02*
D03*
Y272150D02*
D03*
X136770Y249491D02*
D03*
Y252640D02*
D03*
X134801Y249491D02*
D03*
X130864D02*
D03*
X128896D02*
D03*
X134801Y252640D02*
D03*
X130864D02*
D03*
X128896D02*
D03*
D29*
X56032Y48500D02*
D03*
X49968D02*
D03*
X88032Y86500D02*
D03*
X81968D02*
D03*
X179532Y215500D02*
D03*
X173468D02*
D03*
X191532Y214000D02*
D03*
X185468D02*
D03*
X179532Y209500D02*
D03*
X173468D02*
D03*
X203000Y214500D02*
D03*
X209063D02*
D03*
X209032Y182000D02*
D03*
X202969D02*
D03*
X181532Y271500D02*
D03*
X175469D02*
D03*
D30*
X84417Y173827D02*
D03*
Y171858D02*
D03*
Y169890D02*
D03*
Y167921D02*
D03*
Y165953D02*
D03*
Y163984D02*
D03*
Y162016D02*
D03*
Y160047D02*
D03*
Y158079D02*
D03*
Y156110D02*
D03*
Y154142D02*
D03*
Y152173D02*
D03*
X111583D02*
D03*
Y154142D02*
D03*
Y156110D02*
D03*
Y158079D02*
D03*
Y160047D02*
D03*
Y162016D02*
D03*
Y163984D02*
D03*
Y165953D02*
D03*
Y167921D02*
D03*
Y169890D02*
D03*
Y171858D02*
D03*
Y173827D02*
D03*
D31*
X87173Y149417D02*
D03*
X89142D02*
D03*
X91110D02*
D03*
X93079D02*
D03*
X95047D02*
D03*
X97016D02*
D03*
X98984D02*
D03*
X100953D02*
D03*
X102921D02*
D03*
X104890D02*
D03*
X106858D02*
D03*
X108827D02*
D03*
Y176583D02*
D03*
X106858D02*
D03*
X104890D02*
D03*
X102921D02*
D03*
X100953D02*
D03*
X98984D02*
D03*
X97016D02*
D03*
X95047D02*
D03*
X93079D02*
D03*
X91110D02*
D03*
X89142D02*
D03*
X87173D02*
D03*
D32*
X98000Y163000D02*
D03*
D33*
X218740Y145807D02*
D03*
X211260D02*
D03*
X215000Y134193D02*
D03*
D34*
X77870Y57500D02*
D03*
X99130D02*
D03*
D35*
X118000Y89768D02*
D03*
Y73232D02*
D03*
D36*
X68000Y73004D02*
D03*
Y65996D02*
D03*
X221500Y188996D02*
D03*
Y196004D02*
D03*
D37*
X94760Y86315D02*
D03*
X98500D02*
D03*
X102240D02*
D03*
X94760Y75685D02*
D03*
X98500D02*
D03*
X102240D02*
D03*
D38*
X175500Y127878D02*
D03*
Y175122D02*
D03*
D39*
X191500Y93500D02*
D03*
Y115500D02*
D03*
D40*
X149232Y189000D02*
D03*
X165768D02*
D03*
D41*
X188988Y191000D02*
D03*
Y196000D02*
D03*
Y201000D02*
D03*
Y206000D02*
D03*
X208012D02*
D03*
Y201000D02*
D03*
Y196000D02*
D03*
D42*
Y191000D02*
D03*
D43*
X187441Y245929D02*
D03*
X190000D02*
D03*
X192559D02*
D03*
Y237071D02*
D03*
X190000D02*
D03*
X187441D02*
D03*
D44*
X179000Y259500D02*
D03*
X204000D02*
D03*
D45*
X149386Y282000D02*
D03*
X141512D02*
D03*
X147417D02*
D03*
X145449D02*
D03*
X143480D02*
D03*
X155291D02*
D03*
X153323D02*
D03*
X151354D02*
D03*
D46*
X135803D02*
D03*
X138953D02*
D03*
X157850D02*
D03*
X161000D02*
D03*
D65*
X198500Y198500D02*
D03*
D75*
X131445Y286043D02*
D03*
X165500D02*
D03*
D76*
X131445Y302500D02*
D03*
X165500D02*
D03*
D79*
X147394Y279808D02*
G03*
X151331Y279808I1969J0D01*
G01*
X149400Y284181D02*
G03*
X145463Y284181I-1969J0D01*
G01*
X112996Y167787D02*
X126287D01*
X126991Y166087D02*
X133683Y172779D01*
X126287Y167787D02*
X131983Y173483D01*
X133683Y172779D02*
Y246746D01*
X112996Y166087D02*
X126991D01*
X131983Y173483D02*
Y246746D01*
X135230Y264452D02*
X138775D01*
X131983Y261204D02*
X135230Y264452D01*
X138775D02*
X145583Y271260D01*
X133683Y260500D02*
X135934Y262752D01*
X139479D02*
X147283Y270555D01*
X135934Y262752D02*
X139479D01*
X134801Y249491D02*
Y252640D01*
X134770Y247833D02*
Y249460D01*
X134801Y249491D01*
X133683Y246746D02*
X134770Y247833D01*
X112920Y166011D02*
X112996Y166087D01*
X111583Y165953D02*
X111641Y166011D01*
X112920D01*
X130895Y247833D02*
Y249460D01*
X130864Y249491D02*
X130895Y249460D01*
X130864Y249491D02*
Y252640D01*
X130895Y247833D02*
X131983Y246746D01*
X111583Y167921D02*
X111641Y167863D01*
X112920D01*
X112996Y167787D01*
X147283Y270555D02*
Y279777D01*
X145583Y271260D02*
Y279777D01*
X145449Y279911D02*
Y282000D01*
X147283Y279777D02*
X147417Y279911D01*
Y282000D01*
X145449Y279911D02*
X145583Y279777D01*
X131983Y256751D02*
Y261204D01*
X133683Y256751D02*
Y260500D01*
Y256751D02*
X134801Y255632D01*
X130864Y252640D02*
Y255632D01*
X131983Y256751D01*
X134801Y252640D02*
Y255632D01*
D80*
X67258Y244863D02*
D03*
Y237382D02*
D03*
X59384Y241122D02*
D03*
D81*
X245326Y119826D02*
X258000Y132500D01*
X198620Y119826D02*
X245326D01*
X67258Y244863D02*
X67448D01*
X67629Y245044D01*
Y258129D01*
X68000Y258500D01*
X55500Y100000D02*
Y132500D01*
Y67500D02*
Y100000D01*
X254000Y226000D02*
X258000Y222000D01*
Y160000D02*
Y222000D01*
X59187Y241122D02*
X59384D01*
X59006Y240941D02*
X59187Y241122D01*
X59006Y240744D02*
Y240941D01*
X58371Y240109D02*
X59006Y240744D01*
X58371Y237371D02*
Y240109D01*
X58000Y237000D02*
X58371Y237371D01*
X55500Y140500D02*
Y147968D01*
Y132500D02*
Y140500D01*
Y67500D02*
X63000Y60000D01*
X73118Y237382D02*
X86000Y224500D01*
X67258Y237382D02*
X73118D01*
X118000Y89768D02*
X118033Y89735D01*
X123765D02*
X133500Y80000D01*
X118033Y89735D02*
X123765D01*
X133500Y80000D02*
X169500D01*
X178000Y88500D02*
Y109500D01*
X169500Y80000D02*
X178000Y88500D01*
X253500Y164500D02*
X258000Y160000D01*
Y132500D02*
Y160000D01*
X249000Y164500D02*
X253500D01*
X249000Y226000D02*
X254000D01*
X234000Y201000D02*
X249000Y216000D01*
X222193Y134193D02*
X234000Y146000D01*
Y201000D01*
X215000Y134193D02*
X222193D01*
D82*
X97953Y258547D02*
Y272102D01*
X97905Y274406D02*
X99300Y275800D01*
X104700D01*
X97905Y272150D02*
Y274406D01*
X97000Y277000D02*
X106500D01*
X104700Y275800D02*
X109500Y271000D01*
X95937Y272150D02*
Y275937D01*
X97000Y277000D01*
X90031Y269000D02*
Y272150D01*
Y268531D02*
Y269000D01*
X68000Y258500D02*
X75000Y265500D01*
X87000D01*
X90031Y268531D01*
X92000Y269000D02*
Y272150D01*
Y268022D02*
Y269000D01*
X78000Y258500D02*
X79000D01*
X84000Y263500D01*
X87477D01*
X92000Y268022D01*
X97905Y272150D02*
X97953Y272102D01*
Y258547D02*
X98000Y258500D01*
X95937Y269000D02*
Y272150D01*
Y266437D02*
Y269000D01*
X88000Y258500D02*
X95937Y266437D01*
X235076Y54459D02*
X243282D01*
X234764Y54771D02*
X235076Y54459D01*
X234500Y54771D02*
X234764D01*
X65500Y110000D02*
X94653D01*
X55500Y100000D02*
X65500Y110000D01*
X122390Y169890D02*
X123727Y171227D01*
Y179298D01*
X121025Y182000D02*
X123727Y179298D01*
X96000Y60630D02*
X99130Y57500D01*
X96000Y60630D02*
Y70000D01*
X81968Y75532D02*
X86250Y71250D01*
X94750D01*
X96000Y70000D01*
X81968Y75532D02*
Y86500D01*
X88217Y86315D02*
X94760D01*
X88032Y86500D02*
X88217Y86315D01*
X111583Y169890D02*
X122390D01*
X113000Y182000D02*
X121025D01*
X84742Y180294D02*
X87173Y177862D01*
X41500Y159500D02*
Y191500D01*
X60571Y210571D01*
X58000Y182000D02*
X58500Y182500D01*
Y187500D01*
X104890Y183527D02*
X107294Y185931D01*
X104890Y176583D02*
Y183527D01*
X121471Y152182D02*
X122153Y151500D01*
X111591Y152182D02*
X121471D01*
X125500Y151500D02*
Y155673D01*
X125827Y156000D01*
X125500Y146500D02*
Y151500D01*
X158000Y224532D02*
Y230469D01*
X157902Y224532D02*
X158000D01*
X154000Y220630D02*
X157902Y224532D01*
X152500Y208000D02*
X154000Y209500D01*
Y220630D01*
X143000Y204000D02*
X147000Y208000D01*
X152500D01*
X146000Y209700D02*
Y220665D01*
X141800Y205500D02*
X146000Y209700D01*
X141800Y152603D02*
Y205500D01*
X149866Y224532D02*
X149964D01*
X146000Y220665D02*
X149866Y224532D01*
X142000D02*
Y230469D01*
X141902Y224532D02*
X142000D01*
X138000Y220630D02*
X141902Y224532D01*
X138000Y216500D02*
Y220630D01*
X140600Y153100D02*
Y213900D01*
X138000Y216500D02*
X140600Y213900D01*
X158000Y246500D02*
X166313Y254813D01*
X169304D01*
X149964Y224532D02*
Y230469D01*
Y236531D02*
X158000D01*
X142000D02*
X149964D01*
X158000D02*
Y246500D01*
X163113Y259000D02*
X163163Y259050D01*
Y263064D01*
X155783Y270444D02*
X163163Y263064D01*
X168500Y247673D02*
Y250450D01*
X139312Y182691D02*
X139400Y182603D01*
X138603Y212237D02*
Y212367D01*
Y212237D02*
X139312Y211528D01*
Y182691D02*
Y211528D01*
X139400Y153900D02*
Y182603D01*
X118700Y133200D02*
X139400Y153900D01*
X120494Y129600D02*
X143000Y152106D01*
Y204000D01*
X119997Y130800D02*
X141800Y152603D01*
X119500Y132000D02*
X140600Y153100D01*
X182000Y241827D02*
X182000Y241827D01*
X182000Y238500D02*
Y241827D01*
X98526Y130800D02*
X119997D01*
X98029Y129600D02*
X120494D01*
X99023Y132000D02*
X119500D01*
X124667Y162008D02*
X126303Y163643D01*
X123882Y163939D02*
X123927Y163893D01*
X111628Y163939D02*
X123882D01*
X111583Y163984D02*
X111628Y163939D01*
X111591Y162008D02*
X124667D01*
X99520Y133200D02*
X118700D01*
X89142Y140184D02*
X98526Y130800D01*
X91110Y139913D02*
X99023Y132000D01*
X93079Y139641D02*
X99520Y133200D01*
X102621Y125605D02*
Y127913D01*
X87173Y140455D02*
X98029Y129600D01*
X87173Y140455D02*
Y149417D01*
X89142Y140184D02*
Y149417D01*
X91110Y139913D02*
Y149417D01*
X93079Y139641D02*
Y149417D01*
X102921Y145500D02*
Y149417D01*
X94458Y121780D02*
Y124527D01*
X95297Y120941D02*
X119089D01*
X94458Y121780D02*
X95297Y120941D01*
X94260Y124724D02*
X94458Y124527D01*
X119089Y120941D02*
X120518Y122370D01*
X120782D01*
X79421Y173827D02*
X84327Y178733D01*
X79421Y173827D02*
X84417D01*
X75827D02*
X79421D01*
X94260Y110394D02*
Y115276D01*
Y110394D02*
X94653Y110000D01*
X101740Y124724D02*
X102621Y125605D01*
X99642Y203086D02*
X119676D01*
X119663Y205698D02*
X119678Y205683D01*
X119676Y203086D02*
X119678Y203087D01*
X99642Y205698D02*
X119663D01*
X111583Y162016D02*
X111591Y162008D01*
X89981Y210571D02*
X91367Y211958D01*
X60571Y210571D02*
X89981D01*
X43827Y157173D02*
X50000D01*
X41500Y159500D02*
X43827Y157173D01*
X89500Y218000D02*
X91562Y215938D01*
X76000Y224500D02*
X82500Y218000D01*
X89500D01*
X91562Y212924D02*
Y215938D01*
X93530Y216074D02*
Y217051D01*
Y212924D02*
Y216074D01*
X86081Y224500D02*
X93530Y217051D01*
X86000Y224500D02*
X86081D01*
X99436Y212235D02*
X100722Y210949D01*
X99436Y212235D02*
Y216074D01*
X100722Y210815D02*
Y210949D01*
X99436Y216074D02*
Y217936D01*
X106000Y224500D01*
X97467Y216074D02*
Y221597D01*
X96000Y223064D02*
X97467Y221597D01*
X96000Y223064D02*
Y224500D01*
X97467Y212924D02*
Y216074D01*
Y210796D02*
Y212924D01*
Y210796D02*
X98500Y209764D01*
Y209500D02*
Y209764D01*
X106500Y277000D02*
X110000Y273500D01*
X128896Y252640D02*
Y255604D01*
Y249491D02*
Y252640D01*
X131445Y282894D02*
Y286043D01*
X124000Y275449D02*
X131445Y282894D01*
X124000Y260500D02*
Y275449D01*
Y260500D02*
X128896Y255604D01*
X121876Y191317D02*
X122140D01*
X121474Y191718D02*
X121876Y191317D01*
X98571Y187071D02*
X103218Y191718D01*
X121474D01*
X102725Y192930D02*
X121315D01*
X121876Y193491D01*
X122140D01*
X97365Y187571D02*
X102725Y192930D01*
X98761Y202129D02*
Y202205D01*
X99642Y203086D01*
X98761Y206579D02*
Y206678D01*
Y206579D02*
X99642Y205698D01*
X111428Y183572D02*
Y187897D01*
Y183572D02*
X113000Y182000D01*
X108827Y184327D02*
X109740Y185240D01*
Y189513D01*
X109713Y189540D02*
X109740Y189513D01*
X108827Y176583D02*
Y184327D01*
X64346Y48402D02*
Y48500D01*
Y48402D02*
X65228Y47521D01*
X65326D01*
X97365Y178316D02*
Y187571D01*
X97016Y177966D02*
X97365Y178316D01*
X97016Y176583D02*
Y177966D01*
X98571Y178379D02*
Y187071D01*
X98984Y176583D02*
Y177966D01*
X98571Y178379D02*
X98984Y177966D01*
X234977Y56468D02*
X243323D01*
X234500Y56946D02*
X234977Y56468D01*
X91110Y177966D02*
X91417Y178273D01*
Y202583D02*
X95414Y206579D01*
X91417Y178273D02*
Y202583D01*
X92623Y178406D02*
Y200619D01*
Y178406D02*
X93079Y177950D01*
X92623Y200619D02*
X93685Y201681D01*
X93079Y176583D02*
Y177950D01*
X93685Y201681D02*
X94966D01*
X95414Y202129D01*
X91110Y176583D02*
Y177966D01*
X218347Y151500D02*
X219000Y152154D01*
Y155000D01*
X95414Y206579D02*
Y206678D01*
X95047Y176583D02*
Y193874D01*
X95500Y194327D01*
X96176Y99500D02*
X96268Y99408D01*
X91000Y99500D02*
X96176D01*
X96268Y99408D02*
X102495D01*
X102537Y99449D01*
X102240Y93090D02*
X102495Y93345D01*
X103999D01*
X96268D02*
X102495D01*
X103999D02*
X108637Y88708D01*
X108735D01*
X102240Y86315D02*
Y93090D01*
X56032Y48500D02*
X61000D01*
X173449Y209520D02*
X173468Y209500D01*
X168971Y209520D02*
X173449D01*
X182877Y206000D02*
X188988D01*
X179532Y209500D02*
X181062Y207969D01*
Y207815D02*
X182877Y206000D01*
X181062Y207815D02*
Y207969D01*
X177032Y203000D02*
X183553D01*
X185553Y201000D02*
X188988D01*
X183553Y203000D02*
X185553Y201000D01*
X209032Y182000D02*
Y190075D01*
X208107Y191000D02*
X209032Y190075D01*
X208012Y191000D02*
X208107D01*
X218740Y145807D02*
Y151106D01*
X218347Y151500D02*
X218740Y151106D01*
X173468Y209500D02*
Y215500D01*
X173468Y215500D01*
X209063Y206854D02*
Y214500D01*
X208209Y206000D02*
X209063Y206854D01*
X208012Y206000D02*
X208209D01*
X181032Y214000D02*
X185468D01*
X179532Y215500D02*
X181032Y214000D01*
X179532Y209500D02*
Y215500D01*
X179532Y209500D02*
X179532Y209500D01*
X177000Y203031D02*
X177032Y203000D01*
X131673Y266500D02*
X132273Y267100D01*
X141512Y269239D02*
Y282000D01*
X139373Y267100D02*
X141512Y269239D01*
X132273Y267100D02*
X139373D01*
X155783Y270444D02*
Y276217D01*
X153323Y278677D02*
Y282000D01*
Y278677D02*
X155783Y276217D01*
X192559Y231886D02*
Y237071D01*
X192173Y231500D02*
X192559Y231886D01*
X182000Y245173D02*
X186953D01*
X187441Y245661D01*
Y245929D01*
X181500Y257000D02*
X187500D01*
X195000D02*
X201000D01*
X192559Y245929D02*
Y254559D01*
X195000Y257000D01*
X190000Y245929D02*
Y254500D01*
X187500Y257000D02*
X190000Y254500D01*
X50000Y157173D02*
X74173D01*
X79016Y162016D02*
X84417D01*
X74173Y157173D02*
X79016Y162016D01*
X61154Y155000D02*
X80000D01*
X56315Y154847D02*
X61000D01*
X55500Y154032D02*
X56315Y154847D01*
X61000D02*
X61154Y155000D01*
X83079Y158079D02*
X84417D01*
X80000Y155000D02*
X83079Y158079D01*
X51994Y175845D02*
X52500Y176351D01*
X54654Y181902D02*
Y182000D01*
X52500Y179748D02*
X54654Y181902D01*
X52500Y176351D02*
Y179748D01*
X58294Y175845D02*
Y181706D01*
X58000Y182000D02*
X58294Y181706D01*
X59477Y166000D02*
X69000D01*
X58294Y167184D02*
X59477Y166000D01*
X72394Y165953D02*
X84417D01*
X72347Y166000D02*
X72394Y165953D01*
X75000Y174653D02*
X75827Y173827D01*
X87173Y176583D02*
Y177862D01*
X84327Y180709D02*
Y185000D01*
X111583Y173827D02*
X112862D01*
X108827Y148138D02*
Y149417D01*
Y148138D02*
X112673Y144291D01*
Y140000D02*
Y144291D01*
X104890Y140284D02*
Y149417D01*
Y140284D02*
X105000Y140173D01*
D83*
X93970Y270576D02*
Y274366D01*
X95500Y214500D02*
Y218290D01*
X132833Y251066D02*
X132834Y251067D01*
Y254857D01*
X132835Y254858D01*
D84*
X68000Y258500D02*
D03*
X78000D02*
D03*
X88000D02*
D03*
X98000D02*
D03*
X106000Y224500D02*
D03*
X96000D02*
D03*
X86000D02*
D03*
X76000D02*
D03*
X249000Y144500D02*
D03*
Y154500D02*
D03*
Y164500D02*
D03*
Y216000D02*
D03*
D85*
X108000Y258500D02*
D03*
X116000Y224500D02*
D03*
D86*
X247000Y291500D02*
D03*
D87*
X227315D02*
D03*
D88*
X249000Y174500D02*
D03*
Y226000D02*
D03*
D89*
X164500Y116500D02*
D03*
X169500Y107000D02*
D03*
X196500Y105500D02*
D03*
X191000D02*
D03*
X186500D02*
D03*
X181500Y101500D02*
D03*
Y105500D02*
D03*
X174500Y101500D02*
D03*
Y105000D02*
D03*
X76047Y76420D02*
D03*
X80444Y71560D02*
D03*
X101996Y109759D02*
D03*
X96981Y127934D02*
D03*
X145917Y227904D02*
D03*
X154022Y224462D02*
D03*
X153997Y233646D02*
D03*
X145904Y233570D02*
D03*
X172662Y239583D02*
D03*
X175554Y248590D02*
D03*
X182308Y249095D02*
D03*
X160081Y261962D02*
D03*
X157325Y266009D02*
D03*
X146347Y266440D02*
D03*
X136875Y259336D02*
D03*
X142472Y261532D02*
D03*
X173320Y275890D02*
D03*
X173131Y279446D02*
D03*
X168819Y279274D02*
D03*
X168699Y275787D02*
D03*
X163494Y279205D02*
D03*
X132037Y278843D02*
D03*
X133404Y272679D02*
D03*
X126840Y274362D02*
D03*
X129912Y273037D02*
D03*
X128944Y259286D02*
D03*
X129611Y262232D02*
D03*
X126862Y262310D02*
D03*
X153674Y287207D02*
D03*
X147565Y289431D02*
D03*
X142233Y287454D02*
D03*
X139031Y272179D02*
D03*
X138850Y269524D02*
D03*
X136931Y273656D02*
D03*
X136602Y270564D02*
D03*
X138893Y275131D02*
D03*
X161254Y275401D02*
D03*
X161116Y272992D02*
D03*
X161047Y270009D02*
D03*
X158271Y271661D02*
D03*
X158340Y274896D02*
D03*
X77945Y152160D02*
D03*
X88189Y189412D02*
D03*
X115042Y172266D02*
D03*
X134642Y153283D02*
D03*
X116070Y143680D02*
D03*
X119901Y137476D02*
D03*
X109500Y135500D02*
D03*
X100500Y137000D02*
D03*
X99000Y145000D02*
D03*
X95500D02*
D03*
X80617Y38155D02*
D03*
X74500Y42500D02*
D03*
X80500D02*
D03*
X255000Y241000D02*
D03*
Y249000D02*
D03*
Y257000D02*
D03*
Y265000D02*
D03*
X242500Y195500D02*
D03*
Y189500D02*
D03*
Y183500D02*
D03*
X248500Y195500D02*
D03*
Y189500D02*
D03*
Y183500D02*
D03*
X171500Y196000D02*
D03*
X182000Y195000D02*
D03*
Y199000D02*
D03*
X146000Y141500D02*
D03*
Y147500D02*
D03*
Y153500D02*
D03*
Y159500D02*
D03*
Y165500D02*
D03*
Y171500D02*
D03*
Y177500D02*
D03*
X136333Y158359D02*
D03*
X136550Y177687D02*
D03*
Y183686D02*
D03*
X136333Y164359D02*
D03*
X158964Y83123D02*
D03*
X152963D02*
D03*
X146964D02*
D03*
X140963D02*
D03*
X158964Y89123D02*
D03*
X152963D02*
D03*
X146964D02*
D03*
X140963D02*
D03*
X134964D02*
D03*
Y95123D02*
D03*
Y101123D02*
D03*
Y107123D02*
D03*
X135000Y113000D02*
D03*
X123000Y95500D02*
D03*
Y102500D02*
D03*
X123226Y113290D02*
D03*
X123448Y118852D02*
D03*
X253000Y138000D02*
D03*
Y70500D02*
D03*
Y82500D02*
D03*
Y94500D02*
D03*
Y106500D02*
D03*
Y118500D02*
D03*
X223000Y41500D02*
D03*
X215000D02*
D03*
X207000D02*
D03*
X199000D02*
D03*
X191000D02*
D03*
X183000D02*
D03*
X175000D02*
D03*
X167000D02*
D03*
X159000D02*
D03*
X151000D02*
D03*
X143439Y41648D02*
D03*
X109729Y214114D02*
D03*
X110647Y200718D02*
D03*
X114745Y189157D02*
D03*
X122391Y198516D02*
D03*
X122413Y188061D02*
D03*
X125866Y189097D02*
D03*
X125417Y185886D02*
D03*
X127500Y160500D02*
D03*
Y133000D02*
D03*
Y128000D02*
D03*
Y120500D02*
D03*
Y115500D02*
D03*
Y108000D02*
D03*
Y100500D02*
D03*
X127529Y92341D02*
D03*
X133500Y74500D02*
D03*
X139500Y69500D02*
D03*
X144000Y64000D02*
D03*
X150000Y60000D02*
D03*
X159000Y59500D02*
D03*
X170000D02*
D03*
X181000D02*
D03*
X191500D02*
D03*
X202000D02*
D03*
X213500D02*
D03*
X210000Y50000D02*
D03*
X195000D02*
D03*
X177500Y49500D02*
D03*
X164500Y50500D02*
D03*
X151000Y50000D02*
D03*
X140000Y52000D02*
D03*
X134500Y58000D02*
D03*
X130000Y63000D02*
D03*
X116500Y159000D02*
D03*
Y155000D02*
D03*
X115500Y150000D02*
D03*
X114500Y147500D02*
D03*
X108360Y144530D02*
D03*
X83843Y146315D02*
D03*
X81253Y149192D02*
D03*
X79000Y158000D02*
D03*
X95434Y210222D02*
D03*
X83500Y199000D02*
D03*
X75000Y200500D02*
D03*
X68500D02*
D03*
X58000Y227000D02*
D03*
X49000Y213500D02*
D03*
X60000Y214500D02*
D03*
X70000Y215000D02*
D03*
X77000Y214500D02*
D03*
X113000Y242500D02*
D03*
X108000D02*
D03*
X103000D02*
D03*
X98000D02*
D03*
X93000D02*
D03*
X207500Y235500D02*
D03*
X211000Y233000D02*
D03*
X194500Y222000D02*
D03*
X202500D02*
D03*
X210500D02*
D03*
X239000Y216000D02*
D03*
X234000Y221500D02*
D03*
Y210500D02*
D03*
X218000Y174500D02*
D03*
X217500Y161500D02*
D03*
X211500Y168000D02*
D03*
X226000Y169000D02*
D03*
X205500Y157500D02*
D03*
Y145500D02*
D03*
X205000Y137500D02*
D03*
X249500Y137000D02*
D03*
X237000Y141500D02*
D03*
X232253Y136971D02*
D03*
X243500Y124000D02*
D03*
X236500D02*
D03*
X222500Y124500D02*
D03*
X213000Y124000D02*
D03*
X208000D02*
D03*
X203000D02*
D03*
X249500Y53000D02*
D03*
X250000Y71500D02*
D03*
X240500Y67000D02*
D03*
Y40500D02*
D03*
X226000Y50000D02*
D03*
X230000D02*
D03*
X226500Y60000D02*
D03*
X230974Y60116D02*
D03*
X145000Y113000D02*
D03*
X139000D02*
D03*
X135000Y119000D02*
D03*
X144500Y121000D02*
D03*
X135000Y125000D02*
D03*
X133500Y44500D02*
D03*
X127500D02*
D03*
X121500D02*
D03*
X127500Y50500D02*
D03*
X121500D02*
D03*
X81500Y96500D02*
D03*
X75500D02*
D03*
X69500D02*
D03*
X81500Y102500D02*
D03*
X75500D02*
D03*
X69500D02*
D03*
X113500Y125000D02*
D03*
X107000D02*
D03*
X81500Y114500D02*
D03*
X75500D02*
D03*
X69500D02*
D03*
X81500Y120500D02*
D03*
X75500D02*
D03*
X69500D02*
D03*
X81500Y126500D02*
D03*
X75500D02*
D03*
X69500D02*
D03*
X55796Y184885D02*
D03*
X62329Y191652D02*
D03*
X56737Y192325D02*
D03*
X61811Y183990D02*
D03*
X63977Y181287D02*
D03*
X64511Y170528D02*
D03*
X64019Y175765D02*
D03*
X70253Y170170D02*
D03*
X78698Y169689D02*
D03*
X75181Y161997D02*
D03*
X59738Y160394D02*
D03*
X52408Y160804D02*
D03*
X48777Y182975D02*
D03*
X51022Y191593D02*
D03*
X45983Y161676D02*
D03*
X46102Y168390D02*
D03*
X46043Y175580D02*
D03*
X67730Y182947D02*
D03*
X67908Y177897D02*
D03*
X109949Y208081D02*
D03*
X113874Y198986D02*
D03*
X99392Y192761D02*
D03*
X105448Y189242D02*
D03*
X101512Y183719D02*
D03*
X111401Y176542D02*
D03*
X129238Y197959D02*
D03*
X129415Y208904D02*
D03*
X129330Y217535D02*
D03*
X135981Y217799D02*
D03*
X128776Y227797D02*
D03*
X128979Y240680D02*
D03*
X136637Y240832D02*
D03*
X136550Y189687D02*
D03*
X136615Y205597D02*
D03*
X136333Y170359D02*
D03*
X154099Y241367D02*
D03*
X145811D02*
D03*
X160327Y211793D02*
D03*
X148169Y211938D02*
D03*
X143180Y211599D02*
D03*
X136446Y227633D02*
D03*
X151484Y201500D02*
D03*
X185701Y209348D02*
D03*
X196310Y234842D02*
D03*
X196221Y231873D02*
D03*
X184500Y230000D02*
D03*
Y233000D02*
D03*
X195300Y252276D02*
D03*
X191298Y256789D02*
D03*
X187000Y252500D02*
D03*
X167000Y235000D02*
D03*
X256728Y228700D02*
D03*
X141306Y256834D02*
D03*
X159849Y255040D02*
D03*
X82500Y267500D02*
D03*
X103000Y272000D02*
D03*
X101000Y265000D02*
D03*
X101112Y223230D02*
D03*
X91458Y222226D02*
D03*
X82724Y221139D02*
D03*
X171000Y282500D02*
D03*
X175500Y277500D02*
D03*
X171000D02*
D03*
X166500D02*
D03*
X126819Y270638D02*
D03*
X129112Y276655D02*
D03*
X135150Y277938D02*
D03*
X131826Y270260D02*
D03*
X132058Y275729D02*
D03*
X89339Y171661D02*
D03*
X93669D02*
D03*
X98000D02*
D03*
X102331D02*
D03*
X106661D02*
D03*
X89339Y167331D02*
D03*
X93669D02*
D03*
X98000D02*
D03*
X102331D02*
D03*
X106661D02*
D03*
X89339Y163000D02*
D03*
X93669D02*
D03*
X98000D02*
D03*
X102331D02*
D03*
X106661D02*
D03*
X89339Y158669D02*
D03*
X93669D02*
D03*
X98000D02*
D03*
X102331D02*
D03*
X106661D02*
D03*
X89339Y154339D02*
D03*
X93669D02*
D03*
X98000D02*
D03*
X102331D02*
D03*
X106661D02*
D03*
D90*
X214776Y209446D02*
D03*
X212000Y209500D02*
D03*
X196264Y194180D02*
D03*
X198432D02*
D03*
X200600D02*
D03*
X196264Y196347D02*
D03*
X198432D02*
D03*
X200600D02*
D03*
X196264Y198515D02*
D03*
X198432D02*
D03*
X200600D02*
D03*
Y200683D02*
D03*
X198432D02*
D03*
X196264D02*
D03*
X200600Y202850D02*
D03*
X198432D02*
D03*
X196264D02*
D03*
X94751Y74621D02*
D03*
X94797Y76941D02*
D03*
X90500Y82500D02*
D03*
Y73500D02*
D03*
Y76500D02*
D03*
Y79500D02*
D03*
X93500D02*
D03*
Y82500D02*
D03*
X96500D02*
D03*
X99500D02*
D03*
X96500Y79500D02*
D03*
X99500D02*
D03*
X102500Y82500D02*
D03*
Y79500D02*
D03*
X123968Y159794D02*
D03*
X123783Y142615D02*
D03*
X107294Y185931D02*
D03*
X125500Y146500D02*
D03*
X163113Y259000D02*
D03*
X168500Y250450D02*
D03*
X138603Y212367D02*
D03*
X182000Y238500D02*
D03*
X126303Y163643D02*
D03*
X123927Y163893D02*
D03*
X102621Y127913D02*
D03*
X103000Y145500D02*
D03*
X120782Y122370D02*
D03*
X119678Y205683D02*
D03*
Y203087D02*
D03*
X100722Y210815D02*
D03*
X98500Y209500D02*
D03*
X110000Y273500D02*
D03*
X93971Y274368D02*
D03*
X109500Y271000D02*
D03*
X95501Y218292D02*
D03*
X122140Y191317D02*
D03*
Y193491D02*
D03*
X111428Y187897D02*
D03*
X109713Y189540D02*
D03*
X132835Y254858D02*
D03*
X234500Y56946D02*
D03*
Y54771D02*
D03*
X173500Y115500D02*
D03*
X219000Y155000D02*
D03*
X63000Y60000D02*
D03*
X91000Y99500D02*
D03*
X168971Y209520D02*
D03*
D91*
X42500Y229000D02*
D03*
Y237000D02*
D03*
Y245000D02*
D03*
Y253500D02*
D03*
Y261500D02*
D03*
Y269500D02*
D03*
Y278000D02*
D03*
Y286000D02*
D03*
Y294000D02*
D03*
X41500Y149000D02*
D03*
Y140500D02*
D03*
Y132000D02*
D03*
Y123500D02*
D03*
Y115000D02*
D03*
Y106500D02*
D03*
Y98000D02*
D03*
Y89500D02*
D03*
Y81000D02*
D03*
Y72500D02*
D03*
Y64000D02*
D03*
Y55500D02*
D03*
Y47000D02*
D03*
Y38500D02*
D03*
X45500Y30000D02*
D03*
X54000D02*
D03*
X62500D02*
D03*
X71000D02*
D03*
X79500D02*
D03*
X100000D02*
D03*
X108500D02*
D03*
X117000D02*
D03*
X125500D02*
D03*
X134000D02*
D03*
X142500D02*
D03*
X151000D02*
D03*
X159000D02*
D03*
X167500D02*
D03*
X176000D02*
D03*
X184500D02*
D03*
X193000D02*
D03*
X201500D02*
D03*
X210000D02*
D03*
X218500D02*
D03*
X227000D02*
D03*
X235500D02*
D03*
X244000D02*
D03*
X252500D02*
D03*
X263500Y37000D02*
D03*
Y45500D02*
D03*
Y53500D02*
D03*
Y61500D02*
D03*
Y70000D02*
D03*
Y78000D02*
D03*
Y86000D02*
D03*
Y94000D02*
D03*
Y102500D02*
D03*
Y110500D02*
D03*
Y119000D02*
D03*
Y144000D02*
D03*
Y152000D02*
D03*
Y160000D02*
D03*
Y168000D02*
D03*
Y176500D02*
D03*
Y184500D02*
D03*
Y192500D02*
D03*
Y201000D02*
D03*
Y209000D02*
D03*
Y217000D02*
D03*
Y225500D02*
D03*
X261000Y241000D02*
D03*
Y249000D02*
D03*
Y257000D02*
D03*
Y265000D02*
D03*
Y273500D02*
D03*
Y281500D02*
D03*
Y289500D02*
D03*
X139500Y294000D02*
D03*
X147500D02*
D03*
X155500D02*
D03*
X51557Y286010D02*
D03*
Y294010D02*
D03*
X59557D02*
D03*
Y286010D02*
D03*
X67557Y294010D02*
D03*
Y286010D02*
D03*
X75557Y294010D02*
D03*
Y286010D02*
D03*
X83557Y294010D02*
D03*
Y286010D02*
D03*
X91557D02*
D03*
Y294010D02*
D03*
X99557D02*
D03*
Y286010D02*
D03*
X107557Y294010D02*
D03*
Y286010D02*
D03*
X115557Y294010D02*
D03*
Y286010D02*
D03*
X123557Y294010D02*
D03*
Y286010D02*
D03*
X51557Y302010D02*
D03*
X59557D02*
D03*
X67557D02*
D03*
X75557D02*
D03*
X83557D02*
D03*
X91557D02*
D03*
X99557D02*
D03*
X107557D02*
D03*
X115557D02*
D03*
X123557D02*
D03*
X139500Y302000D02*
D03*
X147500D02*
D03*
X155500D02*
D03*
X211500Y286000D02*
D03*
Y294000D02*
D03*
X203500Y286000D02*
D03*
Y294000D02*
D03*
X195500Y286000D02*
D03*
Y294000D02*
D03*
X187500Y286000D02*
D03*
Y294000D02*
D03*
X211500Y302000D02*
D03*
X203500D02*
D03*
X195500D02*
D03*
X187500D02*
D03*
X179500D02*
D03*
Y294000D02*
D03*
Y286000D02*
D03*
X121234Y178121D02*
D03*
X199000Y228000D02*
D03*
X240000Y237500D02*
D03*
X116500Y138000D02*
D03*
D92*
X58000Y237000D02*
D03*
X55500Y140500D02*
D03*
D93*
X84414Y179966D02*
D03*
X58500Y187500D02*
D03*
M02*
