G04*
G04 #@! TF.GenerationSoftware,Altium Limited,Altium Designer,23.5.1 (21)*
G04*
G04 Layer_Color=8388736*
%FSLAX25Y25*%
%MOIN*%
G70*
G04*
G04 #@! TF.SameCoordinates,89F97100-6FF8-4533-BDCD-A1BC4398B3AB*
G04*
G04*
G04 #@! TF.FilePolarity,Negative*
G04*
G01*
G75*
G04:AMPARAMS|DCode=19|XSize=11.81mil|YSize=70.87mil|CornerRadius=2.95mil|HoleSize=0mil|Usage=FLASHONLY|Rotation=270.000|XOffset=0mil|YOffset=0mil|HoleType=Round|Shape=RoundedRectangle|*
%AMROUNDEDRECTD19*
21,1,0.01181,0.06496,0,0,270.0*
21,1,0.00591,0.07087,0,0,270.0*
1,1,0.00591,-0.03248,-0.00295*
1,1,0.00591,-0.03248,0.00295*
1,1,0.00591,0.03248,0.00295*
1,1,0.00591,0.03248,-0.00295*
%
%ADD19ROUNDEDRECTD19*%
G04:AMPARAMS|DCode=20|XSize=78.74mil|YSize=59.06mil|CornerRadius=14.76mil|HoleSize=0mil|Usage=FLASHONLY|Rotation=270.000|XOffset=0mil|YOffset=0mil|HoleType=Round|Shape=RoundedRectangle|*
%AMROUNDEDRECTD20*
21,1,0.07874,0.02953,0,0,270.0*
21,1,0.04921,0.05906,0,0,270.0*
1,1,0.02953,-0.01476,-0.02461*
1,1,0.02953,-0.01476,0.02461*
1,1,0.02953,0.01476,0.02461*
1,1,0.02953,0.01476,-0.02461*
%
%ADD20ROUNDEDRECTD20*%
%ADD27R,0.01575X0.05512*%
%ADD28R,0.00984X0.02362*%
G04:AMPARAMS|DCode=37|XSize=43.31mil|YSize=23.62mil|CornerRadius=2.01mil|HoleSize=0mil|Usage=FLASHONLY|Rotation=90.000|XOffset=0mil|YOffset=0mil|HoleType=Round|Shape=RoundedRectangle|*
%AMROUNDEDRECTD37*
21,1,0.04331,0.01961,0,0,90.0*
21,1,0.03929,0.02362,0,0,90.0*
1,1,0.00402,0.00980,0.01965*
1,1,0.00402,0.00980,-0.01965*
1,1,0.00402,-0.00980,-0.01965*
1,1,0.00402,-0.00980,0.01965*
%
%ADD37ROUNDEDRECTD37*%
G04:AMPARAMS|DCode=41|XSize=97.4mil|YSize=24.49mil|CornerRadius=12.25mil|HoleSize=0mil|Usage=FLASHONLY|Rotation=180.000|XOffset=0mil|YOffset=0mil|HoleType=Round|Shape=RoundedRectangle|*
%AMROUNDEDRECTD41*
21,1,0.09740,0.00000,0,0,180.0*
21,1,0.07291,0.02449,0,0,180.0*
1,1,0.02449,-0.03646,0.00000*
1,1,0.02449,0.03646,0.00000*
1,1,0.02449,0.03646,0.00000*
1,1,0.02449,-0.03646,0.00000*
%
%ADD41ROUNDEDRECTD41*%
%ADD42R,0.09740X0.02449*%
G04:AMPARAMS|DCode=47|XSize=47.37mil|YSize=47.37mil|CornerRadius=13.84mil|HoleSize=0mil|Usage=FLASHONLY|Rotation=0.000|XOffset=0mil|YOffset=0mil|HoleType=Round|Shape=RoundedRectangle|*
%AMROUNDEDRECTD47*
21,1,0.04737,0.01968,0,0,0.0*
21,1,0.01968,0.04737,0,0,0.0*
1,1,0.02769,0.00984,-0.00984*
1,1,0.02769,-0.00984,-0.00984*
1,1,0.02769,-0.00984,0.00984*
1,1,0.02769,0.00984,0.00984*
%
%ADD47ROUNDEDRECTD47*%
%ADD48R,0.02959X0.02762*%
%ADD49R,0.04658X0.04461*%
%ADD50R,0.05328X0.06312*%
%ADD51R,0.02762X0.02959*%
%ADD52R,0.03162X0.05131*%
%ADD53R,0.03556X0.03162*%
%ADD54R,0.04461X0.04658*%
%ADD55O,0.04343X0.01784*%
%ADD56O,0.01784X0.04343*%
%ADD57R,0.22847X0.22847*%
%ADD58R,0.03359X0.05328*%
G04:AMPARAMS|DCode=59|XSize=106.42mil|YSize=236.35mil|CornerRadius=28.61mil|HoleSize=0mil|Usage=FLASHONLY|Rotation=180.000|XOffset=0mil|YOffset=0mil|HoleType=Round|Shape=RoundedRectangle|*
%AMROUNDEDRECTD59*
21,1,0.10642,0.17913,0,0,180.0*
21,1,0.04921,0.23635,0,0,180.0*
1,1,0.05721,-0.02461,0.08957*
1,1,0.05721,0.02461,0.08957*
1,1,0.05721,0.02461,-0.08957*
1,1,0.05721,-0.02461,-0.08957*
%
%ADD59ROUNDEDRECTD59*%
%ADD60R,0.08674X0.08674*%
%ADD61R,0.06587X0.05367*%
%ADD62R,0.16548X0.12611*%
%ADD63R,0.08674X0.14973*%
%ADD64R,0.08674X0.08674*%
%ADD65R,0.07972X0.12205*%
%ADD66R,0.01975X0.03747*%
%ADD67R,0.10642X0.14973*%
%ADD68O,0.01981X0.06115*%
%ADD69O,0.03162X0.06115*%
%ADD70C,0.06706*%
%ADD71R,0.06706X0.06706*%
%ADD72C,0.10249*%
%ADD73R,0.10249X0.10249*%
%ADD74R,0.06706X0.06706*%
G04:AMPARAMS|DCode=75|XSize=39.37mil|YSize=102.36mil|CornerRadius=9.84mil|HoleSize=0mil|Usage=FLASHONLY|Rotation=180.000|XOffset=0mil|YOffset=0mil|HoleType=Round|Shape=RoundedRectangle|*
%AMROUNDEDRECTD75*
21,1,0.03937,0.08268,0,0,180.0*
21,1,0.01968,0.10236,0,0,180.0*
1,1,0.01968,-0.00984,0.04134*
1,1,0.01968,0.00984,0.04134*
1,1,0.01968,0.00984,-0.04134*
1,1,0.01968,-0.00984,-0.04134*
%
%ADD75ROUNDEDRECTD75*%
G04:AMPARAMS|DCode=76|XSize=59.06mil|YSize=94.49mil|CornerRadius=14.76mil|HoleSize=0mil|Usage=FLASHONLY|Rotation=180.000|XOffset=0mil|YOffset=0mil|HoleType=Round|Shape=RoundedRectangle|*
%AMROUNDEDRECTD76*
21,1,0.05906,0.06496,0,0,180.0*
21,1,0.02953,0.09449,0,0,180.0*
1,1,0.02953,-0.01476,0.03248*
1,1,0.02953,0.01476,0.03248*
1,1,0.02953,0.01476,-0.03248*
1,1,0.02953,-0.01476,-0.03248*
%
%ADD76ROUNDEDRECTD76*%
G04:AMPARAMS|DCode=77|XSize=8mil|YSize=8mil|CornerRadius=0mil|HoleSize=0mil|Usage=FLASHONLY|Rotation=0.000|XOffset=0mil|YOffset=0mil|HoleType=Round|Shape=RoundedRectangle|*
%AMROUNDEDRECTD77*
21,1,0.00800,0.00800,0,0,0.0*
21,1,0.00800,0.00800,0,0,0.0*
1,1,0.00000,0.00400,-0.00400*
1,1,0.00000,-0.00400,-0.00400*
1,1,0.00000,-0.00400,0.00400*
1,1,0.00000,0.00400,0.00400*
%
%ADD77ROUNDEDRECTD77*%
%ADD78C,0.02769*%
D19*
X243323Y48594D02*
D03*
Y50563D02*
D03*
Y52531D02*
D03*
Y54500D02*
D03*
Y56468D02*
D03*
Y58437D02*
D03*
Y60405D02*
D03*
D20*
X233677Y67295D02*
D03*
Y41705D02*
D03*
D27*
X95499Y214499D02*
D03*
X93968Y270575D02*
D03*
X132833Y251066D02*
D03*
D28*
X99436Y212924D02*
D03*
X97467D02*
D03*
X93530D02*
D03*
X99436Y216074D02*
D03*
X97467D02*
D03*
X93530D02*
D03*
X91562Y212924D02*
D03*
Y216074D02*
D03*
X97905Y269000D02*
D03*
X95937D02*
D03*
X92000D02*
D03*
X97905Y272150D02*
D03*
X95937D02*
D03*
X92000D02*
D03*
X90031Y269000D02*
D03*
Y272150D02*
D03*
X136770Y249491D02*
D03*
Y252640D02*
D03*
X134801Y249491D02*
D03*
X130864D02*
D03*
X128896D02*
D03*
X134801Y252640D02*
D03*
X130864D02*
D03*
X128896D02*
D03*
D37*
X94760Y86315D02*
D03*
X98500D02*
D03*
X102240D02*
D03*
X94760Y75685D02*
D03*
X98500D02*
D03*
X102240D02*
D03*
D41*
X188988Y191000D02*
D03*
Y196000D02*
D03*
Y201000D02*
D03*
Y206000D02*
D03*
X208012D02*
D03*
Y201000D02*
D03*
Y196000D02*
D03*
D42*
Y191000D02*
D03*
D47*
X65500Y224500D02*
D03*
D48*
X119000Y176000D02*
D03*
Y172653D02*
D03*
X50000Y153827D02*
D03*
Y157173D02*
D03*
X65500Y151500D02*
D03*
Y154847D02*
D03*
X61000Y151500D02*
D03*
Y154847D02*
D03*
X95500Y194327D02*
D03*
Y197673D02*
D03*
X105000Y136827D02*
D03*
Y140173D02*
D03*
X64500Y162000D02*
D03*
Y165347D02*
D03*
X168500Y244327D02*
D03*
Y247673D02*
D03*
X182000Y245173D02*
D03*
Y241827D02*
D03*
X75000Y178000D02*
D03*
Y174653D02*
D03*
X251000Y57327D02*
D03*
Y60673D02*
D03*
D49*
X202420Y246355D02*
D03*
Y240292D02*
D03*
X142000Y224532D02*
D03*
Y218468D02*
D03*
Y236531D02*
D03*
Y230469D02*
D03*
X149964Y236531D02*
D03*
Y230469D02*
D03*
Y224532D02*
D03*
Y218468D02*
D03*
X158000Y236531D02*
D03*
Y230469D02*
D03*
Y224532D02*
D03*
Y218468D02*
D03*
X55500Y147968D02*
D03*
Y154032D02*
D03*
X96268Y93345D02*
D03*
Y99408D02*
D03*
X102537Y93387D02*
D03*
Y99449D02*
D03*
X108735Y82644D02*
D03*
Y88708D02*
D03*
X108500Y68468D02*
D03*
Y74532D02*
D03*
X177000Y196968D02*
D03*
Y203031D02*
D03*
D50*
X58294Y167184D02*
D03*
X51994Y175845D02*
D03*
X58294D02*
D03*
X51994Y167184D02*
D03*
D51*
X55500Y132500D02*
D03*
X52153D02*
D03*
X94515Y140720D02*
D03*
X97861D02*
D03*
X125827Y156000D02*
D03*
X129173D02*
D03*
X122153Y151500D02*
D03*
X125500D02*
D03*
X94653Y110000D02*
D03*
X98000D02*
D03*
X95414Y202129D02*
D03*
X98761D02*
D03*
X98761Y206678D02*
D03*
X95414D02*
D03*
X64346Y48500D02*
D03*
X61000D02*
D03*
X109327Y140000D02*
D03*
X112673D02*
D03*
X54654Y182000D02*
D03*
X58000D02*
D03*
X69000Y166000D02*
D03*
X72347D02*
D03*
X215000Y151500D02*
D03*
X218347D02*
D03*
X128327Y266500D02*
D03*
X131673D02*
D03*
X188827Y231500D02*
D03*
X192173D02*
D03*
X87673Y185000D02*
D03*
X84327D02*
D03*
D52*
X101740Y124724D02*
D03*
X98000D02*
D03*
X94260D02*
D03*
Y115276D02*
D03*
X101740D02*
D03*
D53*
X67258Y244863D02*
D03*
Y237382D02*
D03*
X59384Y241122D02*
D03*
D54*
X56032Y48500D02*
D03*
X49968D02*
D03*
X88032Y86500D02*
D03*
X81968D02*
D03*
X179532Y215500D02*
D03*
X173468D02*
D03*
X191532Y214000D02*
D03*
X185468D02*
D03*
X179532Y209500D02*
D03*
X173468D02*
D03*
X203000Y214500D02*
D03*
X209063D02*
D03*
X209032Y182000D02*
D03*
X202969D02*
D03*
X181532Y271500D02*
D03*
X175469D02*
D03*
D55*
X84417Y173827D02*
D03*
Y171858D02*
D03*
Y169890D02*
D03*
Y167921D02*
D03*
Y165953D02*
D03*
Y163984D02*
D03*
Y162016D02*
D03*
Y160047D02*
D03*
Y158079D02*
D03*
Y156110D02*
D03*
Y154142D02*
D03*
Y152173D02*
D03*
X111583D02*
D03*
Y154142D02*
D03*
Y156110D02*
D03*
Y158079D02*
D03*
Y160047D02*
D03*
Y162016D02*
D03*
Y163984D02*
D03*
Y165953D02*
D03*
Y167921D02*
D03*
Y169890D02*
D03*
Y171858D02*
D03*
Y173827D02*
D03*
D56*
X87173Y149417D02*
D03*
X89142D02*
D03*
X91110D02*
D03*
X93079D02*
D03*
X95047D02*
D03*
X97016D02*
D03*
X98984D02*
D03*
X100953D02*
D03*
X102921D02*
D03*
X104890D02*
D03*
X106858D02*
D03*
X108827D02*
D03*
Y176583D02*
D03*
X106858D02*
D03*
X104890D02*
D03*
X102921D02*
D03*
X100953D02*
D03*
X98984D02*
D03*
X97016D02*
D03*
X95047D02*
D03*
X93079D02*
D03*
X91110D02*
D03*
X89142D02*
D03*
X87173D02*
D03*
D57*
X98000Y163000D02*
D03*
D58*
X218740Y145807D02*
D03*
X211260D02*
D03*
X215000Y134193D02*
D03*
D59*
X77870Y57500D02*
D03*
X99130D02*
D03*
D60*
X118000Y89768D02*
D03*
Y73232D02*
D03*
D61*
X68000Y73004D02*
D03*
Y65996D02*
D03*
X221500Y188996D02*
D03*
Y196004D02*
D03*
D62*
X175500Y127878D02*
D03*
Y175122D02*
D03*
D63*
X191500Y93500D02*
D03*
Y115500D02*
D03*
D64*
X149232Y189000D02*
D03*
X165768D02*
D03*
D65*
X198500Y198500D02*
D03*
D66*
X187441Y245929D02*
D03*
X190000D02*
D03*
X192559D02*
D03*
Y237071D02*
D03*
X190000D02*
D03*
X187441D02*
D03*
D67*
X179000Y259500D02*
D03*
X204000D02*
D03*
D68*
X149386Y282000D02*
D03*
X141512D02*
D03*
X147417D02*
D03*
X145449D02*
D03*
X143480D02*
D03*
X155291D02*
D03*
X153323D02*
D03*
X151354D02*
D03*
D69*
X135803D02*
D03*
X138953D02*
D03*
X157850D02*
D03*
X161000D02*
D03*
D70*
X68000Y258500D02*
D03*
X78000D02*
D03*
X88000D02*
D03*
X98000D02*
D03*
X106000Y224500D02*
D03*
X96000D02*
D03*
X86000D02*
D03*
X76000D02*
D03*
X249000Y144500D02*
D03*
Y154500D02*
D03*
Y164500D02*
D03*
Y216000D02*
D03*
D71*
X108000Y258500D02*
D03*
X116000Y224500D02*
D03*
D72*
X247000Y291500D02*
D03*
D73*
X227315D02*
D03*
D74*
X249000Y174500D02*
D03*
Y226000D02*
D03*
D75*
X131445Y286043D02*
D03*
X165500D02*
D03*
D76*
X131445Y302500D02*
D03*
X165500D02*
D03*
D77*
X230441Y102720D02*
D03*
X151701D02*
D03*
X230441Y260201D02*
D03*
X151701D02*
D03*
D78*
X89339Y171661D02*
D03*
X93669D02*
D03*
X98000D02*
D03*
X102331D02*
D03*
X106661D02*
D03*
X89339Y167331D02*
D03*
X93669D02*
D03*
X98000D02*
D03*
X102331D02*
D03*
X106661D02*
D03*
X89339Y163000D02*
D03*
X93669D02*
D03*
X98000D02*
D03*
X102331D02*
D03*
X106661D02*
D03*
X89339Y158669D02*
D03*
X93669D02*
D03*
X98000D02*
D03*
X102331D02*
D03*
X106661D02*
D03*
X89339Y154339D02*
D03*
X93669D02*
D03*
X98000D02*
D03*
X102331D02*
D03*
X106661D02*
D03*
M02*
