G04*
G04 #@! TF.GenerationSoftware,Altium Limited,Altium Designer,23.5.1 (21)*
G04*
G04 Layer_Color=128*
%FSLAX25Y25*%
%MOIN*%
G70*
G04*
G04 #@! TF.SameCoordinates,89F97100-6FF8-4533-BDCD-A1BC4398B3AB*
G04*
G04*
G04 #@! TF.FilePolarity,Positive*
G04*
G01*
G75*
%ADD96C,0.00500*%
D96*
X66228Y258500D02*
X69772D01*
X68000Y256728D02*
Y260272D01*
X76228Y258500D02*
X79772D01*
X78000Y256728D02*
Y260272D01*
X86228Y258500D02*
X89772D01*
X88000Y256728D02*
Y260272D01*
X96228Y258500D02*
X99772D01*
X98000Y256728D02*
Y260272D01*
X106228Y258500D02*
X109772D01*
X108000Y256728D02*
Y260272D01*
X114228Y224500D02*
X117772D01*
X116000Y222728D02*
Y226272D01*
X104228Y224500D02*
X107772D01*
X106000Y222728D02*
Y226272D01*
X94228Y224500D02*
X97772D01*
X96000Y222728D02*
Y226272D01*
X84228Y224500D02*
X87772D01*
X86000Y222728D02*
Y226272D01*
X74228Y224500D02*
X77772D01*
X76000Y222728D02*
Y226272D01*
X244244Y291500D02*
X249756D01*
X247000Y288744D02*
Y294256D01*
X224559Y291500D02*
X230071D01*
X227315Y288744D02*
Y294256D01*
X247228Y144500D02*
X250772D01*
X249000Y142728D02*
Y146272D01*
X247228Y154500D02*
X250772D01*
X249000Y152728D02*
Y156272D01*
X247228Y164500D02*
X250772D01*
X249000Y162728D02*
Y166272D01*
X247228Y174500D02*
X250772D01*
X249000Y172728D02*
Y176272D01*
X247228Y226000D02*
X250772D01*
X249000Y224228D02*
Y227772D01*
X247228Y216000D02*
X250772D01*
X249000Y214228D02*
Y217772D01*
X127902Y286043D02*
X134988D01*
X131445Y282500D02*
Y289587D01*
X128886Y302500D02*
X134004D01*
X131445Y299941D02*
Y305059D01*
X162941Y302500D02*
X168059D01*
X165500Y299941D02*
Y305059D01*
X161957Y286043D02*
X169043D01*
X165500Y282500D02*
Y289587D01*
X158472Y288012D02*
X161228D01*
X159850Y286634D02*
Y289390D01*
X135716Y288012D02*
X138472D01*
X137094Y286634D02*
Y289390D01*
X224142Y102720D02*
X236740D01*
X230441Y96421D02*
Y109020D01*
X145402Y102720D02*
X158000D01*
X151701Y96421D02*
Y109020D01*
X224142Y260201D02*
X236740D01*
X230441Y253902D02*
Y266500D01*
X145402Y260201D02*
X158000D01*
X151701Y253902D02*
Y266500D01*
X163909Y116500D02*
X165091D01*
X164500Y115909D02*
Y117091D01*
X168909Y107000D02*
X170091D01*
X169500Y106409D02*
Y107591D01*
X195909Y105500D02*
X197091D01*
X196500Y104909D02*
Y106091D01*
X190409Y105500D02*
X191591D01*
X191000Y104909D02*
Y106091D01*
X185909Y105500D02*
X187091D01*
X186500Y104909D02*
Y106091D01*
X180909Y101500D02*
X182091D01*
X181500Y100909D02*
Y102091D01*
X180909Y105500D02*
X182091D01*
X181500Y104909D02*
Y106091D01*
X173909Y101500D02*
X175091D01*
X174500Y100909D02*
Y102091D01*
X173909Y105000D02*
X175091D01*
X174500Y104409D02*
Y105591D01*
X75457Y76420D02*
X76638D01*
X76047Y75829D02*
Y77010D01*
X79853Y71560D02*
X81034D01*
X80444Y70970D02*
Y72151D01*
X101405Y109759D02*
X102586D01*
X101996Y109168D02*
Y110349D01*
X96391Y127934D02*
X97572D01*
X96981Y127344D02*
Y128525D01*
X145326Y227904D02*
X146508D01*
X145917Y227313D02*
Y228495D01*
X153431Y224462D02*
X154612D01*
X154022Y223871D02*
Y225052D01*
X153406Y233646D02*
X154587D01*
X153997Y233056D02*
Y234237D01*
X145314Y233570D02*
X146495D01*
X145904Y232980D02*
Y234161D01*
X172071Y239583D02*
X173252D01*
X172662Y238993D02*
Y240174D01*
X174963Y248590D02*
X176144D01*
X175554Y247999D02*
Y249180D01*
X181717Y249095D02*
X182898D01*
X182308Y248505D02*
Y249686D01*
X159490Y261962D02*
X160671D01*
X160081Y261371D02*
Y262553D01*
X156735Y266009D02*
X157916D01*
X157325Y265419D02*
Y266600D01*
X145756Y266440D02*
X146937D01*
X146347Y265849D02*
Y267030D01*
X136284Y259336D02*
X137465D01*
X136875Y258745D02*
Y259926D01*
X141881Y261532D02*
X143062D01*
X142472Y260941D02*
Y262122D01*
X172730Y275890D02*
X173911D01*
X173320Y275299D02*
Y276480D01*
X172541Y279446D02*
X173722D01*
X173131Y278855D02*
Y280036D01*
X168229Y279274D02*
X169410D01*
X168819Y278684D02*
Y279865D01*
X168108Y275787D02*
X169290D01*
X168699Y275196D02*
Y276377D01*
X162903Y279205D02*
X164084D01*
X163494Y278615D02*
Y279796D01*
X131446Y278843D02*
X132627D01*
X132037Y278252D02*
Y279433D01*
X132814Y272679D02*
X133995D01*
X133404Y272088D02*
Y273269D01*
X126250Y274362D02*
X127431D01*
X126840Y273771D02*
Y274952D01*
X129321Y273037D02*
X130502D01*
X129912Y272446D02*
Y273627D01*
X128353Y259286D02*
X129534D01*
X128944Y258696D02*
Y259877D01*
X129021Y262232D02*
X130202D01*
X129611Y261641D02*
Y262822D01*
X126272Y262310D02*
X127453D01*
X126862Y261720D02*
Y262901D01*
X153083Y287207D02*
X154264D01*
X153674Y286616D02*
Y287797D01*
X146974Y289431D02*
X148155D01*
X147565Y288841D02*
Y290022D01*
X141642Y287454D02*
X142823D01*
X142233Y286863D02*
Y288044D01*
X138440Y272179D02*
X139621D01*
X139031Y271588D02*
Y272769D01*
X138259Y269524D02*
X139441D01*
X138850Y268933D02*
Y270114D01*
X136341Y273656D02*
X137522D01*
X136931Y273066D02*
Y274247D01*
X136012Y270564D02*
X137193D01*
X136602Y269973D02*
Y271154D01*
X138302Y275131D02*
X139483D01*
X138893Y274540D02*
Y275721D01*
X160663Y275401D02*
X161844D01*
X161254Y274810D02*
Y275992D01*
X160525Y272992D02*
X161706D01*
X161116Y272401D02*
Y273583D01*
X160457Y270009D02*
X161638D01*
X161047Y269419D02*
Y270600D01*
X157680Y271661D02*
X158862D01*
X158271Y271071D02*
Y272252D01*
X157749Y274896D02*
X158931D01*
X158340Y274306D02*
Y275487D01*
X77355Y152160D02*
X78536D01*
X77945Y151569D02*
Y152751D01*
X87599Y189412D02*
X88780D01*
X88189Y188822D02*
Y190003D01*
X114451Y172266D02*
X115632D01*
X115042Y171675D02*
Y172856D01*
X134051Y153283D02*
X135232D01*
X134642Y152693D02*
Y153874D01*
X115480Y143680D02*
X116661D01*
X116070Y143090D02*
Y144271D01*
X119310Y137476D02*
X120491D01*
X119901Y136886D02*
Y138067D01*
X108909Y135500D02*
X110091D01*
X109500Y134909D02*
Y136091D01*
X99910Y137000D02*
X101091D01*
X100500Y136409D02*
Y137591D01*
X98409Y145000D02*
X99590D01*
X99000Y144409D02*
Y145591D01*
X94910Y145000D02*
X96091D01*
X95500Y144409D02*
Y145591D01*
X80026Y38155D02*
X81207D01*
X80617Y37565D02*
Y38746D01*
X73909Y42500D02*
X75090D01*
X74500Y41909D02*
Y43091D01*
X79909Y42500D02*
X81090D01*
X80500Y41909D02*
Y43091D01*
X254410Y241000D02*
X255591D01*
X255000Y240409D02*
Y241590D01*
X254410Y249000D02*
X255591D01*
X255000Y248410D02*
Y249590D01*
X254410Y257000D02*
X255591D01*
X255000Y256410D02*
Y257591D01*
X254410Y265000D02*
X255591D01*
X255000Y264409D02*
Y265591D01*
X241910Y195500D02*
X243091D01*
X242500Y194909D02*
Y196091D01*
X241910Y189500D02*
X243091D01*
X242500Y188909D02*
Y190091D01*
X241910Y183500D02*
X243091D01*
X242500Y182909D02*
Y184091D01*
X247909Y195500D02*
X249091D01*
X248500Y194909D02*
Y196091D01*
X247909Y189500D02*
X249091D01*
X248500Y188909D02*
Y190091D01*
X247909Y183500D02*
X249091D01*
X248500Y182909D02*
Y184091D01*
X170909Y196000D02*
X172091D01*
X171500Y195409D02*
Y196591D01*
X181409Y195000D02*
X182591D01*
X182000Y194409D02*
Y195591D01*
X181409Y199000D02*
X182591D01*
X182000Y198409D02*
Y199591D01*
X145409Y141500D02*
X146591D01*
X146000Y140909D02*
Y142091D01*
X145409Y147500D02*
X146591D01*
X146000Y146909D02*
Y148091D01*
X145409Y153500D02*
X146591D01*
X146000Y152909D02*
Y154091D01*
X145409Y159500D02*
X146591D01*
X146000Y158909D02*
Y160091D01*
X145409Y165500D02*
X146591D01*
X146000Y164909D02*
Y166091D01*
X145409Y171500D02*
X146591D01*
X146000Y170909D02*
Y172091D01*
X145409Y177500D02*
X146591D01*
X146000Y176909D02*
Y178091D01*
X135743Y158359D02*
X136924D01*
X136333Y157768D02*
Y158949D01*
X135959Y177687D02*
X137141D01*
X136550Y177096D02*
Y178277D01*
X135959Y183686D02*
X137141D01*
X136550Y183096D02*
Y184277D01*
X135743Y164359D02*
X136924D01*
X136333Y163768D02*
Y164949D01*
X158373Y83123D02*
X159554D01*
X158964Y82533D02*
Y83714D01*
X152373Y83123D02*
X153554D01*
X152963Y82533D02*
Y83714D01*
X146373Y83123D02*
X147554D01*
X146964Y82533D02*
Y83714D01*
X140373Y83123D02*
X141554D01*
X140963Y82533D02*
Y83714D01*
X158373Y89123D02*
X159554D01*
X158964Y88533D02*
Y89714D01*
X152373Y89123D02*
X153554D01*
X152963Y88533D02*
Y89714D01*
X146373Y89123D02*
X147554D01*
X146964Y88533D02*
Y89714D01*
X140373Y89123D02*
X141554D01*
X140963Y88533D02*
Y89714D01*
X134373Y89123D02*
X135554D01*
X134964Y88533D02*
Y89714D01*
X134373Y95123D02*
X135554D01*
X134964Y94533D02*
Y95714D01*
X134373Y101123D02*
X135554D01*
X134964Y100533D02*
Y101714D01*
X134373Y107123D02*
X135554D01*
X134964Y106533D02*
Y107714D01*
X134409Y113000D02*
X135591D01*
X135000Y112409D02*
Y113591D01*
X214284Y209446D02*
X215268D01*
X214776Y208954D02*
Y209938D01*
X211508Y209500D02*
X212492D01*
X212000Y209008D02*
Y209992D01*
X195772Y194180D02*
X196756D01*
X196264Y193688D02*
Y194672D01*
X197940Y194180D02*
X198924D01*
X198432Y193688D02*
Y194672D01*
X200107Y194180D02*
X201092D01*
X200600Y193688D02*
Y194672D01*
X195772Y196347D02*
X196756D01*
X196264Y195855D02*
Y196840D01*
X197940Y196347D02*
X198924D01*
X198432Y195855D02*
Y196840D01*
X200107Y196347D02*
X201092D01*
X200600Y195855D02*
Y196840D01*
X195772Y198515D02*
X196756D01*
X196264Y198023D02*
Y199007D01*
X197940Y198515D02*
X198924D01*
X198432Y198023D02*
Y199007D01*
X200107Y198515D02*
X201092D01*
X200600Y198023D02*
Y199007D01*
X200107Y200683D02*
X201092D01*
X200600Y200191D02*
Y201175D01*
X197940Y200683D02*
X198924D01*
X198432Y200191D02*
Y201175D01*
X195772Y200683D02*
X196756D01*
X196264Y200191D02*
Y201175D01*
X200107Y202850D02*
X201092D01*
X200600Y202358D02*
Y203343D01*
X197940Y202850D02*
X198924D01*
X198432Y202358D02*
Y203343D01*
X195772Y202850D02*
X196756D01*
X196264Y202358D02*
Y203343D01*
X94259Y74621D02*
X95243D01*
X94751Y74129D02*
Y75113D01*
X94305Y76941D02*
X95289D01*
X94797Y76449D02*
Y77433D01*
X90008Y82500D02*
X90992D01*
X90500Y82008D02*
Y82992D01*
X90008Y73500D02*
X90992D01*
X90500Y73008D02*
Y73992D01*
X90008Y76500D02*
X90992D01*
X90500Y76008D02*
Y76992D01*
X90008Y79500D02*
X90992D01*
X90500Y79008D02*
Y79992D01*
X93008Y79500D02*
X93992D01*
X93500Y79008D02*
Y79992D01*
X93008Y82500D02*
X93992D01*
X93500Y82008D02*
Y82992D01*
X96008Y82500D02*
X96992D01*
X96500Y82008D02*
Y82992D01*
X99008Y82500D02*
X99992D01*
X99500Y82008D02*
Y82992D01*
X96008Y79500D02*
X96992D01*
X96500Y79008D02*
Y79992D01*
X99008Y79500D02*
X99992D01*
X99500Y79008D02*
Y79992D01*
X102008Y82500D02*
X102992D01*
X102500Y82008D02*
Y82992D01*
X102008Y79500D02*
X102992D01*
X102500Y79008D02*
Y79992D01*
X123476Y159794D02*
X124460D01*
X123968Y159302D02*
Y160286D01*
X123291Y142615D02*
X124275D01*
X123783Y142123D02*
Y143107D01*
X122409Y95500D02*
X123591D01*
X123000Y94910D02*
Y96091D01*
X122409Y102500D02*
X123591D01*
X123000Y101909D02*
Y103091D01*
X122635Y113290D02*
X123816D01*
X123226Y112699D02*
Y113880D01*
X122857Y118852D02*
X124039D01*
X123448Y118261D02*
Y119442D01*
X252410Y138000D02*
X253590D01*
X253000Y137409D02*
Y138591D01*
X252410Y70500D02*
X253590D01*
X253000Y69910D02*
Y71091D01*
X252410Y82500D02*
X253590D01*
X253000Y81910D02*
Y83091D01*
X252410Y94500D02*
X253590D01*
X253000Y93910D02*
Y95091D01*
X252410Y106500D02*
X253590D01*
X253000Y105909D02*
Y107091D01*
X252410Y118500D02*
X253590D01*
X253000Y117909D02*
Y119091D01*
X222410Y41500D02*
X223590D01*
X223000Y40909D02*
Y42091D01*
X214409Y41500D02*
X215591D01*
X215000Y40909D02*
Y42091D01*
X206410Y41500D02*
X207591D01*
X207000Y40909D02*
Y42091D01*
X198409Y41500D02*
X199591D01*
X199000Y40909D02*
Y42091D01*
X190409Y41500D02*
X191591D01*
X191000Y40909D02*
Y42091D01*
X182409Y41500D02*
X183591D01*
X183000Y40909D02*
Y42091D01*
X174409Y41500D02*
X175591D01*
X175000Y40909D02*
Y42091D01*
X166409Y41500D02*
X167591D01*
X167000Y40909D02*
Y42091D01*
X158409Y41500D02*
X159591D01*
X159000Y40909D02*
Y42091D01*
X150409Y41500D02*
X151591D01*
X151000Y40909D02*
Y42091D01*
X142848Y41648D02*
X144029D01*
X143439Y41057D02*
Y42238D01*
X109139Y214114D02*
X110320D01*
X109729Y213524D02*
Y214705D01*
X110056Y200718D02*
X111238D01*
X110647Y200128D02*
Y201309D01*
X114155Y189157D02*
X115336D01*
X114745Y188567D02*
Y189748D01*
X121801Y198516D02*
X122982D01*
X122391Y197925D02*
Y199107D01*
X121823Y188061D02*
X123004D01*
X122413Y187470D02*
Y188652D01*
X125276Y189097D02*
X126456D01*
X125866Y188506D02*
Y189687D01*
X124827Y185886D02*
X126008D01*
X125417Y185295D02*
Y186476D01*
X126909Y160500D02*
X128091D01*
X127500Y159909D02*
Y161091D01*
X126909Y133000D02*
X128091D01*
X127500Y132409D02*
Y133591D01*
X126909Y128000D02*
X128091D01*
X127500Y127409D02*
Y128591D01*
X126909Y120500D02*
X128091D01*
X127500Y119909D02*
Y121091D01*
X126909Y115500D02*
X128091D01*
X127500Y114909D02*
Y116091D01*
X126909Y108000D02*
X128091D01*
X127500Y107409D02*
Y108591D01*
X126909Y100500D02*
X128091D01*
X127500Y99910D02*
Y101091D01*
X126938Y92341D02*
X128120D01*
X127529Y91750D02*
Y92931D01*
X132909Y74500D02*
X134091D01*
X133500Y73909D02*
Y75090D01*
X138909Y69500D02*
X140091D01*
X139500Y68910D02*
Y70091D01*
X143409Y64000D02*
X144591D01*
X144000Y63410D02*
Y64591D01*
X149409Y60000D02*
X150591D01*
X150000Y59409D02*
Y60590D01*
X158409Y59500D02*
X159591D01*
X159000Y58909D02*
Y60091D01*
X169409Y59500D02*
X170591D01*
X170000Y58909D02*
Y60091D01*
X180409Y59500D02*
X181591D01*
X181000Y58909D02*
Y60091D01*
X190909Y59500D02*
X192091D01*
X191500Y58909D02*
Y60091D01*
X201409Y59500D02*
X202591D01*
X202000Y58909D02*
Y60091D01*
X212910Y59500D02*
X214090D01*
X213500Y58909D02*
Y60091D01*
X209409Y50000D02*
X210591D01*
X210000Y49409D02*
Y50591D01*
X194409Y50000D02*
X195591D01*
X195000Y49409D02*
Y50591D01*
X176909Y49500D02*
X178091D01*
X177500Y48909D02*
Y50091D01*
X163909Y50500D02*
X165091D01*
X164500Y49909D02*
Y51091D01*
X150409Y50000D02*
X151591D01*
X151000Y49409D02*
Y50591D01*
X139409Y52000D02*
X140591D01*
X140000Y51410D02*
Y52591D01*
X133909Y58000D02*
X135091D01*
X134500Y57410D02*
Y58591D01*
X129409Y63000D02*
X130591D01*
X130000Y62410D02*
Y63591D01*
X115909Y159000D02*
X117091D01*
X116500Y158409D02*
Y159591D01*
X115909Y155000D02*
X117091D01*
X116500Y154409D02*
Y155591D01*
X114909Y150000D02*
X116091D01*
X115500Y149409D02*
Y150591D01*
X113909Y147500D02*
X115091D01*
X114500Y146909D02*
Y148091D01*
X107770Y144530D02*
X108951D01*
X108360Y143940D02*
Y145121D01*
X83253Y146315D02*
X84434D01*
X83843Y145724D02*
Y146905D01*
X80663Y149192D02*
X81844D01*
X81253Y148601D02*
Y149783D01*
X78409Y158000D02*
X79590D01*
X79000Y157409D02*
Y158591D01*
X94843Y210222D02*
X96024D01*
X95434Y209631D02*
Y210812D01*
X82910Y199000D02*
X84091D01*
X83500Y198409D02*
Y199591D01*
X74410Y200500D02*
X75590D01*
X75000Y199909D02*
Y201091D01*
X67909Y200500D02*
X69090D01*
X68500Y199909D02*
Y201091D01*
X57410Y227000D02*
X58591D01*
X58000Y226410D02*
Y227590D01*
X48409Y213500D02*
X49591D01*
X49000Y212910D02*
Y214090D01*
X59409Y214500D02*
X60590D01*
X60000Y213910D02*
Y215090D01*
X69410Y215000D02*
X70591D01*
X70000Y214409D02*
Y215591D01*
X76410Y214500D02*
X77591D01*
X77000Y213910D02*
Y215090D01*
X112409Y242500D02*
X113591D01*
X113000Y241910D02*
Y243091D01*
X107409Y242500D02*
X108591D01*
X108000Y241910D02*
Y243091D01*
X102409Y242500D02*
X103591D01*
X103000Y241910D02*
Y243091D01*
X97409Y242500D02*
X98590D01*
X98000Y241910D02*
Y243091D01*
X92409Y242500D02*
X93590D01*
X93000Y241910D02*
Y243091D01*
X206909Y235500D02*
X208090D01*
X207500Y234910D02*
Y236090D01*
X210409Y233000D02*
X211591D01*
X211000Y232410D02*
Y233591D01*
X193909Y222000D02*
X195091D01*
X194500Y221410D02*
Y222590D01*
X201909Y222000D02*
X203091D01*
X202500Y221410D02*
Y222590D01*
X209910Y222000D02*
X211090D01*
X210500Y221410D02*
Y222590D01*
X238409Y216000D02*
X239591D01*
X239000Y215409D02*
Y216590D01*
X233410Y221500D02*
X234591D01*
X234000Y220910D02*
Y222091D01*
X233410Y210500D02*
X234591D01*
X234000Y209910D02*
Y211090D01*
X217409Y174500D02*
X218590D01*
X218000Y173909D02*
Y175091D01*
X216910Y161500D02*
X218091D01*
X217500Y160909D02*
Y162091D01*
X210910Y168000D02*
X212090D01*
X211500Y167409D02*
Y168591D01*
X225410Y169000D02*
X226590D01*
X226000Y168409D02*
Y169591D01*
X204909Y157500D02*
X206090D01*
X205500Y156909D02*
Y158091D01*
X204909Y145500D02*
X206090D01*
X205500Y144909D02*
Y146091D01*
X204409Y137500D02*
X205591D01*
X205000Y136909D02*
Y138091D01*
X248909Y137000D02*
X250091D01*
X249500Y136409D02*
Y137591D01*
X236409Y141500D02*
X237591D01*
X237000Y140909D02*
Y142091D01*
X231663Y136971D02*
X232844D01*
X232253Y136380D02*
Y137561D01*
X242910Y124000D02*
X244091D01*
X243500Y123409D02*
Y124591D01*
X235910Y124000D02*
X237090D01*
X236500Y123409D02*
Y124591D01*
X221909Y124500D02*
X223091D01*
X222500Y123909D02*
Y125091D01*
X212409Y124000D02*
X213591D01*
X213000Y123409D02*
Y124591D01*
X207410Y124000D02*
X208591D01*
X208000Y123409D02*
Y124591D01*
X202409Y124000D02*
X203591D01*
X203000Y123409D02*
Y124591D01*
X248909Y53000D02*
X250091D01*
X249500Y52409D02*
Y53591D01*
X249410Y71500D02*
X250590D01*
X250000Y70910D02*
Y72091D01*
X239910Y67000D02*
X241090D01*
X240500Y66409D02*
Y67590D01*
X239910Y40500D02*
X241090D01*
X240500Y39909D02*
Y41091D01*
X225410Y50000D02*
X226590D01*
X226000Y49409D02*
Y50591D01*
X229410Y50000D02*
X230591D01*
X230000Y49409D02*
Y50591D01*
X225909Y60000D02*
X227091D01*
X226500Y59409D02*
Y60590D01*
X230384Y60116D02*
X231565D01*
X230974Y59526D02*
Y60707D01*
X144409Y113000D02*
X145591D01*
X145000Y112409D02*
Y113591D01*
X138409Y113000D02*
X139591D01*
X139000Y112409D02*
Y113591D01*
X134409Y119000D02*
X135591D01*
X135000Y118409D02*
Y119591D01*
X143909Y121000D02*
X145091D01*
X144500Y120409D02*
Y121591D01*
X134409Y125000D02*
X135591D01*
X135000Y124409D02*
Y125591D01*
X132909Y44500D02*
X134091D01*
X133500Y43909D02*
Y45091D01*
X126909Y44500D02*
X128091D01*
X127500Y43909D02*
Y45091D01*
X120909Y44500D02*
X122091D01*
X121500Y43909D02*
Y45091D01*
X126909Y50500D02*
X128091D01*
X127500Y49909D02*
Y51091D01*
X120909Y50500D02*
X122091D01*
X121500Y49909D02*
Y51091D01*
X80910Y96500D02*
X82091D01*
X81500Y95910D02*
Y97091D01*
X74910Y96500D02*
X76091D01*
X75500Y95910D02*
Y97091D01*
X68910Y96500D02*
X70091D01*
X69500Y95910D02*
Y97091D01*
X80910Y102500D02*
X82091D01*
X81500Y101909D02*
Y103091D01*
X74910Y102500D02*
X76091D01*
X75500Y101909D02*
Y103091D01*
X68910Y102500D02*
X70091D01*
X69500Y101909D02*
Y103091D01*
X112909Y125000D02*
X114091D01*
X113500Y124409D02*
Y125591D01*
X106409Y125000D02*
X107591D01*
X107000Y124409D02*
Y125591D01*
X80910Y114500D02*
X82091D01*
X81500Y113909D02*
Y115091D01*
X74910Y114500D02*
X76091D01*
X75500Y113909D02*
Y115091D01*
X68910Y114500D02*
X70091D01*
X69500Y113909D02*
Y115091D01*
X80910Y120500D02*
X82091D01*
X81500Y119909D02*
Y121091D01*
X74910Y120500D02*
X76091D01*
X75500Y119909D02*
Y121091D01*
X68910Y120500D02*
X70091D01*
X69500Y119909D02*
Y121091D01*
X80910Y126500D02*
X82091D01*
X81500Y125909D02*
Y127091D01*
X74910Y126500D02*
X76091D01*
X75500Y125909D02*
Y127091D01*
X68910Y126500D02*
X70091D01*
X69500Y125909D02*
Y127091D01*
X55205Y184885D02*
X56386D01*
X55796Y184295D02*
Y185476D01*
X61739Y191652D02*
X62920D01*
X62329Y191062D02*
Y192243D01*
X56147Y192325D02*
X57328D01*
X56737Y191735D02*
Y192916D01*
X61221Y183990D02*
X62402D01*
X61811Y183399D02*
Y184580D01*
X63386Y181287D02*
X64567D01*
X63977Y180696D02*
Y181877D01*
X63920Y170528D02*
X65101D01*
X64511Y169937D02*
Y171118D01*
X63428Y175765D02*
X64609D01*
X64019Y175175D02*
Y176356D01*
X69662Y170170D02*
X70843D01*
X70253Y169580D02*
Y170761D01*
X78107Y169689D02*
X79288D01*
X78698Y169098D02*
Y170279D01*
X74590Y161997D02*
X75771D01*
X75181Y161406D02*
Y162587D01*
X59148Y160394D02*
X60329D01*
X59738Y159803D02*
Y160984D01*
X51817Y160804D02*
X52998D01*
X52408Y160214D02*
Y161395D01*
X48186Y182975D02*
X49368D01*
X48777Y182385D02*
Y183566D01*
X50431Y191593D02*
X51612D01*
X51022Y191002D02*
Y192183D01*
X45393Y161676D02*
X46574D01*
X45983Y161085D02*
Y162267D01*
X45512Y168390D02*
X46693D01*
X46102Y167799D02*
Y168981D01*
X45452Y175580D02*
X46633D01*
X46043Y174989D02*
Y176170D01*
X67140Y182947D02*
X68321D01*
X67730Y182357D02*
Y183538D01*
X67318Y177897D02*
X68499D01*
X67908Y177306D02*
Y178487D01*
X109358Y208081D02*
X110539D01*
X109949Y207490D02*
Y208671D01*
X113283Y198986D02*
X114464D01*
X113874Y198396D02*
Y199577D01*
X98801Y192761D02*
X99982D01*
X99392Y192170D02*
Y193351D01*
X104857Y189242D02*
X106038D01*
X105448Y188652D02*
Y189833D01*
X100921Y183719D02*
X102102D01*
X101512Y183128D02*
Y184309D01*
X110810Y176542D02*
X111991D01*
X111401Y175952D02*
Y177133D01*
X128648Y197959D02*
X129829D01*
X129238Y197369D02*
Y198550D01*
X128824Y208904D02*
X130005D01*
X129415Y208313D02*
Y209494D01*
X128740Y217535D02*
X129921D01*
X129330Y216944D02*
Y218125D01*
X135390Y217799D02*
X136572D01*
X135981Y217209D02*
Y218390D01*
X128185Y227797D02*
X129367D01*
X128776Y227207D02*
Y228388D01*
X128388Y240680D02*
X129569D01*
X128979Y240089D02*
Y241270D01*
X136047Y240832D02*
X137228D01*
X136637Y240241D02*
Y241423D01*
X135959Y189687D02*
X137141D01*
X136550Y189096D02*
Y190277D01*
X136024Y205597D02*
X137205D01*
X136615Y205007D02*
Y206188D01*
X135743Y170359D02*
X136924D01*
X136333Y169768D02*
Y170949D01*
X153508Y241367D02*
X154689D01*
X154099Y240777D02*
Y241958D01*
X145220Y241367D02*
X146401D01*
X145811Y240777D02*
Y241958D01*
X159737Y211793D02*
X160918D01*
X160327Y211202D02*
Y212384D01*
X147578Y211938D02*
X148759D01*
X148169Y211348D02*
Y212529D01*
X142589Y211599D02*
X143770D01*
X143180Y211009D02*
Y212190D01*
X135856Y227633D02*
X137037D01*
X136446Y227042D02*
Y228223D01*
X150894Y201500D02*
X152075D01*
X151484Y200909D02*
Y202090D01*
X185111Y209348D02*
X186292D01*
X185701Y208758D02*
Y209939D01*
X195720Y234842D02*
X196901D01*
X196310Y234251D02*
Y235432D01*
X195631Y231873D02*
X196812D01*
X196221Y231282D02*
Y232463D01*
X183909Y230000D02*
X185091D01*
X184500Y229410D02*
Y230591D01*
X183909Y233000D02*
X185091D01*
X184500Y232410D02*
Y233591D01*
X194709Y252276D02*
X195890D01*
X195300Y251685D02*
Y252866D01*
X190708Y256789D02*
X191889D01*
X191298Y256198D02*
Y257379D01*
X186409Y252500D02*
X187591D01*
X187000Y251909D02*
Y253091D01*
X166409Y235000D02*
X167591D01*
X167000Y234409D02*
Y235591D01*
X256137Y228700D02*
X257318D01*
X256728Y228109D02*
Y229291D01*
X140715Y256834D02*
X141896D01*
X141306Y256244D02*
Y257425D01*
X159259Y255040D02*
X160440D01*
X159849Y254449D02*
Y255630D01*
X81910Y267500D02*
X83091D01*
X82500Y266910D02*
Y268091D01*
X102409Y272000D02*
X103591D01*
X103000Y271410D02*
Y272590D01*
X100409Y265000D02*
X101591D01*
X101000Y264409D02*
Y265591D01*
X100522Y223230D02*
X101703D01*
X101112Y222639D02*
Y223820D01*
X90868Y222226D02*
X92049D01*
X91458Y221636D02*
Y222817D01*
X82134Y221139D02*
X83315D01*
X82724Y220548D02*
Y221729D01*
X41713Y229000D02*
X43287D01*
X42500Y228213D02*
Y229787D01*
X41713Y237000D02*
X43287D01*
X42500Y236213D02*
Y237787D01*
X41713Y245000D02*
X43287D01*
X42500Y244213D02*
Y245787D01*
X41713Y253500D02*
X43287D01*
X42500Y252713D02*
Y254287D01*
X41713Y261500D02*
X43287D01*
X42500Y260713D02*
Y262287D01*
X41713Y269500D02*
X43287D01*
X42500Y268713D02*
Y270287D01*
X41713Y278000D02*
X43287D01*
X42500Y277213D02*
Y278787D01*
X41713Y286000D02*
X43287D01*
X42500Y285213D02*
Y286787D01*
X41713Y294000D02*
X43287D01*
X42500Y293213D02*
Y294787D01*
X40713Y149000D02*
X42287D01*
X41500Y148213D02*
Y149787D01*
X40713Y140500D02*
X42287D01*
X41500Y139713D02*
Y141287D01*
X40713Y132000D02*
X42287D01*
X41500Y131213D02*
Y132787D01*
X40713Y123500D02*
X42287D01*
X41500Y122713D02*
Y124287D01*
X40713Y115000D02*
X42287D01*
X41500Y114213D02*
Y115787D01*
X40713Y106500D02*
X42287D01*
X41500Y105713D02*
Y107287D01*
X40713Y98000D02*
X42287D01*
X41500Y97213D02*
Y98787D01*
X40713Y89500D02*
X42287D01*
X41500Y88713D02*
Y90287D01*
X40713Y81000D02*
X42287D01*
X41500Y80213D02*
Y81787D01*
X40713Y72500D02*
X42287D01*
X41500Y71713D02*
Y73287D01*
X40713Y64000D02*
X42287D01*
X41500Y63213D02*
Y64787D01*
X40713Y55500D02*
X42287D01*
X41500Y54713D02*
Y56287D01*
X40713Y47000D02*
X42287D01*
X41500Y46213D02*
Y47787D01*
X40713Y38500D02*
X42287D01*
X41500Y37713D02*
Y39287D01*
X44713Y30000D02*
X46287D01*
X45500Y29213D02*
Y30787D01*
X53213Y30000D02*
X54787D01*
X54000Y29213D02*
Y30787D01*
X61713Y30000D02*
X63287D01*
X62500Y29213D02*
Y30787D01*
X70213Y30000D02*
X71787D01*
X71000Y29213D02*
Y30787D01*
X78713Y30000D02*
X80287D01*
X79500Y29213D02*
Y30787D01*
X99213Y30000D02*
X100787D01*
X100000Y29213D02*
Y30787D01*
X107713Y30000D02*
X109287D01*
X108500Y29213D02*
Y30787D01*
X116213Y30000D02*
X117787D01*
X117000Y29213D02*
Y30787D01*
X124713Y30000D02*
X126287D01*
X125500Y29213D02*
Y30787D01*
X133213Y30000D02*
X134787D01*
X134000Y29213D02*
Y30787D01*
X141713Y30000D02*
X143287D01*
X142500Y29213D02*
Y30787D01*
X150213Y30000D02*
X151787D01*
X151000Y29213D02*
Y30787D01*
X158213Y30000D02*
X159787D01*
X159000Y29213D02*
Y30787D01*
X166713Y30000D02*
X168287D01*
X167500Y29213D02*
Y30787D01*
X175213Y30000D02*
X176787D01*
X176000Y29213D02*
Y30787D01*
X183713Y30000D02*
X185287D01*
X184500Y29213D02*
Y30787D01*
X192213Y30000D02*
X193787D01*
X193000Y29213D02*
Y30787D01*
X200713Y30000D02*
X202287D01*
X201500Y29213D02*
Y30787D01*
X209213Y30000D02*
X210787D01*
X210000Y29213D02*
Y30787D01*
X217713Y30000D02*
X219287D01*
X218500Y29213D02*
Y30787D01*
X226213Y30000D02*
X227787D01*
X227000Y29213D02*
Y30787D01*
X234713Y30000D02*
X236287D01*
X235500Y29213D02*
Y30787D01*
X243213Y30000D02*
X244787D01*
X244000Y29213D02*
Y30787D01*
X251713Y30000D02*
X253287D01*
X252500Y29213D02*
Y30787D01*
X262713Y37000D02*
X264287D01*
X263500Y36213D02*
Y37787D01*
X262713Y45500D02*
X264287D01*
X263500Y44713D02*
Y46287D01*
X262713Y53500D02*
X264287D01*
X263500Y52713D02*
Y54287D01*
X262713Y61500D02*
X264287D01*
X263500Y60713D02*
Y62287D01*
X262713Y70000D02*
X264287D01*
X263500Y69213D02*
Y70787D01*
X262713Y78000D02*
X264287D01*
X263500Y77213D02*
Y78787D01*
X262713Y86000D02*
X264287D01*
X263500Y85213D02*
Y86787D01*
X262713Y94000D02*
X264287D01*
X263500Y93213D02*
Y94787D01*
X262713Y102500D02*
X264287D01*
X263500Y101713D02*
Y103287D01*
X262713Y110500D02*
X264287D01*
X263500Y109713D02*
Y111287D01*
X262713Y119000D02*
X264287D01*
X263500Y118213D02*
Y119787D01*
X262713Y144000D02*
X264287D01*
X263500Y143213D02*
Y144787D01*
X262713Y152000D02*
X264287D01*
X263500Y151213D02*
Y152787D01*
X262713Y160000D02*
X264287D01*
X263500Y159213D02*
Y160787D01*
X262713Y168000D02*
X264287D01*
X263500Y167213D02*
Y168787D01*
X262713Y176500D02*
X264287D01*
X263500Y175713D02*
Y177287D01*
X262713Y184500D02*
X264287D01*
X263500Y183713D02*
Y185287D01*
X262713Y192500D02*
X264287D01*
X263500Y191713D02*
Y193287D01*
X262713Y201000D02*
X264287D01*
X263500Y200213D02*
Y201787D01*
X262713Y209000D02*
X264287D01*
X263500Y208213D02*
Y209787D01*
X262713Y217000D02*
X264287D01*
X263500Y216213D02*
Y217787D01*
X262713Y225500D02*
X264287D01*
X263500Y224713D02*
Y226287D01*
X260213Y241000D02*
X261787D01*
X261000Y240213D02*
Y241787D01*
X260213Y249000D02*
X261787D01*
X261000Y248213D02*
Y249787D01*
X260213Y257000D02*
X261787D01*
X261000Y256213D02*
Y257787D01*
X260213Y265000D02*
X261787D01*
X261000Y264213D02*
Y265787D01*
X260213Y273500D02*
X261787D01*
X261000Y272713D02*
Y274287D01*
X260213Y281500D02*
X261787D01*
X261000Y280713D02*
Y282287D01*
X260213Y289500D02*
X261787D01*
X261000Y288713D02*
Y290287D01*
X170409Y282500D02*
X171591D01*
X171000Y281909D02*
Y283090D01*
X174909Y277500D02*
X176091D01*
X175500Y276909D02*
Y278091D01*
X170409Y277500D02*
X171591D01*
X171000Y276909D02*
Y278091D01*
X165909Y277500D02*
X167091D01*
X166500Y276909D02*
Y278091D01*
X138713Y294000D02*
X140287D01*
X139500Y293213D02*
Y294787D01*
X146713Y294000D02*
X148287D01*
X147500Y293213D02*
Y294787D01*
X154713Y294000D02*
X156287D01*
X155500Y293213D02*
Y294787D01*
X50769Y286010D02*
X52344D01*
X51557Y285223D02*
Y286798D01*
X50769Y294010D02*
X52344D01*
X51557Y293223D02*
Y294798D01*
X58769Y294010D02*
X60344D01*
X59557Y293223D02*
Y294798D01*
X58769Y286010D02*
X60344D01*
X59557Y285223D02*
Y286798D01*
X66769Y294010D02*
X68344D01*
X67557Y293223D02*
Y294798D01*
X66769Y286010D02*
X68344D01*
X67557Y285223D02*
Y286798D01*
X74769Y294010D02*
X76344D01*
X75557Y293223D02*
Y294798D01*
X74769Y286010D02*
X76344D01*
X75557Y285223D02*
Y286798D01*
X82769Y294010D02*
X84344D01*
X83557Y293223D02*
Y294798D01*
X82769Y286010D02*
X84344D01*
X83557Y285223D02*
Y286798D01*
X90769Y286010D02*
X92344D01*
X91557Y285223D02*
Y286798D01*
X90769Y294010D02*
X92344D01*
X91557Y293223D02*
Y294798D01*
X98769Y294010D02*
X100344D01*
X99557Y293223D02*
Y294798D01*
X98769Y286010D02*
X100344D01*
X99557Y285223D02*
Y286798D01*
X106769Y294010D02*
X108344D01*
X107557Y293223D02*
Y294798D01*
X106769Y286010D02*
X108344D01*
X107557Y285223D02*
Y286798D01*
X114769Y294010D02*
X116344D01*
X115557Y293223D02*
Y294798D01*
X114769Y286010D02*
X116344D01*
X115557Y285223D02*
Y286798D01*
X122769Y294010D02*
X124344D01*
X123557Y293223D02*
Y294798D01*
X122769Y286010D02*
X124344D01*
X123557Y285223D02*
Y286798D01*
X50769Y302010D02*
X52344D01*
X51557Y301223D02*
Y302798D01*
X58769Y302010D02*
X60344D01*
X59557Y301223D02*
Y302798D01*
X66769Y302010D02*
X68344D01*
X67557Y301223D02*
Y302798D01*
X74769Y302010D02*
X76344D01*
X75557Y301223D02*
Y302798D01*
X82769Y302010D02*
X84344D01*
X83557Y301223D02*
Y302798D01*
X90769Y302010D02*
X92344D01*
X91557Y301223D02*
Y302798D01*
X98769Y302010D02*
X100344D01*
X99557Y301223D02*
Y302798D01*
X106769Y302010D02*
X108344D01*
X107557Y301223D02*
Y302798D01*
X114769Y302010D02*
X116344D01*
X115557Y301223D02*
Y302798D01*
X122769Y302010D02*
X124344D01*
X123557Y301223D02*
Y302798D01*
X138713Y302000D02*
X140287D01*
X139500Y301213D02*
Y302787D01*
X146713Y302000D02*
X148287D01*
X147500Y301213D02*
Y302787D01*
X154713Y302000D02*
X156287D01*
X155500Y301213D02*
Y302787D01*
X210713Y286000D02*
X212287D01*
X211500Y285213D02*
Y286787D01*
X210713Y294000D02*
X212287D01*
X211500Y293213D02*
Y294787D01*
X202713Y286000D02*
X204287D01*
X203500Y285213D02*
Y286787D01*
X202713Y294000D02*
X204287D01*
X203500Y293213D02*
Y294787D01*
X194713Y286000D02*
X196287D01*
X195500Y285213D02*
Y286787D01*
X194713Y294000D02*
X196287D01*
X195500Y293213D02*
Y294787D01*
X186713Y286000D02*
X188287D01*
X187500Y285213D02*
Y286787D01*
X186713Y294000D02*
X188287D01*
X187500Y293213D02*
Y294787D01*
X210713Y302000D02*
X212287D01*
X211500Y301213D02*
Y302787D01*
X202713Y302000D02*
X204287D01*
X203500Y301213D02*
Y302787D01*
X194713Y302000D02*
X196287D01*
X195500Y301213D02*
Y302787D01*
X186713Y302000D02*
X188287D01*
X187500Y301213D02*
Y302787D01*
X178713Y302000D02*
X180287D01*
X179500Y301213D02*
Y302787D01*
X178713Y294000D02*
X180287D01*
X179500Y293213D02*
Y294787D01*
X178713Y286000D02*
X180287D01*
X179500Y285213D02*
Y286787D01*
X126229Y270638D02*
X127410D01*
X126819Y270048D02*
Y271229D01*
X128522Y276655D02*
X129703D01*
X129112Y276064D02*
Y277246D01*
X134560Y277938D02*
X135741D01*
X135150Y277348D02*
Y278529D01*
X131236Y270260D02*
X132417D01*
X131826Y269669D02*
Y270850D01*
X131467Y275729D02*
X132648D01*
X132058Y275139D02*
Y276320D01*
X120644Y178121D02*
X121825D01*
X121234Y177531D02*
Y178712D01*
X198409Y228000D02*
X199591D01*
X199000Y227410D02*
Y228590D01*
X239409Y237500D02*
X240591D01*
X240000Y236910D02*
Y238090D01*
X115909Y138000D02*
X117091D01*
X116500Y137409D02*
Y138591D01*
X57016Y237000D02*
X58984D01*
X58000Y236016D02*
Y237984D01*
X83823Y179966D02*
X85004D01*
X84414Y179375D02*
Y180556D01*
X106802Y185931D02*
X107786D01*
X107294Y185439D02*
Y186423D01*
X57910Y187500D02*
X59091D01*
X58500Y186909D02*
Y188091D01*
X54516Y140500D02*
X56484D01*
X55500Y139516D02*
Y141484D01*
X125008Y146500D02*
X125992D01*
X125500Y146008D02*
Y146992D01*
X162620Y259000D02*
X163605D01*
X163113Y258508D02*
Y259492D01*
X168008Y250450D02*
X168992D01*
X168500Y249958D02*
Y250942D01*
X138111Y212367D02*
X139095D01*
X138603Y211875D02*
Y212859D01*
X181508Y238500D02*
X182492D01*
X182000Y238008D02*
Y238992D01*
X125811Y163643D02*
X126795D01*
X126303Y163151D02*
Y164135D01*
X123435Y163893D02*
X124419D01*
X123927Y163401D02*
Y164385D01*
X102129Y127913D02*
X103113D01*
X102621Y127420D02*
Y128405D01*
X102508Y145500D02*
X103492D01*
X103000Y145008D02*
Y145992D01*
X120290Y122370D02*
X121274D01*
X120782Y121878D02*
Y122862D01*
X119185Y205683D02*
X120170D01*
X119678Y205191D02*
Y206175D01*
X119185Y203087D02*
X120170D01*
X119678Y202595D02*
Y203579D01*
X100230Y210815D02*
X101214D01*
X100722Y210323D02*
Y211307D01*
X98008Y209500D02*
X98992D01*
X98500Y209008D02*
Y209992D01*
X109508Y273500D02*
X110492D01*
X110000Y273008D02*
Y273992D01*
X93479Y274368D02*
X94463D01*
X93971Y273875D02*
Y274860D01*
X109008Y271000D02*
X109992D01*
X109500Y270508D02*
Y271492D01*
X95009Y218292D02*
X95993D01*
X95501Y217800D02*
Y218784D01*
X121648Y191317D02*
X122632D01*
X122140Y190824D02*
Y191809D01*
X121648Y193491D02*
X122632D01*
X122140Y192999D02*
Y193983D01*
X110936Y187897D02*
X111920D01*
X111428Y187405D02*
Y188389D01*
X109221Y189540D02*
X110205D01*
X109713Y189048D02*
Y190032D01*
X132343Y254858D02*
X133327D01*
X132835Y254366D02*
Y255351D01*
X234008Y56946D02*
X234992D01*
X234500Y56454D02*
Y57438D01*
X234008Y54771D02*
X234992D01*
X234500Y54279D02*
Y55263D01*
X173008Y115500D02*
X173992D01*
X173500Y115008D02*
Y115992D01*
X218508Y155000D02*
X219492D01*
X219000Y154508D02*
Y155492D01*
X62508Y60000D02*
X63492D01*
X63000Y59508D02*
Y60492D01*
X90508Y99500D02*
X91492D01*
X91000Y99008D02*
Y99992D01*
X168479Y209520D02*
X169463D01*
X168971Y209028D02*
Y210012D01*
X88945Y171661D02*
X89732D01*
X89339Y171268D02*
Y172055D01*
X93276Y171661D02*
X94063D01*
X93669Y171268D02*
Y172055D01*
X97606Y171661D02*
X98394D01*
X98000Y171268D02*
Y172055D01*
X101937Y171661D02*
X102724D01*
X102331Y171268D02*
Y172055D01*
X106268Y171661D02*
X107055D01*
X106661Y171268D02*
Y172055D01*
X88945Y167331D02*
X89732D01*
X89339Y166937D02*
Y167724D01*
X93276Y167331D02*
X94063D01*
X93669Y166937D02*
Y167724D01*
X97606Y167331D02*
X98394D01*
X98000Y166937D02*
Y167724D01*
X101937Y167331D02*
X102724D01*
X102331Y166937D02*
Y167724D01*
X106268Y167331D02*
X107055D01*
X106661Y166937D02*
Y167724D01*
X88945Y163000D02*
X89732D01*
X89339Y162606D02*
Y163394D01*
X93276Y163000D02*
X94063D01*
X93669Y162606D02*
Y163394D01*
X97606Y163000D02*
X98394D01*
X98000Y162606D02*
Y163394D01*
X101937Y163000D02*
X102724D01*
X102331Y162606D02*
Y163394D01*
X106268Y163000D02*
X107055D01*
X106661Y162606D02*
Y163394D01*
X88945Y158669D02*
X89732D01*
X89339Y158276D02*
Y159063D01*
X93276Y158669D02*
X94063D01*
X93669Y158276D02*
Y159063D01*
X97606Y158669D02*
X98394D01*
X98000Y158276D02*
Y159063D01*
X101937Y158669D02*
X102724D01*
X102331Y158276D02*
Y159063D01*
X106268Y158669D02*
X107055D01*
X106661Y158276D02*
Y159063D01*
X88945Y154339D02*
X89732D01*
X89339Y153945D02*
Y154732D01*
X93276Y154339D02*
X94063D01*
X93669Y153945D02*
Y154732D01*
X97606Y154339D02*
X98394D01*
X98000Y153945D02*
Y154732D01*
X101937Y154339D02*
X102724D01*
X102331Y153945D02*
Y154732D01*
X106268Y154339D02*
X107055D01*
X106661Y153945D02*
Y154732D01*
M02*
