G04*
G04 #@! TF.GenerationSoftware,Altium Limited,Altium Designer,23.5.1 (21)*
G04*
G04 Layer_Color=16711935*
%FSLAX25Y25*%
%MOIN*%
G70*
G04*
G04 #@! TF.SameCoordinates,89F97100-6FF8-4533-BDCD-A1BC4398B3AB*
G04*
G04*
G04 #@! TF.FilePolarity,Positive*
G04*
G01*
G75*
%ADD10C,0.00787*%
G36*
X97809Y85816D02*
X98452D01*
Y85223D01*
X97809D01*
Y83915D01*
X97276D01*
X95243Y85301D01*
Y85816D01*
X97273D01*
Y86214D01*
X97809D01*
Y85816D01*
D02*
G37*
G36*
X97077Y83474D02*
X97130D01*
X97190Y83472D01*
X97253Y83469D01*
X97320Y83467D01*
X97387Y83462D01*
X97456Y83460D01*
X97523Y83453D01*
X97585Y83449D01*
X97645Y83442D01*
X97701Y83432D01*
X97749Y83423D01*
X97752D01*
X97761Y83421D01*
X97772Y83419D01*
X97789Y83412D01*
X97809Y83407D01*
X97833Y83400D01*
X97860Y83391D01*
X97888Y83379D01*
X97953Y83351D01*
X98020Y83319D01*
X98087Y83278D01*
X98151Y83229D01*
X98154Y83227D01*
X98158Y83222D01*
X98167Y83215D01*
X98179Y83204D01*
X98190Y83190D01*
X98207Y83174D01*
X98225Y83153D01*
X98244Y83130D01*
X98264Y83104D01*
X98285Y83077D01*
X98306Y83047D01*
X98329Y83012D01*
X98350Y82977D01*
X98371Y82938D01*
X98391Y82899D01*
X98410Y82855D01*
Y82853D01*
X98415Y82843D01*
X98419Y82832D01*
X98426Y82813D01*
X98433Y82788D01*
X98440Y82760D01*
X98449Y82728D01*
X98458Y82691D01*
X98468Y82647D01*
X98477Y82601D01*
X98484Y82550D01*
X98491Y82497D01*
X98498Y82437D01*
X98502Y82377D01*
X98505Y82310D01*
X98507Y82240D01*
Y82196D01*
X98505Y82164D01*
Y82127D01*
X98502Y82083D01*
X98498Y82035D01*
X98493Y81982D01*
X98488Y81926D01*
X98482Y81868D01*
X98463Y81753D01*
X98452Y81698D01*
X98438Y81642D01*
X98422Y81591D01*
X98403Y81545D01*
X98401Y81543D01*
X98398Y81536D01*
X98391Y81522D01*
X98385Y81506D01*
X98373Y81487D01*
X98361Y81464D01*
X98345Y81439D01*
X98329Y81411D01*
X98290Y81351D01*
X98241Y81289D01*
X98188Y81226D01*
X98128Y81171D01*
X98126Y81169D01*
X98121Y81164D01*
X98112Y81157D01*
X98098Y81150D01*
X98084Y81138D01*
X98066Y81125D01*
X98043Y81111D01*
X98020Y81097D01*
X97966Y81067D01*
X97906Y81037D01*
X97842Y81011D01*
X97772Y80991D01*
X97770D01*
X97759Y80988D01*
X97742Y80986D01*
X97722Y80981D01*
X97692Y80977D01*
X97657Y80970D01*
X97615Y80965D01*
X97567Y80961D01*
X97514Y80954D01*
X97454Y80949D01*
X97387Y80942D01*
X97315Y80938D01*
X97237Y80935D01*
X97151Y80931D01*
X97059Y80928D01*
X96962D01*
X95254D01*
Y81573D01*
X96987D01*
X96992D01*
X97005D01*
X97026D01*
X97054D01*
X97086D01*
X97123Y81575D01*
X97165D01*
X97209D01*
X97299Y81577D01*
X97345Y81580D01*
X97387Y81582D01*
X97428Y81584D01*
X97465Y81589D01*
X97497Y81591D01*
X97523Y81596D01*
X97525D01*
X97532Y81598D01*
X97541Y81600D01*
X97555Y81605D01*
X97571Y81610D01*
X97592Y81617D01*
X97636Y81635D01*
X97687Y81663D01*
X97738Y81695D01*
X97763Y81716D01*
X97789Y81739D01*
X97814Y81765D01*
X97837Y81792D01*
X97839Y81795D01*
X97842Y81799D01*
X97849Y81809D01*
X97856Y81820D01*
X97865Y81836D01*
X97874Y81857D01*
X97886Y81878D01*
X97895Y81906D01*
X97906Y81933D01*
X97918Y81966D01*
X97927Y82000D01*
X97936Y82039D01*
X97943Y82081D01*
X97950Y82123D01*
X97953Y82171D01*
X97955Y82220D01*
Y82245D01*
X97953Y82266D01*
Y82287D01*
X97948Y82314D01*
X97946Y82342D01*
X97941Y82374D01*
X97927Y82441D01*
X97909Y82511D01*
X97881Y82575D01*
X97862Y82605D01*
X97844Y82633D01*
X97842Y82635D01*
X97839Y82640D01*
X97833Y82647D01*
X97823Y82656D01*
X97800Y82679D01*
X97768Y82707D01*
X97726Y82737D01*
X97680Y82765D01*
X97627Y82786D01*
X97599Y82795D01*
X97569Y82802D01*
X97567D01*
X97562Y82804D01*
X97551D01*
X97537Y82806D01*
X97518Y82809D01*
X97497Y82811D01*
X97470Y82813D01*
X97440Y82818D01*
X97403Y82820D01*
X97364Y82823D01*
X97320Y82825D01*
X97269Y82827D01*
X97216Y82829D01*
X97156D01*
X97093Y82832D01*
X97024D01*
X95254D01*
Y83476D01*
X96936D01*
X96939D01*
X96943D01*
X96950D01*
X96962D01*
X96975D01*
X96992D01*
X97010D01*
X97029D01*
X97077Y83474D01*
D02*
G37*
G36*
X194441Y199238D02*
X194471Y199235D01*
X194508Y199233D01*
X194552Y199226D01*
X194598Y199219D01*
X194651Y199208D01*
X194707Y199196D01*
X194765Y199180D01*
X194825Y199159D01*
X194885Y199134D01*
X194945Y199106D01*
X195005Y199074D01*
X195063Y199034D01*
X195118Y198990D01*
X195121Y198988D01*
X195130Y198979D01*
X195146Y198965D01*
X195164Y198944D01*
X195185Y198921D01*
X195211Y198891D01*
X195238Y198854D01*
X195266Y198815D01*
X195296Y198771D01*
X195324Y198723D01*
X195352Y198667D01*
X195379Y198609D01*
X195402Y198549D01*
X195421Y198482D01*
X195437Y198413D01*
X195449Y198339D01*
X194855Y198265D01*
Y198267D01*
X194852Y198274D01*
Y198286D01*
X194848Y198302D01*
X194846Y198323D01*
X194839Y198344D01*
X194834Y198369D01*
X194825Y198395D01*
X194806Y198450D01*
X194779Y198508D01*
X194746Y198565D01*
X194726Y198591D01*
X194705Y198614D01*
X194702Y198616D01*
X194698Y198619D01*
X194691Y198626D01*
X194682Y198632D01*
X194670Y198642D01*
X194656Y198651D01*
X194619Y198672D01*
X194575Y198695D01*
X194525Y198713D01*
X194467Y198727D01*
X194437Y198729D01*
X194404Y198732D01*
X194386D01*
X194372Y198729D01*
X194356Y198727D01*
X194337Y198725D01*
X194293Y198713D01*
X194243Y198697D01*
X194217Y198686D01*
X194190Y198672D01*
X194162Y198655D01*
X194136Y198635D01*
X194111Y198614D01*
X194086Y198589D01*
X194083Y198586D01*
X194081Y198582D01*
X194074Y198575D01*
X194065Y198563D01*
X194056Y198547D01*
X194044Y198531D01*
X194033Y198510D01*
X194019Y198487D01*
X194007Y198459D01*
X193995Y198432D01*
X193984Y198399D01*
X193975Y198364D01*
X193965Y198328D01*
X193958Y198288D01*
X193956Y198244D01*
X193954Y198201D01*
Y198198D01*
Y198191D01*
Y198177D01*
X193956Y198161D01*
X193958Y198143D01*
X193961Y198120D01*
X193963Y198094D01*
X193970Y198069D01*
X193984Y198009D01*
X194007Y197949D01*
X194021Y197919D01*
X194037Y197889D01*
X194056Y197859D01*
X194079Y197833D01*
X194081Y197831D01*
X194083Y197826D01*
X194090Y197822D01*
X194102Y197812D01*
X194113Y197801D01*
X194127Y197789D01*
X194164Y197764D01*
X194208Y197741D01*
X194259Y197718D01*
X194287Y197708D01*
X194317Y197704D01*
X194349Y197699D01*
X194381Y197697D01*
X194402D01*
X194414Y197699D01*
X194428D01*
X194460Y197702D01*
X194501Y197708D01*
X194550Y197715D01*
X194603Y197727D01*
X194661Y197743D01*
X194594Y197244D01*
X194552D01*
X194531Y197242D01*
X194508Y197239D01*
X194481Y197237D01*
X194453Y197233D01*
X194390Y197221D01*
X194328Y197203D01*
X194296Y197189D01*
X194266Y197175D01*
X194238Y197159D01*
X194213Y197138D01*
X194210Y197135D01*
X194208Y197133D01*
X194201Y197126D01*
X194192Y197117D01*
X194183Y197106D01*
X194171Y197092D01*
X194159Y197075D01*
X194146Y197057D01*
X194123Y197013D01*
X194102Y196960D01*
X194093Y196932D01*
X194086Y196900D01*
X194083Y196868D01*
X194081Y196833D01*
Y196831D01*
Y196826D01*
Y196817D01*
X194083Y196805D01*
Y196791D01*
X194086Y196777D01*
X194093Y196740D01*
X194104Y196699D01*
X194123Y196657D01*
X194146Y196616D01*
X194178Y196576D01*
X194183Y196572D01*
X194196Y196560D01*
X194217Y196546D01*
X194247Y196528D01*
X194284Y196510D01*
X194328Y196496D01*
X194377Y196484D01*
X194434Y196479D01*
X194451D01*
X194460Y196482D01*
X194474D01*
X194490Y196484D01*
X194527Y196493D01*
X194568Y196507D01*
X194615Y196526D01*
X194661Y196553D01*
X194684Y196572D01*
X194705Y196590D01*
X194707Y196593D01*
X194709Y196595D01*
X194714Y196602D01*
X194723Y196611D01*
X194730Y196623D01*
X194742Y196637D01*
X194751Y196653D01*
X194762Y196671D01*
X194774Y196692D01*
X194785Y196715D01*
X194797Y196740D01*
X194809Y196771D01*
X194818Y196801D01*
X194827Y196833D01*
X194834Y196870D01*
X194839Y196907D01*
X195402Y196812D01*
Y196810D01*
X195400Y196798D01*
X195395Y196784D01*
X195391Y196764D01*
X195386Y196738D01*
X195377Y196711D01*
X195370Y196678D01*
X195358Y196646D01*
X195333Y196572D01*
X195303Y196493D01*
X195268Y196417D01*
X195247Y196382D01*
X195227Y196348D01*
X195224Y196345D01*
X195222Y196341D01*
X195215Y196332D01*
X195204Y196320D01*
X195192Y196304D01*
X195178Y196288D01*
X195160Y196269D01*
X195139Y196248D01*
X195118Y196228D01*
X195093Y196205D01*
X195065Y196181D01*
X195035Y196161D01*
X195003Y196138D01*
X194970Y196115D01*
X194894Y196075D01*
X194892Y196073D01*
X194885Y196071D01*
X194873Y196066D01*
X194857Y196059D01*
X194836Y196052D01*
X194813Y196043D01*
X194785Y196034D01*
X194755Y196024D01*
X194721Y196015D01*
X194684Y196008D01*
X194645Y195999D01*
X194603Y195992D01*
X194513Y195981D01*
X194464Y195976D01*
X194395D01*
X194372Y195978D01*
X194342Y195981D01*
X194303Y195985D01*
X194259Y195992D01*
X194210Y195999D01*
X194157Y196013D01*
X194099Y196027D01*
X194042Y196045D01*
X193982Y196071D01*
X193922Y196098D01*
X193861Y196131D01*
X193801Y196170D01*
X193746Y196214D01*
X193693Y196265D01*
X193691Y196267D01*
X193684Y196276D01*
X193672Y196288D01*
X193658Y196306D01*
X193640Y196329D01*
X193621Y196355D01*
X193600Y196385D01*
X193580Y196420D01*
X193559Y196456D01*
X193538Y196498D01*
X193520Y196542D01*
X193501Y196588D01*
X193487Y196637D01*
X193476Y196687D01*
X193469Y196740D01*
X193466Y196796D01*
Y196801D01*
Y196815D01*
X193469Y196835D01*
X193473Y196865D01*
X193480Y196902D01*
X193492Y196941D01*
X193506Y196988D01*
X193524Y197038D01*
X193550Y197089D01*
X193580Y197145D01*
X193617Y197200D01*
X193660Y197258D01*
X193714Y197313D01*
X193744Y197341D01*
X193776Y197367D01*
X193811Y197394D01*
X193848Y197420D01*
X193887Y197445D01*
X193929Y197468D01*
X193926D01*
X193917Y197470D01*
X193903Y197475D01*
X193882Y197480D01*
X193859Y197487D01*
X193834Y197498D01*
X193804Y197510D01*
X193771Y197524D01*
X193737Y197540D01*
X193700Y197558D01*
X193663Y197579D01*
X193628Y197605D01*
X193591Y197630D01*
X193557Y197662D01*
X193522Y197695D01*
X193490Y197731D01*
X193487Y197734D01*
X193483Y197741D01*
X193473Y197752D01*
X193464Y197768D01*
X193453Y197787D01*
X193439Y197812D01*
X193423Y197840D01*
X193406Y197870D01*
X193393Y197905D01*
X193376Y197942D01*
X193363Y197983D01*
X193351Y198027D01*
X193342Y198073D01*
X193333Y198122D01*
X193328Y198173D01*
X193326Y198226D01*
Y198231D01*
Y198244D01*
X193328Y198267D01*
X193330Y198298D01*
X193335Y198332D01*
X193342Y198376D01*
X193351Y198422D01*
X193365Y198473D01*
X193381Y198529D01*
X193402Y198586D01*
X193427Y198646D01*
X193455Y198706D01*
X193492Y198769D01*
X193534Y198829D01*
X193580Y198887D01*
X193635Y198944D01*
X193640Y198947D01*
X193649Y198956D01*
X193667Y198972D01*
X193691Y198990D01*
X193721Y199014D01*
X193755Y199037D01*
X193799Y199064D01*
X193845Y199092D01*
X193898Y199120D01*
X193956Y199145D01*
X194019Y199171D01*
X194088Y199194D01*
X194159Y199212D01*
X194236Y199226D01*
X194317Y199238D01*
X194400Y199240D01*
X194418D01*
X194441Y199238D01*
D02*
G37*
G36*
X197285D02*
X197322D01*
X197366Y199235D01*
X197414Y199231D01*
X197467Y199226D01*
X197523Y199222D01*
X197581Y199215D01*
X197696Y199196D01*
X197752Y199185D01*
X197807Y199171D01*
X197858Y199154D01*
X197904Y199136D01*
X197906Y199134D01*
X197913Y199131D01*
X197927Y199125D01*
X197943Y199118D01*
X197962Y199106D01*
X197985Y199094D01*
X198010Y199078D01*
X198038Y199062D01*
X198098Y199023D01*
X198160Y198974D01*
X198223Y198921D01*
X198278Y198861D01*
X198281Y198859D01*
X198285Y198854D01*
X198292Y198845D01*
X198299Y198831D01*
X198311Y198817D01*
X198324Y198799D01*
X198338Y198776D01*
X198352Y198752D01*
X198382Y198699D01*
X198412Y198639D01*
X198438Y198575D01*
X198458Y198505D01*
Y198503D01*
X198461Y198492D01*
X198463Y198475D01*
X198468Y198455D01*
X198472Y198424D01*
X198479Y198390D01*
X198484Y198348D01*
X198488Y198300D01*
X198495Y198247D01*
X198500Y198187D01*
X198507Y198120D01*
X198512Y198048D01*
X198514Y197969D01*
X198519Y197884D01*
X198521Y197792D01*
Y197695D01*
Y195987D01*
X197876D01*
Y197720D01*
Y197725D01*
Y197739D01*
Y197759D01*
Y197787D01*
Y197819D01*
X197874Y197856D01*
Y197898D01*
Y197942D01*
X197872Y198032D01*
X197869Y198078D01*
X197867Y198120D01*
X197865Y198161D01*
X197860Y198198D01*
X197858Y198231D01*
X197853Y198256D01*
Y198258D01*
X197851Y198265D01*
X197849Y198274D01*
X197844Y198288D01*
X197839Y198304D01*
X197832Y198325D01*
X197814Y198369D01*
X197786Y198420D01*
X197754Y198471D01*
X197733Y198496D01*
X197710Y198522D01*
X197685Y198547D01*
X197657Y198570D01*
X197654Y198572D01*
X197650Y198575D01*
X197641Y198582D01*
X197629Y198589D01*
X197613Y198598D01*
X197592Y198607D01*
X197571Y198619D01*
X197544Y198628D01*
X197516Y198639D01*
X197484Y198651D01*
X197449Y198660D01*
X197410Y198669D01*
X197368Y198676D01*
X197327Y198683D01*
X197278Y198686D01*
X197230Y198688D01*
X197204D01*
X197183Y198686D01*
X197162D01*
X197135Y198681D01*
X197107Y198679D01*
X197075Y198674D01*
X197008Y198660D01*
X196938Y198642D01*
X196874Y198614D01*
X196844Y198595D01*
X196816Y198577D01*
X196814Y198575D01*
X196809Y198572D01*
X196802Y198565D01*
X196793Y198556D01*
X196770Y198533D01*
X196742Y198501D01*
X196712Y198459D01*
X196684Y198413D01*
X196664Y198360D01*
X196654Y198332D01*
X196647Y198302D01*
Y198300D01*
X196645Y198295D01*
Y198284D01*
X196643Y198270D01*
X196641Y198251D01*
X196638Y198231D01*
X196636Y198203D01*
X196631Y198173D01*
X196629Y198136D01*
X196627Y198097D01*
X196624Y198053D01*
X196622Y198002D01*
X196620Y197949D01*
Y197889D01*
X196617Y197826D01*
Y197757D01*
Y195987D01*
X195973D01*
Y197669D01*
Y197671D01*
Y197676D01*
Y197683D01*
Y197695D01*
Y197708D01*
Y197725D01*
Y197743D01*
Y197762D01*
X195975Y197810D01*
Y197863D01*
X195977Y197923D01*
X195980Y197986D01*
X195982Y198053D01*
X195987Y198120D01*
X195989Y198189D01*
X195996Y198256D01*
X196001Y198318D01*
X196008Y198378D01*
X196017Y198434D01*
X196026Y198482D01*
Y198485D01*
X196028Y198494D01*
X196031Y198505D01*
X196037Y198522D01*
X196042Y198542D01*
X196049Y198565D01*
X196058Y198593D01*
X196070Y198621D01*
X196098Y198686D01*
X196130Y198752D01*
X196171Y198819D01*
X196220Y198884D01*
X196222Y198887D01*
X196227Y198891D01*
X196234Y198900D01*
X196245Y198912D01*
X196259Y198924D01*
X196275Y198940D01*
X196296Y198958D01*
X196319Y198977D01*
X196345Y198997D01*
X196372Y199018D01*
X196403Y199039D01*
X196437Y199062D01*
X196472Y199083D01*
X196511Y199104D01*
X196550Y199125D01*
X196594Y199143D01*
X196597D01*
X196606Y199148D01*
X196617Y199152D01*
X196636Y199159D01*
X196661Y199166D01*
X196689Y199173D01*
X196721Y199182D01*
X196758Y199191D01*
X196802Y199201D01*
X196848Y199210D01*
X196899Y199217D01*
X196952Y199224D01*
X197012Y199231D01*
X197072Y199235D01*
X197139Y199238D01*
X197209Y199240D01*
X197253D01*
X197285Y199238D01*
D02*
G37*
%LPC*%
G36*
X97273Y85223D02*
X96183D01*
X97273Y84488D01*
Y85223D01*
D02*
G37*
%LPD*%
D10*
X92102Y73126D02*
X104898D01*
Y88874D01*
X92102D02*
X104898D01*
X92102Y73126D02*
Y88874D01*
X214851Y186886D02*
Y210114D01*
X182149D02*
X214851D01*
X182149Y186886D02*
Y210114D01*
Y186886D02*
X214851D01*
M02*
