M48
;Layer_Color=9474304
;FILE_FORMAT=2:5
INCH,LZ
;TYPE=PLATED
T1F00S00C0.00787
T2F00S00C0.00984
T3F00S00C0.01181
T4F00S00C0.01575
T5F00S00C0.01968
T6F00S00C0.02756
T8F00S00C0.03543
T9F00S00C0.05512
T10F00S00C0.12598
%
T01
X0089339Y0154339
Y0158669
Y0163
Y0167331
Y0171661
X0093669
X0098
X0102331
X0106661
Y0167331
X0102331
X0098
X0093669
Y0163
X0098
X0102331
X0106661
Y0158669
X0102331
Y0154339
X0106661
X0098
Y0158669
X0093669
Y0154339
T02
X02345Y0054771
Y0056946
X0219Y0155
X01735Y01155
X0120782Y012237
X0123783Y0142615
X01255Y01465
X0123968Y0159794
X0123927Y0163893
X0126303Y0163643
X0103Y01455
X0102621Y0127913
X0091Y00995
X00905Y00825
Y00795
Y00765
Y00735
X0094751Y0074621
X0094797Y0076941
X00935Y00795
Y00825
X00965
X00995
Y00795
X00965
X01025
Y00825
X0063Y006
X0107294Y0185931
X0109713Y018954
X0111428Y0187897
X012214Y0191317
Y0193491
X0119678Y0203087
Y0205683
X0100722Y0210815
X00985Y02095
X0095501Y0218292
X0138603Y0212367
X0168971Y020952
X0196264Y020285
Y0200683
Y0198515
Y0196347
Y019418
X0198432
X02006
Y0196347
X0198432
Y0198515
X02006
Y0200683
X0198432
Y020285
X02006
X0212Y02095
X0214776Y0209446
X0182Y02385
X01685Y025045
X0163113Y0259
X0132835Y0254858
X01095Y0271
X011Y02735
X0093971Y0274368
T03
X023Y005
X0230974Y0060116
X02405Y0067
X025Y00715
X0253Y00705
Y00825
Y00945
Y01065
Y01185
X02435Y0124
X02365
X0232253Y0136971
X0237Y01415
X02495Y0137
X0253Y0138
X02495Y0053
X02405Y00405
X0223Y00415
X0215
X0207
X0199
X0191
X0183
X0175
X0167
X0159
X0151
X0143439Y0041648
X01335Y00445
X01275
X01215
Y00505
X01275
X014Y0052
X01345Y0058
X013Y0063
X01335Y00745
X01395Y00695
X0144Y0064
X015Y006
X0159Y00595
X017
X0181
X01915
X0202
X02135
X021Y005
X0195
X01775Y00495
X01645Y00505
X0151Y005
X0152963Y0083123
X0158964
Y0089123
X0152963
X0146964
Y0083123
X0140963
Y0089123
X0134964
Y0095123
Y0101123
Y0107123
X0135Y0113
X0139
X0145
X01445Y0121
X0135Y0119
Y0125
X01275Y0128
Y0133
X0119901Y0137476
X01165Y0138
X011607Y014368
X01145Y01475
X01155Y015
X01165Y0155
Y0159
X01275Y01605
X0136333Y0158359
Y0164359
Y0170359
X013655Y0177687
X0146Y01775
Y01715
Y01655
Y01595
Y01535
Y01475
Y01415
X0134642Y0153283
X010836Y014453
X0099Y0145
X00955
X0083843Y0146315
X0081253Y0149192
X0077945Y015216
X0079Y0158
X0075181Y0161997
X0078698Y0169689
X0115042Y0172266
X0111401Y0176542
X0121234Y0178121
X01095Y01355
X01005Y0137
X0096981Y0127934
X0107Y0125
X01135
X0123448Y0118852
X01275Y01205
Y01155
X0123226Y011329
X01275Y0108
Y01005
X0123Y01025
Y00955
X0127529Y0092341
X0101996Y0109759
X00815Y01145
X00755
Y01205
X00815
Y01265
X00755
Y01025
Y00965
X00815
Y01025
X0076047Y007642
X0080444Y007156
X00805Y00425
X0080617Y0038155
X00745Y00425
X01745Y01015
Y0105
X01695Y0107
X01815Y01055
Y01015
X01865Y01055
X0191
X01965
X0203Y0124
X0208
X0213
X02225Y01245
X0205Y01375
X02055Y01455
Y01575
X02175Y01615
X02115Y0168
X0218Y01745
X0226Y0169
X02265Y006
X0226Y005
X01645Y01165
X00695Y01145
Y01205
Y01265
Y01025
Y00965
X0059738Y0160394
X0052408Y0160804
X0045983Y0161676
X0046102Y016839
X0046043Y017558
X0064019Y0175765
X0064511Y0170528
X0070253Y017017
X0067908Y0177897
X006773Y0182947
X0063977Y0181287
X0061811Y018399
X00585Y01875
X0055796Y0184885
X0056737Y0192325
X0062329Y0191652
X0051022Y0191593
X0048777Y0182975
X0049Y02135
X006Y02145
X007Y0215
X00685Y02005
X0058Y0227
X0082724Y0221139
X0091458Y0222226
X0101112Y022323
X0109729Y0214114
X0109949Y0208081
X0110647Y0200718
X0113874Y0198986
X0122391Y0198516
X0129238Y0197959
X0129415Y0208904
X012933Y0217535
X0135981Y0217799
X0136446Y0227633
X0128776Y0227797
X0128979Y024068
X0136637Y0240832
X0145811Y0241367
X0145904Y023357
X0145917Y0227904
X0154022Y0224462
X0153997Y0233646
X0154099Y0241367
X0167Y0235
X0172662Y0239583
X0175554Y024859
X0182308Y0249095
X0187Y02525
X01953Y0252276
X0191298Y0256789
X019631Y0234842
X0196221Y0231873
X0199Y0228
X02025Y0222
X01945
X02105
X0211Y0233
X02075Y02355
X01845Y0233
Y023
X0185701Y0209348
X0182Y0199
Y0195
X01715Y0196
X0151484Y02015
X0148169Y0211938
X014318Y0211599
X0136615Y0205597
X013655Y0189687
Y0183686
X0125417Y0185886
X0125866Y0189097
X0122413Y0188061
X0114745Y0189157
X0105448Y0189242
X0101512Y0183719
X0099392Y0192761
X0088189Y0189412
X0084414Y0179966
X00835Y0199
X0075Y02005
X0077Y02145
X0095434Y0210222
X0093Y02425
X0098
X0103
X0108
X0113
X0128944Y0259286
X0129611Y0262232
X0126862Y026231
X0126819Y0270638
X012684Y0274362
X0129912Y0273037
X0133404Y0272679
X0131826Y027026
X0136602Y0270564
X013885Y0269524
X0139031Y0272179
X0138893Y0275131
X0136931Y0273656
X013515Y0277938
X0132037Y0278843
X0132058Y0275729
X0129112Y0276655
X0142233Y0287454
X0147565Y0289431
X0153674Y0287207
X015834Y0274896
X0158271Y0271661
X0161116Y0272992
X0161254Y0275401
X0161047Y0270009
X0157325Y0266009
X0160081Y0261962
X0159849Y025504
X0141306Y0256834
X0142472Y0261532
X0136875Y0259336
X0146347Y026644
X0163494Y0279205
X01665Y02775
X0168699Y0275787
X0168819Y0279274
X0171Y02775
X017332Y027589
X0173131Y0279446
X01755Y02775
X0171Y02825
X0103Y0272
X0101Y0265
X00825Y02675
X0160327Y0211793
X0234Y02105
X0239Y0216
X0234Y02215
X024Y02375
X0255Y0241
Y0249
Y0257
Y0265
X0256728Y02287
X02485Y01955
X02425
Y01895
Y01835
X02485
Y01895
T04
X0227Y003
X02355
X0244
X02525
X02635Y0037
Y00455
Y00535
Y00615
Y007
Y0078
Y0086
Y0094
Y01025
Y01105
Y0119
Y0144
Y0152
Y016
Y0168
Y01765
X02185Y003
X021
X02015
X0193
X01845
X0176
X01675
X0159
X0151
X01425
X0134
X01255
X0117
X01085
X01
X00795
X0071
X00625
X0054
X00455
X00415Y00385
Y0047
Y00555
Y0064
Y00725
Y0081
Y00895
Y0098
Y01065
Y0115
Y01235
Y0132
Y01405
Y0149
X00425Y0229
Y0237
Y0245
Y02535
Y02615
Y02695
Y0278
Y0286
Y0294
X0051557Y029401
Y028601
X0059557
Y029401
X0067557
Y028601
Y030201
X0059557
X0051557
X0075557
Y029401
Y028601
X0083557
Y029401
X0091557
Y028601
X0099557
Y029401
X0107557
Y028601
X0115557
Y029401
X0123557
Y028601
Y030201
X0115557
X0107557
X0099557
X0091557
X0083557
X01395Y0302
Y0294
X01475
X01555
Y0302
X01475
X01795
X01875
Y0294
X01955
X02035
X02115
Y0286
X02035
X01955
X01875
X01795
Y0294
X01955Y0302
X02035
X02115
X0261Y02895
Y02815
Y02735
Y0265
Y0257
Y0249
Y0241
X02635Y02255
Y0217
Y0209
Y0201
Y01925
Y01845
T05
X00555Y01405
X0058Y0237
T06
X0137094Y0288012
X015985
T08
X0249Y01445
Y01545
Y01645
Y01745
X0068Y02585
X0078
X0088
X0098
X0108
X0106Y02245
X0116
X0096
X0086
X0076
X0249Y0226
Y0216
T09
X0227315Y02915
X0247
T10
X0230441Y010272
X0151701
Y0260201
X0230441
M30
