G04*
G04 #@! TF.GenerationSoftware,Altium Limited,Altium Designer,23.5.1 (21)*
G04*
G04 Layer_Color=255*
%FSLAX25Y25*%
%MOIN*%
G70*
G04*
G04 #@! TF.SameCoordinates,89F97100-6FF8-4533-BDCD-A1BC4398B3AB*
G04*
G04*
G04 #@! TF.FilePolarity,Positive*
G04*
G01*
G75*
G04:AMPARAMS|DCode=18|XSize=39.37mil|YSize=39.37mil|CornerRadius=9.84mil|HoleSize=0mil|Usage=FLASHONLY|Rotation=0.000|XOffset=0mil|YOffset=0mil|HoleType=Round|Shape=RoundedRectangle|*
%AMROUNDEDRECTD18*
21,1,0.03937,0.01968,0,0,0.0*
21,1,0.01968,0.03937,0,0,0.0*
1,1,0.01968,0.00984,-0.00984*
1,1,0.01968,-0.00984,-0.00984*
1,1,0.01968,-0.00984,0.00984*
1,1,0.01968,0.00984,0.00984*
%
%ADD18ROUNDEDRECTD18*%
G04:AMPARAMS|DCode=19|XSize=11.81mil|YSize=70.87mil|CornerRadius=2.95mil|HoleSize=0mil|Usage=FLASHONLY|Rotation=270.000|XOffset=0mil|YOffset=0mil|HoleType=Round|Shape=RoundedRectangle|*
%AMROUNDEDRECTD19*
21,1,0.01181,0.06496,0,0,270.0*
21,1,0.00591,0.07087,0,0,270.0*
1,1,0.00591,-0.03248,-0.00295*
1,1,0.00591,-0.03248,0.00295*
1,1,0.00591,0.03248,0.00295*
1,1,0.00591,0.03248,-0.00295*
%
%ADD19ROUNDEDRECTD19*%
G04:AMPARAMS|DCode=20|XSize=78.74mil|YSize=59.06mil|CornerRadius=14.76mil|HoleSize=0mil|Usage=FLASHONLY|Rotation=270.000|XOffset=0mil|YOffset=0mil|HoleType=Round|Shape=RoundedRectangle|*
%AMROUNDEDRECTD20*
21,1,0.07874,0.02953,0,0,270.0*
21,1,0.04921,0.05906,0,0,270.0*
1,1,0.02953,-0.01476,-0.02461*
1,1,0.02953,-0.01476,0.02461*
1,1,0.02953,0.01476,0.02461*
1,1,0.02953,0.01476,-0.02461*
%
%ADD20ROUNDEDRECTD20*%
%ADD21R,0.02559X0.02362*%
%ADD22R,0.03858X0.03661*%
%ADD23R,0.04528X0.05512*%
%ADD24R,0.02362X0.02559*%
%ADD25R,0.02362X0.04331*%
%ADD27R,0.01575X0.05512*%
%ADD28R,0.00984X0.02362*%
%ADD29R,0.03661X0.03858*%
%ADD30O,0.03543X0.00984*%
%ADD31O,0.00984X0.03543*%
%ADD32R,0.22047X0.22047*%
%ADD33R,0.02559X0.04528*%
G04:AMPARAMS|DCode=34|XSize=98.43mil|YSize=228.35mil|CornerRadius=24.61mil|HoleSize=0mil|Usage=FLASHONLY|Rotation=180.000|XOffset=0mil|YOffset=0mil|HoleType=Round|Shape=RoundedRectangle|*
%AMROUNDEDRECTD34*
21,1,0.09843,0.17913,0,0,180.0*
21,1,0.04921,0.22835,0,0,180.0*
1,1,0.04921,-0.02461,0.08957*
1,1,0.04921,0.02461,0.08957*
1,1,0.04921,0.02461,-0.08957*
1,1,0.04921,-0.02461,-0.08957*
%
%ADD34ROUNDEDRECTD34*%
%ADD35R,0.07874X0.07874*%
%ADD36R,0.05787X0.04567*%
G04:AMPARAMS|DCode=37|XSize=43.31mil|YSize=23.62mil|CornerRadius=2.01mil|HoleSize=0mil|Usage=FLASHONLY|Rotation=90.000|XOffset=0mil|YOffset=0mil|HoleType=Round|Shape=RoundedRectangle|*
%AMROUNDEDRECTD37*
21,1,0.04331,0.01961,0,0,90.0*
21,1,0.03929,0.02362,0,0,90.0*
1,1,0.00402,0.00980,0.01965*
1,1,0.00402,0.00980,-0.01965*
1,1,0.00402,-0.00980,-0.01965*
1,1,0.00402,-0.00980,0.01965*
%
%ADD37ROUNDEDRECTD37*%
%ADD38R,0.15748X0.11811*%
%ADD39R,0.07874X0.14173*%
%ADD40R,0.07874X0.07874*%
G04:AMPARAMS|DCode=41|XSize=97.4mil|YSize=24.49mil|CornerRadius=12.25mil|HoleSize=0mil|Usage=FLASHONLY|Rotation=180.000|XOffset=0mil|YOffset=0mil|HoleType=Round|Shape=RoundedRectangle|*
%AMROUNDEDRECTD41*
21,1,0.09740,0.00000,0,0,180.0*
21,1,0.07291,0.02449,0,0,180.0*
1,1,0.02449,-0.03646,0.00000*
1,1,0.02449,0.03646,0.00000*
1,1,0.02449,0.03646,0.00000*
1,1,0.02449,-0.03646,0.00000*
%
%ADD41ROUNDEDRECTD41*%
%ADD42R,0.09740X0.02449*%
%ADD43R,0.01575X0.03347*%
%ADD44R,0.09843X0.14173*%
%ADD45O,0.01181X0.05315*%
%ADD46O,0.02362X0.05315*%
%ADD65R,0.07972X0.12205*%
G04:AMPARAMS|DCode=75|XSize=39.37mil|YSize=102.36mil|CornerRadius=9.84mil|HoleSize=0mil|Usage=FLASHONLY|Rotation=180.000|XOffset=0mil|YOffset=0mil|HoleType=Round|Shape=RoundedRectangle|*
%AMROUNDEDRECTD75*
21,1,0.03937,0.08268,0,0,180.0*
21,1,0.01968,0.10236,0,0,180.0*
1,1,0.01968,-0.00984,0.04134*
1,1,0.01968,0.00984,0.04134*
1,1,0.01968,0.00984,-0.04134*
1,1,0.01968,-0.00984,-0.04134*
%
%ADD75ROUNDEDRECTD75*%
G04:AMPARAMS|DCode=76|XSize=59.06mil|YSize=94.49mil|CornerRadius=14.76mil|HoleSize=0mil|Usage=FLASHONLY|Rotation=180.000|XOffset=0mil|YOffset=0mil|HoleType=Round|Shape=RoundedRectangle|*
%AMROUNDEDRECTD76*
21,1,0.05906,0.06496,0,0,180.0*
21,1,0.02953,0.09449,0,0,180.0*
1,1,0.02953,-0.01476,0.03248*
1,1,0.02953,0.01476,0.03248*
1,1,0.02953,0.01476,-0.03248*
1,1,0.02953,-0.01476,-0.03248*
%
%ADD76ROUNDEDRECTD76*%
%ADD80R,0.02756X0.02362*%
%ADD84C,0.05906*%
%ADD85R,0.05906X0.05906*%
%ADD86C,0.09449*%
%ADD87R,0.09449X0.09449*%
%ADD88R,0.05906X0.05906*%
D18*
X65500Y224500D02*
D03*
D19*
X243323Y48594D02*
D03*
Y50563D02*
D03*
Y52531D02*
D03*
Y54500D02*
D03*
Y56468D02*
D03*
Y58437D02*
D03*
Y60405D02*
D03*
D20*
X233677Y67295D02*
D03*
Y41705D02*
D03*
D21*
X119000Y176000D02*
D03*
Y172653D02*
D03*
X50000Y153827D02*
D03*
Y157173D02*
D03*
X65500Y151500D02*
D03*
Y154847D02*
D03*
X61000Y151500D02*
D03*
Y154847D02*
D03*
X95500Y194327D02*
D03*
Y197673D02*
D03*
X105000Y136827D02*
D03*
Y140173D02*
D03*
X64500Y162000D02*
D03*
Y165347D02*
D03*
X168500Y244327D02*
D03*
Y247673D02*
D03*
X182000Y245173D02*
D03*
Y241827D02*
D03*
X75000Y178000D02*
D03*
Y174653D02*
D03*
X251000Y57327D02*
D03*
Y60673D02*
D03*
D22*
X202420Y246355D02*
D03*
Y240292D02*
D03*
X142000Y224532D02*
D03*
Y218468D02*
D03*
Y236531D02*
D03*
Y230469D02*
D03*
X149964Y236531D02*
D03*
Y230469D02*
D03*
Y224532D02*
D03*
Y218468D02*
D03*
X158000Y236531D02*
D03*
Y230469D02*
D03*
Y224532D02*
D03*
Y218468D02*
D03*
X55500Y147968D02*
D03*
Y154032D02*
D03*
X96268Y93345D02*
D03*
Y99408D02*
D03*
X102537Y93387D02*
D03*
Y99449D02*
D03*
X108735Y82644D02*
D03*
Y88708D02*
D03*
X108500Y68468D02*
D03*
Y74532D02*
D03*
X177000Y196968D02*
D03*
Y203031D02*
D03*
D23*
X58294Y167184D02*
D03*
X51994Y175845D02*
D03*
X58294D02*
D03*
X51994Y167184D02*
D03*
D24*
X55500Y132500D02*
D03*
X52153D02*
D03*
X94515Y140720D02*
D03*
X97861D02*
D03*
X125827Y156000D02*
D03*
X129173D02*
D03*
X122153Y151500D02*
D03*
X125500D02*
D03*
X94653Y110000D02*
D03*
X98000D02*
D03*
X95414Y202129D02*
D03*
X98761D02*
D03*
X98761Y206678D02*
D03*
X95414D02*
D03*
X64346Y48500D02*
D03*
X61000D02*
D03*
X109327Y140000D02*
D03*
X112673D02*
D03*
X54654Y182000D02*
D03*
X58000D02*
D03*
X69000Y166000D02*
D03*
X72347D02*
D03*
X215000Y151500D02*
D03*
X218347D02*
D03*
X128327Y266500D02*
D03*
X131673D02*
D03*
X188827Y231500D02*
D03*
X192173D02*
D03*
X87673Y185000D02*
D03*
X84327D02*
D03*
D25*
X101740Y124724D02*
D03*
X98000D02*
D03*
X94260D02*
D03*
Y115276D02*
D03*
X101740D02*
D03*
D27*
X95499Y214499D02*
D03*
X93968Y270575D02*
D03*
X132833Y251066D02*
D03*
D28*
X99436Y212924D02*
D03*
X97467D02*
D03*
X93530D02*
D03*
X99436Y216074D02*
D03*
X97467D02*
D03*
X93530D02*
D03*
X91562Y212924D02*
D03*
Y216074D02*
D03*
X97905Y269000D02*
D03*
X95937D02*
D03*
X92000D02*
D03*
X97905Y272150D02*
D03*
X95937D02*
D03*
X92000D02*
D03*
X90031Y269000D02*
D03*
Y272150D02*
D03*
X136770Y249491D02*
D03*
Y252640D02*
D03*
X134801Y249491D02*
D03*
X130864D02*
D03*
X128896D02*
D03*
X134801Y252640D02*
D03*
X130864D02*
D03*
X128896D02*
D03*
D29*
X56032Y48500D02*
D03*
X49968D02*
D03*
X88032Y86500D02*
D03*
X81968D02*
D03*
X179532Y215500D02*
D03*
X173468D02*
D03*
X191532Y214000D02*
D03*
X185468D02*
D03*
X179532Y209500D02*
D03*
X173468D02*
D03*
X203000Y214500D02*
D03*
X209063D02*
D03*
X209032Y182000D02*
D03*
X202969D02*
D03*
X181532Y271500D02*
D03*
X175469D02*
D03*
D30*
X84417Y173827D02*
D03*
Y171858D02*
D03*
Y169890D02*
D03*
Y167921D02*
D03*
Y165953D02*
D03*
Y163984D02*
D03*
Y162016D02*
D03*
Y160047D02*
D03*
Y158079D02*
D03*
Y156110D02*
D03*
Y154142D02*
D03*
Y152173D02*
D03*
X111583D02*
D03*
Y154142D02*
D03*
Y156110D02*
D03*
Y158079D02*
D03*
Y160047D02*
D03*
Y162016D02*
D03*
Y163984D02*
D03*
Y165953D02*
D03*
Y167921D02*
D03*
Y169890D02*
D03*
Y171858D02*
D03*
Y173827D02*
D03*
D31*
X87173Y149417D02*
D03*
X89142D02*
D03*
X91110D02*
D03*
X93079D02*
D03*
X95047D02*
D03*
X97016D02*
D03*
X98984D02*
D03*
X100953D02*
D03*
X102921D02*
D03*
X104890D02*
D03*
X106858D02*
D03*
X108827D02*
D03*
Y176583D02*
D03*
X106858D02*
D03*
X104890D02*
D03*
X102921D02*
D03*
X100953D02*
D03*
X98984D02*
D03*
X97016D02*
D03*
X95047D02*
D03*
X93079D02*
D03*
X91110D02*
D03*
X89142D02*
D03*
X87173D02*
D03*
D32*
X98000Y163000D02*
D03*
D33*
X218740Y145807D02*
D03*
X211260D02*
D03*
X215000Y134193D02*
D03*
D34*
X77870Y57500D02*
D03*
X99130D02*
D03*
D35*
X118000Y89768D02*
D03*
Y73232D02*
D03*
D36*
X68000Y73004D02*
D03*
Y65996D02*
D03*
X221500Y188996D02*
D03*
Y196004D02*
D03*
D37*
X94760Y86315D02*
D03*
X98500D02*
D03*
X102240D02*
D03*
X94760Y75685D02*
D03*
X98500D02*
D03*
X102240D02*
D03*
D38*
X175500Y127878D02*
D03*
Y175122D02*
D03*
D39*
X191500Y93500D02*
D03*
Y115500D02*
D03*
D40*
X149232Y189000D02*
D03*
X165768D02*
D03*
D41*
X188988Y191000D02*
D03*
Y196000D02*
D03*
Y201000D02*
D03*
Y206000D02*
D03*
X208012D02*
D03*
Y201000D02*
D03*
Y196000D02*
D03*
D42*
Y191000D02*
D03*
D43*
X187441Y245929D02*
D03*
X190000D02*
D03*
X192559D02*
D03*
Y237071D02*
D03*
X190000D02*
D03*
X187441D02*
D03*
D44*
X179000Y259500D02*
D03*
X204000D02*
D03*
D45*
X149386Y282000D02*
D03*
X141512D02*
D03*
X147417D02*
D03*
X145449D02*
D03*
X143480D02*
D03*
X155291D02*
D03*
X153323D02*
D03*
X151354D02*
D03*
D46*
X135803D02*
D03*
X138953D02*
D03*
X157850D02*
D03*
X161000D02*
D03*
D65*
X198500Y198500D02*
D03*
D75*
X131445Y286043D02*
D03*
X165500D02*
D03*
D76*
X131445Y302500D02*
D03*
X165500D02*
D03*
D80*
X67258Y244863D02*
D03*
Y237382D02*
D03*
X59384Y241122D02*
D03*
D84*
X68000Y258500D02*
D03*
X78000D02*
D03*
X88000D02*
D03*
X98000D02*
D03*
X106000Y224500D02*
D03*
X96000D02*
D03*
X86000D02*
D03*
X76000D02*
D03*
X249000Y144500D02*
D03*
Y154500D02*
D03*
Y164500D02*
D03*
Y216000D02*
D03*
D85*
X108000Y258500D02*
D03*
X116000Y224500D02*
D03*
D86*
X247000Y291500D02*
D03*
D87*
X227315D02*
D03*
D88*
X249000Y174500D02*
D03*
Y226000D02*
D03*
M02*
